<?xml version="1.0" standalone="no"?>
<!DOCTYPE svg PUBLIC "-//W3C//DTD SVG 20010904//EN"
 "http://www.w3.org/TR/2001/REC-SVG-20010904/DTD/svg10.dtd">
<svg version="1.0" xmlns="http://www.w3.org/2000/svg"
 width="16.000000pt" height="16.000000pt" viewBox="0 0 16.000000 16.000000"
 preserveAspectRatio="xMidYMid meet">
<metadata>
Created by potrace 1.11, written by Peter Selinger 2001-2013
</metadata>
<g transform="translate(0.000000,16.000000) scale(0.002286,-0.002286)"
fill="#000000" stroke="none">
<path d="M3418 6540 c-93 -17 -159 -100 -162 -204 -2 -49 -7 -68 -24 -86 -51
-55 -54 -178 -7 -316 9 -26 20 -54 24 -63 6 -10 -7 -37 -44 -90 -203 -291
-327 -562 -339 -743 -4 -56 -7 -61 -129 -220 -69 -90 -141 -183 -160 -208 -53
-67 -114 -190 -142 -286 -73 -252 -41 -518 95 -779 31 -61 47 -104 48 -135 6
-108 39 -185 112 -259 52 -51 147 -106 206 -117 19 -3 34 -10 34 -14 0 -4 -42
-20 -92 -35 -173 -53 -612 -224 -660 -257 -32 -22 -43 -18 -52 18 -22 85 -174
419 -243 532 -18 30 -19 37 -7 71 7 22 27 92 44 157 36 140 37 203 4 319 -39
141 -56 182 -95 233 -42 57 -56 97 -64 191 -11 125 -43 220 -98 293 l-36 47
14 83 c7 46 16 108 20 138 6 50 11 86 31 220 3 25 7 54 9 65 1 11 3 23 4 26 0
4 11 9 24 13 66 16 90 66 112 236 10 72 14 79 51 86 47 9 149 -1 201 -20 53
-19 84 -39 154 -98 59 -51 98 -64 254 -85 169 -23 215 -1 263 125 47 121 66
229 66 377 0 222 -16 241 -244 280 -79 14 -153 25 -165 25 -24 0 -81 -26 -90
-41 -16 -24 -203 -6 -329 33 -55 17 -73 28 -87 52 -32 54 -57 63 -239 90 -50
7 -251 37 -275 41 -11 2 -42 6 -70 10 -27 4 -68 10 -90 14 -55 10 -153 1 -240
-21 -22 -5 -48 -12 -57 -14 -10 -2 -26 -6 -36 -8 -9 -2 -55 -19 -102 -38 -273
-108 -502 -307 -698 -606 -93 -142 -115 -191 -107 -245 5 -32 16 -54 40 -77
62 -60 134 -56 220 11 50 39 64 50 189 162 138 124 234 186 335 217 61 18 167
22 165 5 -1 -5 -5 -35 -8 -65 -3 -30 -10 -77 -16 -105 -24 -131 -13 -188 47
-232 29 -20 30 -24 23 -70 -4 -26 -11 -70 -14 -98 -4 -27 -13 -90 -21 -140
-13 -87 -24 -162 -30 -215 -2 -14 -6 -52 -10 -85 -10 -75 -18 -91 -51 -99 -61
-16 -154 -110 -154 -157 0 -8 -16 -33 -36 -55 -52 -57 -67 -98 -68 -184 0 -63
-3 -78 -21 -91 -36 -29 -67 -105 -67 -165 -1 -30 2 -57 5 -60 3 -3 -4 -25 -16
-47 -63 -121 18 -289 177 -373 30 -16 53 -31 51 -34 -1 -3 -6 -32 -10 -65 -12
-106 -15 -129 -20 -155 -3 -14 -7 -47 -10 -75 -3 -27 -8 -57 -10 -65 -6 -25
-17 -121 -20 -175 -6 -131 89 -261 218 -300 76 -23 207 -30 264 -15 25 8 66
29 90 47 25 19 48 32 51 29 3 -4 54 -152 112 -330 59 -179 120 -345 134 -371
40 -67 91 -114 162 -147 106 -49 184 -55 351 -24 36 7 199 44 225 52 13 4 20
-4 28 -34 14 -54 73 -111 125 -120 59 -10 77 -6 167 34 46 20 117 51 159 69
l77 33 -4 -36 c-11 -127 -19 -1299 -11 -1669 l1 -53 1143 0 1143 0 1 67 c1 38
2 100 4 138 1 39 6 180 9 315 16 613 29 916 39 926 3 4 26 6 51 7 33 0 52 -5
69 -20 91 -84 228 -125 330 -98 30 8 61 10 78 5 15 -5 54 -6 86 -3 32 4 95 5
140 4 46 -1 100 3 120 8 22 6 60 7 88 3 67 -10 155 8 208 44 58 40 66 43 159
50 95 7 115 14 166 51 79 59 199 159 235 198 48 51 95 146 103 209 17 137 -96
286 -237 311 -18 3 -36 8 -39 11 -3 3 -5 292 -6 642 -1 684 -1 678 -54 779
-25 49 -89 116 -140 147 -81 50 -126 60 -300 63 -91 1 -168 3 -172 3 -3 0 -9
19 -13 43 -21 128 -146 189 -258 124 -46 -27 -71 -66 -82 -127 -3 -19 -7 -36
-9 -37 -3 -3 -135 -5 -238 -4 l-57 1 34 73 c63 135 95 307 89 477 -3 99 -30
187 -75 242 l-30 38 30 107 c92 328 68 651 -66 916 -118 234 -339 415 -610
501 -93 29 -99 30 -243 56 -88 15 -147 18 -365 15 -228 -2 -264 0 -300 15 -35
15 -42 23 -52 64 -23 85 -107 146 -203 146 -20 0 -44 6 -55 14 -26 17 -81 24
-127 16z m1302 -3335 l0 -75 -26 6 c-15 4 -45 8 -68 9 -22 2 -45 3 -49 4 -4 1
18 23 50 49 32 27 64 56 72 65 7 10 15 17 17 17 2 0 4 -34 4 -75z"/>
</g>
</svg>
