<?xml version="1.0" encoding="utf-8"?>
<!-- Generator: Adobe Illustrator 16.0.0, SVG Export Plug-In . SVG Version: 6.00 Build 0)  -->
<!DOCTYPE svg PUBLIC "-//W3C//DTD SVG 1.1//EN" "http://www.w3.org/Graphics/SVG/1.1/DTD/svg11.dtd">
<svg version="1.1" id="Layer_1" xmlns="http://www.w3.org/2000/svg" xmlns:xlink="http://www.w3.org/1999/xlink" x="0px" y="0px"
	 width="32px" height="32px" viewBox="0 0 32 32" enable-background="new 0 0 32 32" xml:space="preserve">
<g>
	<path d="M0,0v32h32V0H0z M14.332,24.838H2.004v-2.459l2.246-2.033c3.797-3.396,5.642-5.348,5.696-7.381
		c0-1.417-0.855-2.54-2.861-2.54c-1.498,0-2.809,0.749-3.718,1.443l-1.15-2.914c1.311-0.99,3.342-1.792,5.696-1.792
		c3.932,0,6.098,2.301,6.098,5.455c0,2.915-2.114,5.243-4.627,7.489L7.78,21.443v0.053h6.552V24.838z M29.984,20.693h-2.086v4.145
		h-3.852v-4.145h-7.704v-2.648l6.583-10.589h4.973v10.189h2.086V20.693z"/>
	<path d="M22.471,13.794l-2.328,3.797v0.053h3.904v-3.85c0-1.043,0.055-2.113,0.135-3.236h-0.107
		C23.514,11.681,23.059,12.698,22.471,13.794z"/>
</g>
</svg>
