<?xml version="1.0" encoding="utf-8"?>
<!-- Generator: Adobe Illustrator 16.0.0, SVG Export Plug-In . SVG Version: 6.00 Build 0)  -->
<!DOCTYPE svg PUBLIC "-//W3C//DTD SVG 1.1//EN" "http://www.w3.org/Graphics/SVG/1.1/DTD/svg11.dtd">
<svg version="1.1" id="Layer_1" xmlns="http://www.w3.org/2000/svg" xmlns:xlink="http://www.w3.org/1999/xlink" x="0px" y="0px"
	 width="32px" height="32px" viewBox="0 0 32 32" enable-background="new 0 0 32 32" xml:space="preserve">
<g>
	<path d="M21.479,13.513c-1.301,0-1.921,1.007-1.981,1.858h3.994C23.445,14.535,22.872,13.513,21.479,13.513z"/>
	<path d="M30.986,0H1.012C0.454,0,0,0.454,0,1.012v29.974C0,31.547,0.454,32,1.012,32h29.974C31.547,32,32,31.547,32,30.986V1.012
		C32,0.454,31.547,0,30.986,0z M17.036,19.521h-1.549v-4.629c0-0.758-0.341-1.286-1.178-1.286c-0.696,0-1.332,0.465-1.641,0.945
		v4.97h-1.548v-4.629c0-0.758-0.325-1.286-1.161-1.286c-0.698,0-1.316,0.48-1.641,0.945v4.97H6.77V12.43h1.549v0.959
		c0.31-0.433,1.238-1.131,2.322-1.131c1.053,0,1.703,0.527,1.935,1.285c0.402-0.634,1.332-1.285,2.416-1.285
		c1.284,0,2.044,0.713,2.044,2.137V19.521z M24.961,16.47h-5.464c0.122,1.053,0.914,1.952,2.244,1.952
		c0.712,0,1.518-0.28,2.027-0.79l0.715,1.007c-0.715,0.681-1.767,1.035-2.881,1.035c-2.137,0.017-3.715-1.471-3.715-3.714
		c0-2.06,1.502-3.717,3.591-3.717c2.137,0,3.482,1.61,3.482,3.84V16.47z"/>
</g>
</svg>
