<?xml version="1.0" encoding="utf-8"?>
<!-- Generator: Adobe Illustrator 16.0.0, SVG Export Plug-In . SVG Version: 6.00 Build 0)  -->
<!DOCTYPE svg PUBLIC "-//W3C//DTD SVG 1.1//EN" "http://www.w3.org/Graphics/SVG/1.1/DTD/svg11.dtd">
<svg version="1.1" id="Shadow" xmlns="http://www.w3.org/2000/svg" xmlns:xlink="http://www.w3.org/1999/xlink" x="0px" y="0px"
	 width="32px" height="32px" viewBox="0 0 32 32" enable-background="new 0 0 32 32" xml:space="preserve">
<path fill-rule="evenodd" clip-rule="evenodd" d="M31.212,13.686c0,0.087,0,0.145,0,0.203c0,0.966-0.004,1.932,0.005,2.897
	c0.002,0.161-0.049,0.28-0.15,0.387c-0.454,0.478-0.899,0.965-1.37,1.43c-0.495,0.487-0.995,0.973-1.523,1.424
	c-0.979,0.834-2.02,1.586-3.197,2.121c-0.587,0.267-1.194,0.464-1.843,0.533c-0.897,0.095-1.77,0.027-2.564-0.432
	c-0.349-0.201-0.673-0.449-0.985-0.704c-0.673-0.547-1.164-1.256-1.637-1.968c-0.415-0.625-0.768-1.288-1.166-1.924
	c-0.361-0.578-0.732-1.15-1.121-1.71c-0.168-0.242-0.379-0.469-0.66-0.585c-0.463-0.19-0.84-0.017-1.12,0.464
	c-0.381,0.654-0.6,1.372-0.838,2.081c-0.234,0.7-0.45,1.405-0.686,2.104c-0.204,0.605-0.459,1.192-0.835,1.713
	c-0.32,0.441-0.703,0.816-1.274,0.901C9.714,22.7,9.198,22.656,8.75,22.312c-0.514-0.396-0.852-0.927-1.091-1.518
	c-0.267-0.657-0.52-1.322-0.753-1.993c-0.219-0.625-0.395-1.266-0.609-1.891c-0.175-0.511-0.339-1.029-0.646-1.484
	c-0.102-0.152-0.467-0.171-0.553-0.01c-0.166,0.312-0.353,0.625-0.452,0.96c-0.274,0.929-0.511,1.871-0.755,2.809
	c-0.141,0.538-0.268,1.079-0.401,1.619c-0.063,0.258-0.125,0.517-0.188,0.772c-0.008,0.033-0.027,0.064-0.064,0.089
	c0-0.057,0-0.114,0-0.171c0-1.591,0.011-3.181-0.007-4.771c-0.005-0.442,0.103-0.841,0.264-1.239
	c0.153-0.378,0.341-0.738,0.609-1.042c0.248-0.282,0.56-0.468,0.949-0.508c0.425-0.045,0.835-0.03,1.202,0.217
	c0.277,0.186,0.485,0.442,0.653,0.725c0.391,0.658,0.621,1.383,0.857,2.106c0.389,1.193,0.697,2.417,1.273,3.542
	c0.105,0.207,0.252,0.396,0.398,0.579c0.241,0.302,0.708,0.18,0.904-0.087c0.346-0.469,0.558-1.001,0.742-1.544
	c0.346-1.015,0.667-2.037,1.015-3.053c0.205-0.601,0.472-1.178,0.861-1.685c0.515-0.669,1.196-0.919,2.036-0.795
	c0.708,0.105,1.196,0.523,1.636,1.037c0.734,0.855,1.24,1.856,1.814,2.813c0.455,0.757,0.911,1.518,1.494,2.184
	c0.529,0.604,1.12,1.144,1.949,1.312c0.581,0.116,1.149,0.063,1.698-0.155c0.629-0.251,1.19-0.617,1.703-1.053
	c0.418-0.354,0.832-0.716,1.225-1.097c0.488-0.473,0.964-0.958,1.426-1.458c0.451-0.488,0.882-0.995,1.312-1.503
	c0.527-0.625,1.044-1.259,1.566-1.888C30.938,13.99,31.065,13.853,31.212,13.686z"/>
</svg>
