<?xml version="1.0" encoding="utf-8"?>
<!-- Generator: Adobe Illustrator 16.0.0, SVG Export Plug-In . SVG Version: 6.00 Build 0)  -->
<!DOCTYPE svg PUBLIC "-//W3C//DTD SVG 1.1//EN" "http://www.w3.org/Graphics/SVG/1.1/DTD/svg11.dtd">
<svg version="1.1" id="white_Line" xmlns="http://www.w3.org/2000/svg" xmlns:xlink="http://www.w3.org/1999/xlink" x="0px" y="0px"
	 width="32px" height="32px" viewBox="0 0 32 32" enable-background="new 0 0 32 32" xml:space="preserve">
<path fill-rule="evenodd" clip-rule="evenodd" d="M29.971,11.439c0,0.087,0,0.145,0,0.204c0,0.965-0.004,1.932,0.006,2.898
	c0.002,0.161-0.049,0.279-0.151,0.386c-0.454,0.479-0.899,0.966-1.369,1.429c-0.495,0.489-0.995,0.975-1.524,1.426
	c-0.979,0.833-2.019,1.586-3.196,2.12c-0.587,0.267-1.195,0.465-1.843,0.533c-0.897,0.095-1.769,0.028-2.565-0.431
	c-0.347-0.202-0.672-0.45-0.984-0.705c-0.672-0.547-1.163-1.256-1.637-1.967c-0.415-0.625-0.768-1.289-1.166-1.925
	c-0.361-0.578-0.733-1.15-1.121-1.709c-0.168-0.242-0.379-0.469-0.659-0.585c-0.463-0.191-0.841-0.017-1.12,0.464
	c-0.381,0.654-0.6,1.371-0.838,2.081c-0.234,0.699-0.451,1.406-0.686,2.104c-0.205,0.605-0.458,1.191-0.836,1.713
	c-0.32,0.442-0.703,0.816-1.274,0.901c-0.532,0.08-1.048,0.036-1.496-0.309c-0.514-0.396-0.852-0.926-1.091-1.518
	c-0.267-0.657-0.52-1.322-0.753-1.993c-0.219-0.625-0.395-1.265-0.609-1.892c-0.175-0.51-0.339-1.028-0.645-1.483
	c-0.103-0.153-0.468-0.171-0.554-0.01c-0.167,0.312-0.352,0.625-0.452,0.961c-0.274,0.93-0.511,1.87-0.756,2.808
	c-0.141,0.539-0.268,1.081-0.4,1.621c-0.063,0.257-0.125,0.516-0.188,0.771c-0.009,0.034-0.027,0.064-0.064,0.09
	c0-0.057,0-0.115,0-0.172c0-1.59,0.011-3.181-0.007-4.771c-0.005-0.442,0.103-0.841,0.264-1.24c0.153-0.378,0.34-0.737,0.609-1.042
	c0.248-0.281,0.56-0.467,0.95-0.508c0.424-0.044,0.834-0.03,1.202,0.217c0.277,0.187,0.485,0.443,0.653,0.726
	c0.39,0.658,0.622,1.383,0.857,2.106c0.389,1.194,0.698,2.417,1.273,3.543c0.106,0.206,0.252,0.395,0.399,0.578
	c0.24,0.302,0.708,0.18,0.904-0.087c0.346-0.47,0.557-1.001,0.742-1.544c0.346-1.015,0.667-2.038,1.014-3.052
	c0.206-0.602,0.473-1.179,0.862-1.686c0.515-0.669,1.196-0.918,2.036-0.794c0.708,0.104,1.196,0.523,1.637,1.037
	c0.733,0.855,1.239,1.856,1.812,2.813c0.455,0.758,0.913,1.519,1.494,2.184c0.529,0.604,1.12,1.145,1.949,1.312
	c0.581,0.116,1.15,0.064,1.699-0.155c0.629-0.251,1.189-0.617,1.704-1.052c0.417-0.355,0.831-0.716,1.224-1.098
	c0.487-0.473,0.965-0.958,1.425-1.458c0.451-0.488,0.883-0.996,1.312-1.503c0.528-0.625,1.044-1.259,1.567-1.888
	C29.697,11.744,29.824,11.606,29.971,11.439z"/>
</svg>
