<?xml version="1.0" encoding="utf-8"?>
<!-- Generator: Adobe Illustrator 16.0.0, SVG Export Plug-In . SVG Version: 6.00 Build 0)  -->
<!DOCTYPE svg PUBLIC "-//W3C//DTD SVG 1.1//EN" "http://www.w3.org/Graphics/SVG/1.1/DTD/svg11.dtd">
<svg version="1.1" id="Layer_1" xmlns="http://www.w3.org/2000/svg" xmlns:xlink="http://www.w3.org/1999/xlink" x="0px" y="0px"
	 width="32px" height="32px" viewBox="0 0 32 32" enable-background="new 0 0 32 32" xml:space="preserve">
<path fill-rule="evenodd" clip-rule="evenodd" d="M32.031,32.047c0-10.677,0-21.354,0-32.031c0.011,0.005,0.029,0.01,0.03,0.016
	c0.002,0.042,0.001,0.083,0.001,0.125c0,10.583,0,21.167-0.001,31.75C32.062,31.953,32.042,32,32.031,32.047z"/>
<path fill-rule="evenodd" clip-rule="evenodd" d="M29.497,11.711c0,0.084,0,0.14,0,0.195c0,0.928-0.004,1.856,0.005,2.784
	c0.002,0.154-0.047,0.268-0.145,0.371c-0.437,0.459-0.864,0.928-1.315,1.373c-0.476,0.469-0.956,0.935-1.464,1.369
	c-0.94,0.801-1.939,1.523-3.071,2.037c-0.563,0.256-1.147,0.446-1.77,0.512c-0.862,0.092-1.699,0.027-2.464-0.414
	c-0.334-0.193-0.646-0.432-0.946-0.677c-0.646-0.525-1.117-1.206-1.572-1.89c-0.398-0.6-0.738-1.237-1.119-1.849
	c-0.347-0.555-0.704-1.104-1.077-1.642c-0.162-0.232-0.364-0.451-0.633-0.562c-0.445-0.183-0.807-0.016-1.076,0.446
	c-0.366,0.628-0.576,1.317-0.805,1.999c-0.225,0.671-0.433,1.35-0.659,2.021c-0.196,0.582-0.44,1.146-0.803,1.646
	c-0.307,0.425-0.675,0.784-1.224,0.866c-0.511,0.076-1.006,0.034-1.437-0.297c-0.494-0.381-0.819-0.89-1.048-1.457
	c-0.256-0.632-0.499-1.271-0.724-1.915c-0.21-0.6-0.379-1.215-0.585-1.816c-0.168-0.491-0.326-0.988-0.62-1.425
	c-0.099-0.146-0.449-0.165-0.532-0.01c-0.16,0.3-0.338,0.601-0.434,0.923c-0.264,0.893-0.491,1.796-0.726,2.697
	c-0.135,0.518-0.257,1.038-0.385,1.557c-0.061,0.247-0.12,0.495-0.181,0.741c-0.008,0.032-0.026,0.062-0.062,0.086
	c0-0.055,0-0.11,0-0.165c0-1.527,0.011-3.055-0.007-4.582c-0.004-0.425,0.099-0.808,0.254-1.191
	c0.147-0.363,0.327-0.708,0.585-1.001c0.238-0.271,0.538-0.449,0.912-0.488c0.408-0.043,0.802-0.029,1.155,0.208
	c0.266,0.179,0.466,0.425,0.627,0.697c0.375,0.632,0.597,1.329,0.823,2.023c0.374,1.147,0.67,2.322,1.223,3.403
	c0.102,0.198,0.243,0.38,0.383,0.556c0.231,0.29,0.68,0.173,0.868-0.083c0.333-0.451,0.536-0.962,0.713-1.483
	c0.332-0.975,0.641-1.958,0.975-2.932c0.197-0.577,0.454-1.132,0.828-1.619c0.494-0.643,1.148-0.882,1.955-0.763
	c0.68,0.101,1.149,0.502,1.572,0.996c0.705,0.821,1.191,1.783,1.742,2.702c0.438,0.728,0.876,1.458,1.436,2.098
	c0.508,0.58,1.075,1.099,1.872,1.26c0.558,0.111,1.104,0.062,1.632-0.149c0.604-0.241,1.143-0.593,1.636-1.011
	c0.401-0.341,0.799-0.688,1.176-1.054c0.469-0.454,0.927-0.92,1.369-1.4c0.434-0.469,0.848-0.956,1.26-1.444
	c0.507-0.6,1.003-1.209,1.505-1.813C29.234,12.003,29.356,11.872,29.497,11.711z"/>
</svg>
