<?xml version="1.0" encoding="utf-8"?>
<!-- Generator: Adobe Illustrator 16.0.0, SVG Export Plug-In . SVG Version: 6.00 Build 0)  -->
<!DOCTYPE svg PUBLIC "-//W3C//DTD SVG 1.1//EN" "http://www.w3.org/Graphics/SVG/1.1/DTD/svg11.dtd">
<svg version="1.1" id="Green_line" xmlns="http://www.w3.org/2000/svg" xmlns:xlink="http://www.w3.org/1999/xlink" x="0px" y="0px"
	 width="32px" height="32px" viewBox="0 0 32 32" enable-background="new 0 0 32 32" xml:space="preserve">
<path fill-rule="evenodd" clip-rule="evenodd" d="M21.279,20.472c-0.681,0.006-1.339-0.115-1.952-0.468
	c-0.347-0.202-0.672-0.45-0.984-0.705c-0.672-0.547-1.163-1.256-1.637-1.967c-0.415-0.625-0.768-1.289-1.166-1.925
	c-0.361-0.578-0.733-1.15-1.121-1.709c-0.168-0.242-0.379-0.469-0.659-0.585c-0.145-0.06-0.281-0.084-0.408-0.074l0.001-1.373
	c0.129,0,0.263,0.01,0.401,0.031c0.708,0.104,1.196,0.523,1.637,1.037c0.733,0.855,1.239,1.856,1.812,2.813
	c0.455,0.758,0.913,1.519,1.494,2.184c0.529,0.604,1.12,1.145,1.949,1.312c0.213,0.043,0.424,0.062,0.632,0.061V20.472z"/>
<path fill-rule="evenodd" clip-rule="evenodd" d="M8.717,20.404c-0.429,0.023-0.841-0.057-1.208-0.338
	c-0.514-0.396-0.852-0.926-1.091-1.518c-0.267-0.657-0.52-1.322-0.753-1.993c-0.219-0.625-0.395-1.265-0.609-1.892
	c-0.175-0.51-0.339-1.028-0.645-1.483c-0.052-0.077-0.168-0.119-0.283-0.123l-0.009-1.389c0.314-0.004,0.618,0.049,0.896,0.236
	c0.277,0.187,0.485,0.443,0.653,0.726c0.39,0.658,0.622,1.383,0.857,2.106c0.389,1.194,0.698,2.417,1.273,3.543
	c0.106,0.206,0.252,0.395,0.399,0.578c0.133,0.167,0.335,0.204,0.521,0.161L8.717,20.404z"/>
</svg>
