<?xml version="1.0" encoding="utf-8"?>
<!-- Generator: Adobe Illustrator 16.0.0, SVG Export Plug-In . SVG Version: 6.00 Build 0)  -->
<!DOCTYPE svg PUBLIC "-//W3C//DTD SVG 1.1//EN" "http://www.w3.org/Graphics/SVG/1.1/DTD/svg11.dtd">
<svg version="1.1" id="Layer_1" xmlns="http://www.w3.org/2000/svg" xmlns:xlink="http://www.w3.org/1999/xlink" x="0px" y="0px"
	 width="32px" height="32px" viewBox="0 0 32 32" enable-background="new 0 0 32 32" xml:space="preserve">
<path d="M29.953,16.35c0-0.632-0.072-1.408-0.219-2.331H16.547v4.809h7.906c-0.074,0.582-0.273,1.189-0.602,1.82
	s-0.785,1.275-1.365,1.932c-0.584,0.654-1.393,1.195-2.426,1.619c-1.031,0.426-2.201,0.639-3.513,0.639
	c-2.404,0-4.457-0.861-6.157-2.586c-1.699-1.725-2.549-3.801-2.549-6.23c0-2.428,0.85-4.504,2.549-6.229
	c1.7-1.725,3.753-2.586,6.157-2.586c2.234,0,4.091,0.716,5.574,2.148l3.789-3.679c-2.625-2.43-5.744-3.644-9.363-3.644
	c-3.886,0-7.189,1.366-9.908,4.099c-2.721,2.732-4.08,6.028-4.08,9.89c0,3.861,1.359,7.158,4.08,9.89
	c2.719,2.732,6.022,4.1,9.908,4.1c4.005,0,7.244-1.275,9.707-3.826C28.721,23.637,29.953,20.357,29.953,16.35z M32,6v20
	c0,1.652-0.587,3.066-1.761,4.239C29.066,31.413,27.652,32,26,32H6c-1.653,0-3.066-0.587-4.24-1.761C0.587,29.066,0,27.652,0,26V6
	c0-1.653,0.587-3.066,1.76-4.24C2.934,0.587,4.347,0,6,0h20c1.652,0,3.066,0.587,4.239,1.76C31.413,2.934,32,4.347,32,6z"/>
</svg>
