<?xml version="1.0" encoding="utf-8"?>
<!-- Generator: Adobe Illustrator 16.0.0, SVG Export Plug-In . SVG Version: 6.00 Build 0)  -->
<!DOCTYPE svg PUBLIC "-//W3C//DTD SVG 1.1//EN" "http://www.w3.org/Graphics/SVG/1.1/DTD/svg11.dtd">
<svg version="1.1" id="Layer_1" xmlns="http://www.w3.org/2000/svg" xmlns:xlink="http://www.w3.org/1999/xlink" x="0px" y="0px"
	 width="32px" height="32px" viewBox="0 0 32 32" enable-background="new 0 0 32 32" xml:space="preserve">
<g>
	<path d="M29,0H3C1.343,0,0,1.343,0,3v26c0,1.656,1.343,3,3,3h26c1.656,0,3-1.344,3-3V3C32,1.343,30.656,0,29,0z M16,27.26
		c-1.672,0-3.277-0.207-4.778-0.586c-2.363,1.186-5.7,2.732-7.024,2.732c1.019-1.527,1.554-3.424,1.835-4.994
		C2.946,22.35,1,19.346,1,16C1,9.781,7.716,4.739,16,4.739c8.285,0,15,5.042,15,11.261C31,22.219,24.285,27.26,16,27.26z"/>
	<path d="M18.907,10.216c-2.293,0-2.919,1.808-2.919,3.013c0-1.205-1.235-3.013-2.909-3.013c-2.487,0-4.502,2.024-4.502,4.52
		c0,0.498,0.081,0.978,0.229,1.424c0.052,0.214,0.145,0.442,0.291,0.686c0.271,0.513,0.636,0.966,1.073,1.337
		c2.105,2.207,5.822,4.68,5.822,4.68s3.717-2.471,5.822-4.68c0.438-0.371,0.803-0.824,1.073-1.337
		c0.146-0.244,0.239-0.472,0.29-0.686c0.149-0.447,0.231-0.926,0.231-1.424C23.41,12.24,21.395,10.216,18.907,10.216z"/>
</g>
</svg>
