<?xml version="1.0" encoding="utf-8"?>
<!-- Generator: Adobe Illustrator 16.0.0, SVG Export Plug-In . SVG Version: 6.00 Build 0)  -->
<!DOCTYPE svg PUBLIC "-//W3C//DTD SVG 1.1//EN" "http://www.w3.org/Graphics/SVG/1.1/DTD/svg11.dtd">
<svg version="1.1" id="heart" xmlns="http://www.w3.org/2000/svg" xmlns:xlink="http://www.w3.org/1999/xlink" x="0px" y="0px"
	 width="32px" height="32px" viewBox="0 0 32 32" enable-background="new 0 0 32 32" xml:space="preserve">
<g>
	<path d="M23.658,15.027c-0.055,0.229-0.154,0.472-0.311,0.732c-0.288,0.547-0.678,1.03-1.145,1.426
		c-2.246,2.355-6.21,4.992-6.21,4.992s-3.965-2.639-6.21-4.992c-0.467-0.396-0.856-0.878-1.145-1.426
		c-0.156-0.261-0.255-0.504-0.31-0.732c-0.159-0.477-0.246-0.988-0.246-1.519c0-2.662,2.15-4.821,4.803-4.821
		c1.786,0,3.103,1.928,3.103,3.213c0-1.286,0.668-3.213,3.113-3.213c2.653,0,4.804,2.159,4.804,4.821
		C23.904,14.04,23.817,14.551,23.658,15.027z"/>
</g>
</svg>
