<?xml version="1.0" encoding="utf-8"?>
<!-- Generator: Adobe Illustrator 16.0.0, SVG Export Plug-In . SVG Version: 6.00 Build 0)  -->
<!DOCTYPE svg PUBLIC "-//W3C//DTD SVG 1.1//EN" "http://www.w3.org/Graphics/SVG/1.1/DTD/svg11.dtd">
<svg version="1.1" id="Ballon" xmlns="http://www.w3.org/2000/svg" xmlns:xlink="http://www.w3.org/1999/xlink" x="0px" y="0px"
	 width="32px" height="32px" viewBox="0 0 32 32" enable-background="new 0 0 32 32" xml:space="preserve">
<g id="Hype_Machine">
	<path d="M16.001,3.844C24.271,3.844,31,8.784,31,14.856s-6.729,11.011-14.999,11.011c-1.653,0-3.285-0.201-4.853-0.597
		l-0.361-0.091l-0.333,0.167c-2.432,1.221-4.057,1.915-5.131,2.307c0.442-1.076,0.787-2.296,1.029-3.649l0.115-0.644l-0.544-0.363
		C2.795,20.906,1,17.939,1,14.856C1,8.784,7.729,3.844,16.001,3.844 M16.001,2.844c-8.837,0-16,5.378-16,12.012
		c0,3.568,2.076,6.773,5.367,8.972c-0.3,1.678-0.871,3.699-1.957,5.328c1.413,0,4.972-1.65,7.492-2.916
		c1.601,0.404,3.314,0.627,5.098,0.627C24.837,26.867,32,21.49,32,14.856C32,8.222,24.837,2.844,16.001,2.844L16.001,2.844z"/>
</g>
</svg>
