<?xml version="1.0" encoding="utf-8"?>
<!-- Generator: Adobe Illustrator 16.0.0, SVG Export Plug-In . SVG Version: 6.00 Build 0)  -->
<!DOCTYPE svg PUBLIC "-//W3C//DTD SVG 1.1//EN" "http://www.w3.org/Graphics/SVG/1.1/DTD/svg11.dtd">
<svg version="1.1" id="Layer_1" xmlns="http://www.w3.org/2000/svg" xmlns:xlink="http://www.w3.org/1999/xlink" x="0px" y="0px"
	 width="32px" height="32px" viewBox="0 0 32 32" enable-background="new 0 0 32 32" xml:space="preserve">
<g>
	<path fill-rule="evenodd" clip-rule="evenodd" d="M31.933,14.683c-0.047-0.49-0.101-0.98-0.186-1.464
		c-0.142-0.816-0.35-1.616-0.622-2.398c-0.282-0.811-0.622-1.595-1.027-2.351c-0.132-0.246-0.294-0.484-0.381-0.746
		c-0.829-2.513-1.646-5.03-2.468-7.545c-0.012-0.037-0.026-0.074-0.043-0.116c-0.042,0.021-0.073,0.035-0.105,0.051
		c-1.133,0.599-2.267,1.197-3.398,1.798c-0.065,0.034-0.118,0.043-0.186,0.006c-0.592-0.321-1.204-0.596-1.833-0.833
		c-1.213-0.457-2.461-0.783-3.752-0.915c-0.626-0.064-1.255-0.118-1.884-0.123c-0.587-0.004-1.176,0.055-1.761,0.102
		c-0.728,0.058-1.442,0.201-2.148,0.378C10.868,0.845,9.651,1.31,8.498,1.933c-0.075,0.041-0.133,0.042-0.21,0
		C7.285,1.4,6.28,0.871,5.276,0.341C5.102,0.249,4.927,0.157,4.741,0.059C4.725,0.102,4.711,0.13,4.702,0.16
		C4.479,0.842,4.258,1.525,4.035,2.208C3.45,4.001,2.867,5.795,2.279,7.588c-0.089,0.275-0.17,0.557-0.302,0.811
		c-0.425,0.814-0.797,1.649-1.091,2.52c-0.405,1.198-0.665,2.427-0.773,3.687c-0.057,0.658-0.1,1.315-0.054,1.974
		c0.037,0.535,0.073,1.073,0.138,1.605c0.086,0.711,0.24,1.409,0.432,2.1c0.256,0.926,0.592,1.821,1.01,2.686
		c0.708,1.463,1.618,2.789,2.73,3.976c1.127,1.203,2.413,2.206,3.85,3.014c0.918,0.516,1.88,0.936,2.882,1.259
		c0.982,0.317,1.984,0.557,3.014,0.654c0.65,0.062,1.306,0.107,1.96,0.125c0.426,0.012,0.853-0.022,1.277-0.066
		c0.553-0.057,1.104-0.125,1.651-0.221c0.968-0.171,1.905-0.451,2.821-0.808c1.271-0.494,2.458-1.142,3.562-1.94
		c1.075-0.777,2.038-1.678,2.89-2.697c0.745-0.89,1.384-1.848,1.919-2.877c0.54-1.034,0.959-2.115,1.259-3.241
		c0.193-0.726,0.354-1.459,0.42-2.208c0.059-0.662,0.107-1.326,0.125-1.989C32.01,15.528,31.972,15.104,31.933,14.683z
		 M27.007,17.107c-0.424,0.685-0.981,1.233-1.676,1.64c-0.434,0.253-0.897,0.427-1.389,0.535c-0.497,0.109-0.996,0.12-1.497,0.063
		c-1.156-0.128-2.118-0.648-2.916-1.486c-0.052-0.056-0.101-0.114-0.157-0.181c-0.144,0.17-0.282,0.335-0.421,0.499
		c-0.641,0.758-1.281,1.517-1.92,2.276c-0.31,0.367-0.62,0.734-0.928,1.104c-0.056,0.066-0.09,0.068-0.148,0.003
		c-0.712-0.793-1.426-1.585-2.142-2.376c-0.401-0.443-0.804-0.887-1.205-1.331c-0.015-0.017-0.026-0.036-0.047-0.066
		c-0.045,0.052-0.079,0.088-0.11,0.126c-0.474,0.581-1.059,1.016-1.741,1.32c-0.369,0.163-0.753,0.279-1.157,0.335
		c-0.338,0.045-0.674,0.075-1.016,0.05c-0.993-0.073-1.875-0.422-2.649-1.047c-0.591-0.478-1.039-1.065-1.354-1.752
		c-0.166-0.36-0.281-0.739-0.353-1.132c-0.064-0.35-0.098-0.7-0.084-1.052c0.021-0.558,0.127-1.1,0.331-1.623
		c0.297-0.76,0.753-1.404,1.371-1.934c0.501-0.43,1.07-0.739,1.703-0.932c0.554-0.169,1.122-0.225,1.695-0.183
		c0.94,0.07,1.784,0.405,2.526,0.987c0.657,0.515,1.146,1.16,1.473,1.929c0.131,0.308,0.222,0.627,0.292,0.954
		c0.08,0.379,0.099,0.761,0.091,1.146c-0.003,0.139,0,0.141,0.143,0.139c0.859-0.013,1.718-0.027,2.577-0.04
		c0.45-0.007,0.897-0.013,1.347-0.022c0.203-0.003,0.406-0.015,0.631-0.024c-0.014-0.072-0.034-0.131-0.032-0.189
		c0.001-0.225,0.007-0.45,0.018-0.676c0.003-0.104,0.019-0.208,0.031-0.312c0.079-0.599,0.27-1.162,0.564-1.687
		c0.513-0.913,1.243-1.596,2.193-2.038c0.398-0.185,0.815-0.317,1.256-0.366c0.182-0.021,0.365-0.05,0.548-0.062
		c0.119-0.008,0.241-0.004,0.361,0.011c0.286,0.034,0.575,0.06,0.855,0.123c0.4,0.09,0.781,0.242,1.143,0.441
		c0.765,0.421,1.372,1.007,1.822,1.753c0.212,0.35,0.371,0.723,0.489,1.114c0.177,0.583,0.231,1.18,0.189,1.781
		C27.657,15.709,27.419,16.439,27.007,17.107z"/>
	<path fill-rule="evenodd" clip-rule="evenodd" d="M23.696,11.468c-0.51,0.033-0.943,0.493-0.948,1.067
		c-0.004,0.55,0.46,1.088,1.045,1.04c0.591,0.043,1.042-0.47,1.049-1.035C24.85,11.979,24.411,11.421,23.696,11.468z"/>
	<path fill-rule="evenodd" clip-rule="evenodd" d="M9.667,11.718c-0.52,0.012-1.045,0.482-1,1.068
		c-0.029,0.606,0.464,1.07,1.03,1.067c0.564-0.001,1.042-0.433,1.043-1.073C10.741,12.126,10.197,11.708,9.667,11.718z"/>
</g>
</svg>
