<?xml version="1.0" encoding="utf-8"?>
<!-- Generator: Adobe Illustrator 16.0.0, SVG Export Plug-In . SVG Version: 6.00 Build 0)  -->
<!DOCTYPE svg PUBLIC "-//W3C//DTD SVG 1.1//EN" "http://www.w3.org/Graphics/SVG/1.1/DTD/svg11.dtd">
<svg version="1.1" id="Layer_2" xmlns="http://www.w3.org/2000/svg" xmlns:xlink="http://www.w3.org/1999/xlink" x="0px" y="0px"
	 width="32px" height="32px" viewBox="0 0 32 32" enable-background="new 0 0 32 32" xml:space="preserve">
<g>
	<path d="M16,1.25c8.133,0,14.75,6.617,14.75,14.75c0,8.133-6.617,14.75-14.75,14.75C7.867,30.75,1.25,24.133,1.25,16
		C1.25,7.867,7.867,1.25,16,1.25 M16,0C7.164,0,0,7.164,0,16c0,8.837,7.164,16,16,16c8.837,0,16-7.163,16-16C32,7.164,24.837,0,16,0
		L16,0z"/>
</g>
<g>
	<path d="M18.25,9.25v13.5H4.75V9.25H18.25 M19.5,8h-16v16h16V8L19.5,8z"/>
</g>
<g>
	<path d="M13.25,3.04L29.784,16L13.25,28.959V3.04 M12.5,1.5v29L31,16L12.5,1.5L12.5,1.5z"/>
</g>
</svg>
