<?xml version="1.0" encoding="utf-8"?>
<!-- Generator: Adobe Illustrator 16.0.0, SVG Export Plug-In . SVG Version: 6.00 Build 0)  -->
<!DOCTYPE svg PUBLIC "-//W3C//DTD SVG 1.1//EN" "http://www.w3.org/Graphics/SVG/1.1/DTD/svg11.dtd">
<svg version="1.1" id="Layer_1" xmlns="http://www.w3.org/2000/svg" xmlns:xlink="http://www.w3.org/1999/xlink" x="0px" y="0px"
	 width="400px" height="293.965px" viewBox="0 0 400 293.965" enable-background="new 0 0 400 293.965" xml:space="preserve">
<g>
	<path d="M399.117,241.03l-5.575-20.9l4.124-13.289c0.565-1.821,0.231-3.802-0.899-5.337s-2.925-2.441-4.831-2.441h-7.172
		l-0.002-2.261c-0.003-3.312-2.688-5.995-6-5.995H367.34c-3.313,0-6,2.687-6,6v3.867c-2.823-1.534-6.37-2.29-10.793-2.29
		c-4.305,0-7.984,0.895-10.938,2.661c-0.1,0.06-0.19,0.124-0.288,0.185c-0.238-0.185-0.487-0.357-0.752-0.505v-0.664
		c0-3.313-2.687-6-6-6h-11.448c-3.313,0-6,2.687-6,6v0.76c-0.779-0.417-1.596-0.806-2.491-1.131
		c-2.392-0.866-5.214-1.305-8.388-1.305c-3.273,0-6.257,0.539-8.869,1.604c-2.047,0.835-3.748,1.963-5.095,3.361
		c-1.448-1.363-3.228-2.491-5.317-3.361c-2.562-1.063-5.558-1.604-8.904-1.604c-4.151,0-7.727,0.891-10.63,2.649
		c-1.059,0.642-2.004,1.371-2.851,2.172c-0.635-0.732-1.396-1.462-2.352-2.155c-1.162-0.841-2.43-1.478-3.788-1.922
		c0.479-7.803,1.066-14.959,1.712-21.234h3.572c2.804,2.758,6.499,4.483,9.927,4.484c0.812,0,1.61-0.094,2.378-0.28
		c0.549-0.134,1.066-0.327,1.565-0.55c1.144,0.342,2.303,0.534,3.443,0.534c0,0,0,0,0.001,0c0.7,0,1.396-0.066,2.087-0.203
		c0.607-0.122,1.187-0.311,1.745-0.536c1.084,0.334,2.197,0.521,3.315,0.521h0.001c0.452,0,0.907-0.028,1.355-0.086
		c0.932-0.12,1.813-0.373,2.645-0.723c1.057,0.335,2.158,0.515,3.28,0.515c0.25,0,0.499-0.009,0.757-0.027
		c2.424-0.175,4.64-1.186,6.393-2.861c0.833-0.201,2.514-0.511,5.636-0.765c0.015,0,0.03,0,0.045,0
		c2.223-0.002,2.223-0.002,8.917-5.354c1.836-1.469,7.423-5.939,7.013-12.042c-0.128-1.897-0.996-5.476-5.381-8.107
		c-1.292-0.775-2.848-1.242-4.542-1.401v-42.539c0-7.86-6.396-14.254-14.256-14.254h-9.286c0.008-0.176,0.012-0.356,0.021-0.529
		c0.195-3.308-2.328-6.148-5.637-6.343c-3.297-0.187-6.147,2.329-6.342,5.637c-0.023,0.404-0.036,0.82-0.049,1.235h-10.558
		c2.054-3.496,3.585-7.822,4.203-12.974c0.864-7.195,0-11.973-2.717-15.036c-0.276-0.312-0.578-0.591-0.888-0.859
		c1.049-2.645,1.883-5.632,2.429-8.835c1.508-8.844,0.56-17.741-2.67-25.052c-9.694-21.943-35.1-23.159-51.573-21.353
		c-1.341-0.458-3.247-1.134-3.616-1.597c0,0-0.025-0.067-0.04-0.234c-0.024-0.288-0.07-0.573-0.136-0.854
		c-0.848-3.623-4.343-6.035-8.101-5.418c-1.163-0.794-2.549-1.267-4.015-1.267c-0.683,0-1.361,0.098-2.021,0.292
		c-3.579,1.058-5.721,4.694-4.992,8.287c0.029,0.197,0.073,0.39,0.107,0.586c-1.744,1.49-2.749,3.782-2.504,6.215
		c0.311,3.32,1.141,6.212,2.39,8.606c-11.418,15.804-13.994,25.093-13.717,30.428c-4.059,5.351-8.104,10.64-8.78,11.445
		c-1.881,2.079-6.241,7.776-7.266,16.818c-0.918,8.104,1.198,16.634,6.128,24.753c-0.182,2.892,0.312,6.076,2.399,9.021
		c2.208,3.115,5.645,5.16,10.396,6.187c-9.515,2.627-23.872,8.729-25.788,9.55c-0.828,0.355-1.531,0.879-2.097,1.51
		c-3.058-9.353-7.449-17.333-9.714-21.136c0.503-1.792,0.951-3.251,1.333-4.497c2.286-7.459,2.419-9.337-0.788-18.678
		c-0.094-0.273-0.207-0.539-0.339-0.795c-0.98-1.908-1.945-2.983-2.861-3.767c-0.123-0.441-0.31-1.224-0.559-2.571
		c-0.332-6.944-1.965-11.599-4.862-13.936l2.662-18.934c0.775-0.129,1.517-0.438,2.16-0.916c1.065-0.791,1.771-1.972,1.965-3.284
		l1.044-7.071c1.269-0.254,2.496-0.396,3.662-0.396c4.138,0,7.617,1.59,10.637,4.86c0.775,0.839,1.813,1.388,2.943,1.555l8.396,1.24
		c0.245,0.036,0.49,0.054,0.732,0.054c1.816,0,3.515-0.991,4.397-2.623c0.188-0.347,4.583-8.642,3.072-20.05
		c-0.287-2.166-1.946-3.895-4.099-4.27l-8.814-1.535c-1.715-0.299-3.414,0.313-4.544,1.547c-0.383,0.083-1.104,0.19-2.294,0.19
		c-4.619,0-9.488-1.423-11.486-2.5c-0.613-1.659-2.068-2.951-3.941-3.227l-21.782-3.217c-0.898-0.134-1.768,0-2.556,0.312
		c-7.937,0.72-25.279,5.189-38.311,29.198c-1.086,2.001-0.683,4.483,0.98,6.038c0.952,0.89,2.18,1.347,3.416,1.347
		c0.923,0,1.852-0.255,2.674-0.776c2.082-1.319,4.162-3.236,6.365-5.267c4.975-4.585,10.613-9.782,17.542-9.782
		c0.567,0,1.136,0.034,1.709,0.101l-1.417,9.594c-0.194,1.312,0.142,2.647,0.932,3.711c0.564,0.76,1.332,1.326,2.199,1.665
		l-3.325,23.651c-1.836,0.321-3.47,1.16-4.708,2.45c-0.685,0.713-1.799,2.174-2.199,4.4c-0.412,0.293-0.801,0.617-1.153,0.984
		c-1.059,1.103-3.149,3.993-2.022,8.745c-0.747,0.544-1.324,1.141-1.746,1.703c-1.451,1.93-1.926,4.336-1.339,6.777
		c0.037,0.155,0.085,0.309,0.131,0.463c-1.038,1.396-1.583,3.094-1.512,4.901c0.128,3.282,2.279,6.473,5.927,8.773
		c0.924,0.576,1.903,1.063,2.902,1.473l-2.469,17.558c-0.4,2.855,0.334,5.695,2.069,7.998c1.737,2.307,4.268,3.797,7.12,4.196
		l3.042,0.428c0.499,0.07,1.007,0.106,1.509,0.106c3.104,0,5.947-1.352,7.938-3.516c3.043,9.738,6.236,19.039,6.935,21.062
		c0.386,1.672,1.645,5.392,5.494,7.981c2.387,1.605,5.204,2.411,8.415,2.41c1.765,0,3.65-0.243,5.647-0.73
		c2.927-0.714,5.857-1.376,8.31-1.911c0.094,0.39,0.187,0.775,0.292,1.191c0.432,1.717,1.6,3.154,3.191,3.93
		c1.59,0.777,3.443,0.809,5.061,0.091l10.088-4.476c-0.796,10.551-0.678,23.061-0.43,31.845c-0.877,0.297-1.723,0.683-2.533,1.159
		c-0.053,0.031-0.107,0.063-0.16,0.096c-2.146-1.3-4.606-1.981-7.265-1.981c-1.884,0-3.663,0.324-5.312,0.967
		c-0.589-0.19-1.21-0.29-1.842-0.29h-11.281c-1.944,0-3.667,0.929-4.764,2.363c-3.002-2.042-6.936-3.04-12.027-3.04
		c-4.088,0-7.605,0.817-10.482,2.412v-3.987c0-3.313-2.687-6-6-6h-11.76c-0.721,0-1.409,0.134-2.049,0.367
		c-0.641-0.233-1.329-0.367-2.05-0.367h-11.76c-0.721,0-1.409,0.134-2.05,0.367c-0.64-0.233-1.328-0.367-2.049-0.367h-11.76
		c-0.721,0-1.41,0.134-2.05,0.367c-0.64-0.233-1.329-0.367-2.05-0.367h-11.76c-0.345,0-0.681,0.035-1.01,0.092
		c-0.328-0.056-0.66-0.092-0.997-0.092H42.377c-1.073,0-2.088,0.284-2.967,0.784c-0.879-0.5-1.893-0.784-2.967-0.784H24.084
		c-1.039,0-2.023,0.266-2.882,0.737c-0.857-0.471-1.841-0.737-2.882-0.737H6.757c-1.712,0-3.343,0.731-4.481,2.01
		c-1.138,1.279-1.676,2.983-1.479,4.684l5.328,45.77c0.353,3.025,2.915,5.307,5.96,5.307h14.774c1.281,0,2.478-0.404,3.461-1.099
		c0.984,0.695,2.183,1.099,3.461,1.099h14.86c1.367,0,2.623-0.478,3.639-1.258c1.015,0.785,2.284,1.258,3.667,1.258h11.76
		c0.721,0,1.41-0.134,2.05-0.367c0.641,0.233,1.329,0.367,2.05,0.367h11.76c0.721,0,1.409-0.134,2.049-0.367
		c0.641,0.233,1.329,0.367,2.05,0.367h11.76c0.721,0,1.409-0.134,2.05-0.367c0.64,0.233,1.328,0.367,2.049,0.367h11.76
		c1.448,0,2.776-0.514,3.813-1.367c2.387,1.355,4.998,2.044,7.779,2.044c1.812,0,3.503-0.3,5.05-0.893
		c0.508,0.14,1.042,0.214,1.594,0.214h11.11c0.689,0,1.349-0.122,1.965-0.336c0.616,0.213,1.274,0.335,1.962,0.335h11.082
		c0.646,0,1.269-0.103,1.852-0.291c0.583,0.188,1.206,0.291,1.852,0.291h11.082c0.657,0,1.289-0.105,1.88-0.301
		c0.591,0.195,1.224,0.301,1.88,0.301h11.082c3.313,0,6-2.687,6-6v-26.658c0-0.041-0.001-0.078-0.001-0.119h2.477
		c0.124,0.388,0.24,0.782,0.388,1.149c0.595,1.477,1.323,2.791,2.173,3.933c-1.896,1.008-3.188,3.004-3.188,5.302v2.996
		c0,4.191,0.466,7.478,1.425,10.044c1.219,3.263,3.645,5.886,7.213,7.799c3.123,1.671,6.819,2.519,10.987,2.519
		c3.794,0,7.233-0.726,10.223-2.156c0.626-0.3,1.208-0.626,1.768-0.966c1.101,1.319,2.756,2.159,4.607,2.159h11.422
		c0.619,0,1.217-0.094,1.779-0.269c0.563,0.176,1.161,0.27,1.782,0.27h11.42c1.889,0,3.57-0.874,4.671-2.238
		c1.154,0.741,2.451,1.346,3.888,1.802c2.364,0.75,5.058,1.115,8.233,1.115c2.967,0,5.693-0.456,8.104-1.354
		c2.354-0.878,4.38-2.207,6.039-3.954c1.333,1.397,3.021,2.554,5.062,3.448c2.817,1.235,6.134,1.861,9.857,1.861
		c3.464,0,6.554-0.603,9.185-1.79c1.503-0.68,2.812-1.529,3.928-2.536c0.079,0.077,0.153,0.158,0.235,0.233
		c1.674,1.544,3.646,2.546,5.854,2.977c1.522,0.299,3.658,0.438,6.723,0.438h4.608c1.063,0,2.061-0.279,2.927-0.765
		c2.06,0.954,4.269,1.441,6.599,1.441c1.812,0,3.501-0.299,5.048-0.893c0.508,0.14,1.043,0.214,1.595,0.214h11.11
		c0.688,0,1.348-0.122,1.964-0.336c0.616,0.215,1.276,0.337,1.966,0.337h11.422c0.623,0,1.225-0.095,1.79-0.271
		c0.566,0.177,1.167,0.271,1.786,0.271h10.982c1.864,0,3.622-0.866,4.758-2.345S399.598,242.832,399.117,241.03z M242.062,115.06
		c0.311-0.325,0.606-0.658,0.899-0.994v5.464c-1.382-0.373-2.806-0.583-4.231-0.583c-0.469,0-0.933,0.04-1.395,0.082
		C239.004,117.888,240.602,116.588,242.062,115.06z"/>
	<path d="M391.75,250.732h-6.82c-2.842,0-5.223,1.977-5.843,4.63c-0.648,0.087-1.269,0.245-1.873,0.439
		c-0.892-0.41-1.879-0.602-2.891-0.533c-0.711,0.047-1.602,0.178-2.571,0.488c-0.349-0.063-0.706-0.096-1.066-0.096h-6.818
		c-1.262,0-2.432,0.392-3.398,1.058c-1.993-0.973-4.32-1.464-6.93-1.464c-1.432,0-2.788,0.189-4.078,0.525
		c-0.457-2.859-2.929-5.048-5.917-5.048h-5.942c-0.699,0-1.369,0.119-1.993,0.339c-0.627-0.221-1.298-0.339-1.989-0.339h-5.941
		c-2.918,0-5.347,2.084-5.886,4.843c-0.736-0.25-1.522-0.36-2.324-0.307c-0.711,0.047-1.603,0.179-2.571,0.488
		c-0.35-0.063-0.707-0.096-1.067-0.096h-6.819c-1.262,0-2.432,0.392-3.397,1.057c-1.993-0.971-4.319-1.463-6.93-1.463
		c-1.879,0-3.646,0.293-5.275,0.872c-0.96-2.035-3.012-3.455-5.411-3.455h-6.836c-2.215,0-4.146,1.203-5.186,2.988h-4.436
		c-0.354,0-0.703,0.031-1.041,0.09c-0.336-0.059-0.682-0.089-1.035-0.089h-6.818c-0.825,0-1.61,0.167-2.326,0.468
		c-1.324-0.571-2.775-0.873-4.291-0.873c-1.137,0-2.236,0.164-3.289,0.489c-0.327-0.055-0.66-0.083-0.997-0.083h-6.937
		c-0.871,0-1.697,0.189-2.444,0.523c-1.374-0.612-2.898-0.929-4.562-0.929c-1.512,0-2.947,0.294-4.291,0.878
		c-1.333-0.578-2.796-0.878-4.349-0.878c-1.157,0-2.265,0.162-3.311,0.482c-0.315-0.051-0.638-0.077-0.962-0.077h-6.732
		c-1.258,0-2.424,0.389-3.389,1.05c-0.218-0.103-0.424-0.218-0.651-0.312c-1.826-0.758-3.926-1.142-6.241-1.142
		c-2.123,0-4.049,0.347-5.755,1.023c-1.005-1.608-2.436-2.994-4.239-4.066c-2.295-1.366-5.072-2.059-8.251-2.059
		c-2.37,0-4.56,0.436-6.51,1.294c-2.157,0.949-3.908,2.326-5.204,4.091c-1.264,1.721-2.042,3.598-2.315,5.578
		c-0.177,1.283-0.259,2.952-0.259,5.25v7.982c0,3.397,0.305,5.906,0.959,7.896c0.909,2.762,2.796,5.007,5.462,6.495
		c2.25,1.254,4.965,1.89,8.069,1.89c3.179,0,5.983-0.777,8.327-2.307c0.256-0.167,0.499-0.342,0.738-0.518
		c1.043,0.8,2.241,1.441,3.617,1.878c1.651,0.524,3.499,0.779,5.646,0.779c2.065,0,3.979-0.323,5.688-0.962
		c0.345-0.129,0.666-0.289,0.991-0.443c0.95,0.632,2.089,1.001,3.315,1.001h6.617c0.377,0,0.746-0.035,1.104-0.102
		c0.358,0.066,0.728,0.102,1.104,0.102h6.617c0.384,0,0.759-0.036,1.122-0.104c0.363,0.068,0.738,0.104,1.122,0.104h3.663
		c1.008,1.897,3.002,3.19,5.3,3.19h6.817c2.141,0,4.02-1.121,5.081-2.809c1.79-0.109,3.416-0.632,4.865-1.515
		c0.158,0.096,0.305,0.206,0.47,0.294c1.551,0.824,3.356,1.242,5.366,1.242c1.13,0,2.211-0.152,3.234-0.457
		c0.258,0.034,0.52,0.052,0.783,0.052h6.938c1.073,0,2.079-0.285,2.951-0.779c0.515,0.197,1.04,0.367,1.585,0.474
		c1.081,0.211,2.462,0.306,4.477,0.306h2.751c1.03,0,2-0.261,2.848-0.719c0.086,0.035,0.163,0.078,0.25,0.111
		c1.778,0.672,3.774,1.012,5.934,1.012c2.291,0,4.331-0.375,6.065-1.117c0.18-0.077,0.344-0.177,0.519-0.262
		c0.941,0.614,2.063,0.975,3.271,0.975h6.819c3.005,0,5.486-2.211,5.925-5.094c0.438,2.883,2.919,5.094,5.924,5.094h5.941
		c0.646,0,1.268-0.102,1.851-0.291c0.585,0.189,1.207,0.291,1.847,0.291h6.228c1.282,0,2.468-0.405,3.442-1.091
		c0.355,0.169,0.71,0.34,1.09,0.483c1.778,0.671,3.775,1.012,5.935,1.012c2.295,0,4.337-0.376,6.063-1.116
		c0.181-0.077,0.346-0.178,0.521-0.263c0.942,0.614,2.064,0.975,3.272,0.975h6.818c1.479,0,2.83-0.537,3.876-1.424
		c1.747,1.193,3.83,1.829,6.048,1.829c1.129,0,2.234-0.165,3.3-0.492c0.332,0.058,0.673,0.087,1.021,0.087h6.819
		c3.313,0,6-2.687,6-6v-27.326C397.75,253.419,395.063,250.732,391.75,250.732z"/>
</g>
</svg>
