<?xml version="1.0" encoding="utf-8"?>
<!-- Generator: Adobe Illustrator 16.0.0, SVG Export Plug-In . SVG Version: 6.00 Build 0)  -->
<!DOCTYPE svg PUBLIC "-//W3C//DTD SVG 1.1//EN" "http://www.w3.org/Graphics/SVG/1.1/DTD/svg11.dtd">
<svg version="1.1" id="Layer_1" xmlns="http://www.w3.org/2000/svg" xmlns:xlink="http://www.w3.org/1999/xlink" x="0px" y="0px"
	 width="64px" height="64px" viewBox="0 0 64 64" enable-background="new 0 0 64 64" xml:space="preserve">
<g>
	<path d="M46.701,64c0.126-2.051,0.28-11.63,0.45-13.28h0.938c0.737,0.726,1.709,1.179,2.609,1.179c0.214,0,0.424-0.024,0.626-0.072
		c0.144-0.036,0.28-0.087,0.41-0.146c0.302,0.09,0.605,0.141,0.906,0.141l0,0c0.185,0,0.367-0.018,0.549-0.054
		c0.16-0.032,0.312-0.081,0.458-0.141c0.285,0.087,0.577,0.137,0.871,0.137l0,0c0.12,0,0.239-0.007,0.357-0.021
		c0.245-0.032,0.476-0.099,0.695-0.191c0.277,0.089,0.566,0.136,0.861,0.136c0.066,0,0.132-0.002,0.199-0.007
		c0.638-0.047,1.221-0.312,1.681-0.753c0.219-0.052,0.661-0.134,1.481-0.2c0.004,0,0.008,0,0.013,0c0.583,0,0.583,0,2.343-1.407
		c0.483-0.387,1.951-1.562,1.844-3.166c-0.033-0.499-0.262-1.439-1.414-2.131c-0.34-0.203-0.749-0.327-1.194-0.368V32.472
		c0-2.065-1.681-3.747-3.747-3.747h-2.441c0.002-0.046,0.003-0.094,0.006-0.139c0.051-0.87-0.612-1.616-1.481-1.667
		c-0.866-0.049-1.616,0.612-1.667,1.482c-0.007,0.106-0.011,0.215-0.013,0.325h-2.775c0.539-0.919,0.941-2.056,1.104-3.411
		c0.228-1.891,0-3.147-0.714-3.952c-0.072-0.082-0.151-0.155-0.232-0.226c0.275-0.695,0.495-1.48,0.638-2.322
		c0.396-2.325,0.147-4.664-0.702-6.585c-2.548-5.768-9.227-6.087-13.556-5.613c-0.353-0.12-0.854-0.298-0.951-0.419
		c0,0-0.006-0.018-0.011-0.062c-0.006-0.076-0.019-0.151-0.035-0.225c-0.224-0.952-1.142-1.586-2.13-1.424
		c-0.306-0.208-0.669-0.333-1.055-0.333c-0.18,0-0.357,0.026-0.531,0.077c-0.941,0.278-1.504,1.234-1.312,2.179
		c0.008,0.051,0.019,0.102,0.028,0.154c-0.458,0.392-0.723,0.995-0.659,1.634c0.082,0.873,0.3,1.633,0.628,2.262
		c-3.001,4.154-3.678,6.596-3.605,7.999c-1.067,1.406-2.13,2.797-2.308,3.008c-0.494,0.546-1.64,2.044-1.91,4.42
		c-0.241,2.13,0.315,4.373,1.611,6.507c-0.048,0.76,0.082,1.598,0.631,2.371c0.58,0.819,1.484,1.357,2.732,1.627
		c-2.5,0.69-6.275,2.294-6.778,2.51c-0.218,0.094-0.402,0.231-0.551,0.397c-0.804-2.458-1.958-4.557-2.554-5.556
		c0.132-0.471,0.25-0.855,0.351-1.182c0.601-1.961,0.636-2.455-0.207-4.91c-0.025-0.072-0.055-0.142-0.089-0.209
		c-0.257-0.501-0.511-0.784-0.752-0.99c-0.032-0.116-0.082-0.322-0.147-0.676c-0.087-1.825-0.517-3.049-1.278-3.663l0.7-4.978
		c0.204-0.034,0.399-0.115,0.568-0.241c0.28-0.208,0.465-0.518,0.516-0.863l0.274-1.858c0.334-0.066,0.656-0.104,0.963-0.104
		c1.088,0,2.002,0.418,2.796,1.278c0.204,0.22,0.477,0.365,0.774,0.408l2.207,0.326c0.064,0.01,0.129,0.014,0.193,0.014
		c0.477,0,0.923-0.261,1.156-0.689c0.049-0.091,1.205-2.272,0.808-5.271c-0.076-0.569-0.512-1.023-1.078-1.122L22.48,8.608
		c-0.451-0.079-0.897,0.082-1.194,0.406c-0.101,0.022-0.291,0.05-0.603,0.05c-1.214,0-2.495-0.374-3.02-0.657
		c-0.161-0.436-0.543-0.776-1.036-0.849l-5.726-0.846c-0.236-0.035-0.465,0-0.672,0.082C8.144,6.985,3.585,8.16,0.159,14.471
		c-0.286,0.526-0.18,1.178,0.257,1.587c0.251,0.234,0.573,0.354,0.898,0.354c0.242,0,0.486-0.067,0.703-0.204
		c0.547-0.347,1.094-0.851,1.673-1.385c1.308-1.205,2.79-2.571,4.611-2.571c0.149,0,0.299,0.009,0.45,0.026l-0.373,2.522
		c-0.051,0.345,0.037,0.695,0.245,0.975c0.148,0.2,0.35,0.349,0.578,0.438l-0.874,6.217c-0.483,0.084-0.912,0.305-1.237,0.645
		c-0.18,0.187-0.473,0.571-0.578,1.156c-0.108,0.077-0.21,0.162-0.303,0.259c-0.278,0.29-0.828,1.049-0.531,2.299
		c-0.197,0.143-0.348,0.3-0.459,0.448c-0.382,0.507-0.506,1.14-0.352,1.781c0.009,0.041,0.022,0.082,0.034,0.122
		c-0.272,0.367-0.416,0.813-0.397,1.288c0.034,0.863,0.599,1.702,1.558,2.306c0.243,0.151,0.5,0.279,0.763,0.387l-0.649,4.616
		c-0.105,0.75,0.088,1.496,0.543,2.102c0.457,0.606,1.123,0.999,1.872,1.104l0.8,0.112c0.131,0.019,0.265,0.027,0.396,0.027
		c0.816,0,1.563-0.355,2.087-0.924c0.8,2.56,1.64,5.005,1.823,5.536c0.101,0.439,0.432,1.418,1.444,2.098
		c0.627,0.422,1.368,0.634,2.212,0.634c0.463,0,0.959-0.063,1.484-0.191c0.77-0.188,1.54-0.361,2.185-0.502
		c0.025,0.102,0.049,0.203,0.077,0.312c0.113,0.451,0.42,0.829,0.838,1.033s0.905,0.213,1.33,0.023l2.652-1.176
		c-0.209,2.773-0.178,13.76-0.113,16.068 M42.924,34.203c0.081-0.086,0.158-0.172,0.235-0.262v1.437
		c-0.363-0.098-0.738-0.153-1.112-0.153c-0.122,0-0.245,0.011-0.366,0.022C42.119,34.946,42.539,34.604,42.924,34.203z"/>
</g>
</svg>
