<?xml version="1.0" encoding="utf-8"?>
<!-- Generator: Adobe Illustrator 16.0.0, SVG Export Plug-In . SVG Version: 6.00 Build 0)  -->
<!DOCTYPE svg PUBLIC "-//W3C//DTD SVG 1.1//EN" "http://www.w3.org/Graphics/SVG/1.1/DTD/svg11.dtd">
<svg version="1.1" id="Layer_1" xmlns="http://www.w3.org/2000/svg" xmlns:xlink="http://www.w3.org/1999/xlink" x="0px" y="0px"
	 width="400px" height="293.965px" viewBox="0 0 400 293.965" enable-background="new 0 0 400 293.965" xml:space="preserve">
<g>
	<path d="M272.62,294.3c0.618-10.061,1.375-57.048,2.209-65.14h4.606c3.613,3.557,8.378,5.781,12.798,5.782
		c1.048,0,2.076-0.121,3.067-0.36c0.707-0.174,1.374-0.423,2.017-0.71c1.477,0.44,2.97,0.689,4.44,0.689c0,0,0,0,0.001,0
		c0.903,0,1.8-0.085,2.691-0.263c0.783-0.157,1.53-0.401,2.25-0.691c1.397,0.431,2.831,0.673,4.274,0.673l0,0
		c0.583,0,1.17-0.036,1.748-0.11c1.201-0.155,2.337-0.481,3.409-0.933c1.364,0.431,2.783,0.663,4.23,0.663
		c0.322,0,0.643-0.011,0.976-0.034c3.125-0.226,5.983-1.53,8.243-3.688c1.074-0.259,3.241-0.659,7.267-0.987c0.02,0,0.039,0,0.059,0
		c2.865-0.002,2.865-0.002,11.497-6.902c2.367-1.894,9.571-7.658,9.042-15.528c-0.165-2.445-1.284-7.061-6.938-10.452
		c-1.666-0.999-3.672-1.602-5.856-1.807v-54.849c0-10.134-8.246-18.379-18.382-18.379h-11.973c0.01-0.227,0.015-0.459,0.027-0.683
		c0.252-4.265-3.002-7.927-7.268-8.178c-4.251-0.241-7.927,3.003-8.179,7.268c-0.029,0.521-0.047,1.058-0.063,1.593h-13.612
		c2.647-4.508,4.621-10.086,5.419-16.729c1.113-9.278,0-15.438-3.504-19.388c-0.356-0.402-0.744-0.762-1.145-1.107
		c1.353-3.41,2.428-7.262,3.132-11.392c1.945-11.404,0.722-22.875-3.442-32.302c-12.5-28.293-45.259-29.86-66.498-27.532
		c-1.729-0.59-4.186-1.462-4.662-2.059c0,0-0.032-0.086-0.053-0.302c-0.03-0.372-0.089-0.739-0.174-1.102
		c-1.094-4.671-5.601-7.781-10.446-6.986c-1.499-1.024-3.286-1.633-5.177-1.633c-0.881,0-1.754,0.126-2.606,0.376
		c-4.615,1.364-7.376,6.052-6.436,10.685c0.037,0.254,0.094,0.503,0.138,0.756c-2.249,1.921-3.544,4.876-3.229,8.013
		c0.4,4.281,1.471,8.01,3.082,11.097c-14.722,20.377-18.044,32.354-17.687,39.234c-5.234,6.899-10.449,13.718-11.321,14.756
		c-2.425,2.681-8.046,10.026-9.368,21.685c-1.184,10.449,1.544,21.448,7.901,31.916c-0.235,3.729,0.402,7.834,3.093,11.632
		c2.847,4.017,7.278,6.653,13.404,7.978c-12.269,3.387-30.78,11.255-33.251,12.313c-1.067,0.458-1.974,1.134-2.704,1.947
		c-3.943-12.06-9.604-22.35-12.525-27.252c0.648-2.311,1.227-4.192,1.719-5.798c2.948-9.618,3.119-12.039-1.016-24.083
		c-0.121-0.352-0.267-0.695-0.437-1.025c-1.264-2.46-2.508-3.846-3.689-4.857c-0.159-0.568-0.4-1.579-0.721-3.315
		c-0.428-8.954-2.534-14.956-6.27-17.969l3.433-24.414c0.999-0.166,1.956-0.564,2.785-1.181c1.373-1.02,2.284-2.543,2.533-4.234
		l1.346-9.117c1.636-0.327,3.219-0.51,4.722-0.51c5.335,0,9.821,2.05,13.715,6.266c0.999,1.082,2.337,1.79,3.794,2.005l10.826,1.599
		c0.316,0.046,0.632,0.069,0.944,0.069c2.341,0,4.532-1.278,5.669-3.382c0.242-0.447,5.909-11.143,3.961-25.852
		c-0.37-2.793-2.51-5.022-5.286-5.506l-11.365-1.979c-2.211-0.385-4.402,0.404-5.859,1.995c-0.494,0.107-1.423,0.245-2.958,0.245
		c-5.956,0-12.234-1.835-14.811-3.224c-0.79-2.139-2.666-3.805-5.081-4.16l-28.085-4.148c-1.158-0.172-2.28,0-3.296,0.402
		c-10.234,0.929-32.594,6.69-49.397,37.648c-1.4,2.58-0.881,5.78,1.263,7.785c1.228,1.147,2.811,1.737,4.405,1.737
		c1.19,0,2.388-0.329,3.448-1c2.685-1.701,5.366-4.172,8.207-6.792C68.061,47.17,75.33,40.47,84.265,40.47
		c0.731,0,1.464,0.043,2.204,0.129L84.641,52.97c-0.25,1.691,0.183,3.413,1.202,4.785c0.727,0.98,1.718,1.71,2.835,2.147
		l-4.287,30.495c-2.368,0.414-4.475,1.496-6.07,3.159c-0.883,0.919-2.32,2.803-2.836,5.673c-0.531,0.377-1.032,0.795-1.486,1.269
		c-1.366,1.422-4.06,5.148-2.607,11.276c-0.963,0.701-1.708,1.471-2.251,2.196c-1.871,2.488-2.484,5.591-1.727,8.738
		c0.047,0.2,0.11,0.398,0.169,0.597c-1.338,1.8-2.041,3.99-1.95,6.32c0.165,4.231,2.938,8.346,7.642,11.312
		c1.191,0.742,2.454,1.371,3.742,1.899l-3.184,22.64c-0.516,3.681,0.431,7.343,2.668,10.312c2.24,2.975,5.503,4.896,9.181,5.41
		l3.922,0.552c0.644,0.09,1.298,0.137,1.945,0.137c4.002,0,7.668-1.743,10.235-4.534c3.923,12.557,8.041,24.549,8.942,27.157
		c0.498,2.156,2.121,6.953,7.084,10.291c3.078,2.068,6.709,3.108,10.851,3.107c2.275,0,4.706-0.313,7.281-0.94
		c3.774-0.922,7.552-1.775,10.715-2.466c0.121,0.504,0.241,1,0.377,1.536c0.556,2.214,2.062,4.067,4.114,5.067
		c2.05,1.002,4.439,1.044,6.525,0.118l13.007-5.772c-1.026,13.604-0.875,67.496-0.555,78.822 M254.088,148.143
		c0.4-0.42,0.781-0.849,1.158-1.282v7.045c-1.781-0.48-3.618-0.751-5.454-0.751c-0.604,0-1.204,0.051-1.8,0.105
		C250.145,151.789,252.204,150.112,254.088,148.143z"/>
</g>
</svg>
