<?xml version="1.0" encoding="utf-8"?>
<!DOCTYPE svg PUBLIC "-//W3C//DTD SVG 1.1//EN" "http://www.w3.org/Graphics/SVG/1.1/DTD/svg11.dtd">
<svg version="1.1" id="Layer_1" xmlns="http://www.w3.org/2000/svg" xmlns:xlink="http://www.w3.org/1999/xlink" x="0px" y="0px"
	 width="400px" height="293.965px" viewBox="0 0 400 293.965" enable-background="new 0 0 400 293.965" xml:space="preserve">
  <g>
  	<g>
  		<path fill="none" stroke="#FFFFFF" stroke-width="12" stroke-linejoin="round" d="M298.273,168.454
  			c5.162-5.16,4.586-4.015,4.586-4.015c0-6.881,8.029-8.601,10.896-6.881c2.866,1.721,4.526,4.864-2.293,10.321
  			c-5.736,4.586-5.16,4.015-5.16,4.015c-10.092,0.762-9.748,2.295-9.748,2.295L298.273,168.454z"/>
  		<path fill="none" stroke="#FFFFFF" stroke-width="12" stroke-linejoin="round" d="M187.128,128.221
  			c-7.461,0.849-29.338,10.225-29.338,10.225c5.924,15.768,3.918,15.289,7.069,27.811l11.852-5.258c0,0,5.816-1.401,7.646-2.006
  			c-2.867,17.203-0.975,50.805-0.975,50.805h66.479c0,0,2.767-62.452,9.548-63.707l-10.847-14.908
  			c-1.721-4.587-9.352-8.602-15.086-4.587h-33.828c-6.308-2.866-4.11-4.396-12.137,1.338L187.128,128.221z"/>
  		<path fill="none" stroke="#FFFFFF" stroke-width="12" stroke-linejoin="round" d="M298.045,168.454
  			c4.559,0,8.256-3.695,8.256-8.257v-51.723c0-4.56-3.697-8.254-8.256-8.254h-40.83c-4.56,0-8.254,3.694-8.254,8.254v51.723
  			c0,4.562,3.695,8.257,8.254,8.257H298.045z"/>
  		
  			<rect x="252.975" y="104.807" fill="none" stroke="#FFFFFF" stroke-width="12" stroke-linejoin="round" width="49.312" height="37.271"/>
  		<polygon fill="none" stroke="#FFFFFF" stroke-width="12" stroke-linejoin="round" points="208.248,132.902 208.248,119.713 
  			226.025,117.994 226.025,132.329 217.543,145.516 		"/>
  		<path fill="none" stroke="#FFFFFF" stroke-width="12" stroke-linejoin="round" d="M251.828,73.46
  			c3.059-2.294,14.864-11.676,12.614,7.071c-2.231,18.589-18.649,24.192-20.26,10.514c1.525,33.639-38.992,30.58-48.167,26.758
  			c-27.897,2.791-21.405-11.469-19.877-16.056l-1.912,4.396c-10.806-16.738-5.062-30.203-0.189-35.55
  			c0.842-0.925,10.702-13.952,10.702-13.952s-4.088-6.933,14.408-31.417l38.131-0.823l17.855,5.918l3.559,13.189l-1.428,17.719
  			L251.828,73.46z"/>
  		<path fill="none" stroke="#FFFFFF" stroke-width="12" stroke-linejoin="round" d="M254.893,80.59
  			c1.101,5.628-1.699,7.459-5.031,7.756"/>
  		<path fill="none" stroke="#FFFFFF" stroke-width="12" stroke-linejoin="round" d="M207.676,122.963
  			c-1.721,6.881,3.438,14.336,5.16,16.057c-19.495-5.162-11.467,0.572-12.043,4.014c-0.571,3.438-4.013-12.041-0.571-16.057
  			C203.66,122.963,207.676,122.963,207.676,122.963z"/>
  		<path fill="none" stroke="#FFFFFF" stroke-width="12" stroke-linejoin="round" d="M226.025,124.875
  			c2.867,6.307-5.162,15.481-5.162,15.481c6.308-5.735,10.32,2.292,9.748,5.733C234.625,134.049,233.477,120.861,226.025,124.875z"
  			/>
  		
  			<rect x="254.119" y="168.454" fill="none" stroke="#FFFFFF" stroke-width="12" stroke-linejoin="round" width="44.729" height="3.44"/>
  		<path fill="none" stroke="#FFFFFF" stroke-width="12" stroke-linejoin="round" d="M115.336,135.186
  			c2.625,0.369,5.052-1.461,5.421-4.084l13.146-93.494c0.369-2.625-1.46-5.052-4.084-5.422l-3.041-0.427
  			c-2.623-0.37-5.051,1.46-5.42,4.084l-13.146,93.495c-0.368,2.624,1.459,5.053,4.084,5.42L115.336,135.186z"/>
  		
  			<ellipse transform="matrix(0.6925 -0.7214 0.7214 0.6925 -24.454 110.5646)" fill="none" stroke="#FFFFFF" stroke-width="12" stroke-linejoin="round" cx="117.463" cy="83.966" rx="4.652" ry="10.237"/>
  		
  			<ellipse transform="matrix(0.6924 -0.7215 0.7215 0.6924 -29.3678 109.8184)" fill="none" stroke="#FFFFFF" stroke-width="12" stroke-linejoin="round" cx="114.112" cy="89.352" rx="4.653" ry="10.235"/>
  		<path fill="none" stroke="#FFFFFF" stroke-width="12" stroke-linejoin="round" d="M120.232,100.256
  			c1.379-1.84-1.307-5.074-5.963-7.285c-4.621-2.266-9.458-2.652-10.844-0.805c-1.396,1.857,1.195,5.246,5.82,7.504
  			C113.908,101.873,118.842,102.108,120.232,100.256z"/>
  		<path fill="none" stroke="#FFFFFF" stroke-width="12" stroke-linejoin="round" d="M113.46,105.73
  			c1.601-1.147,0.336-3.643-2.728-5.534c-2.976-1.86-6.561-2.394-8.101-1.224c-1.561,1.164-0.539,3.571,2.378,5.41
  			C108.017,106.256,111.841,106.875,113.46,105.73z"/>
  		<path fill="none" stroke="#FFFFFF" stroke-width="12" stroke-linejoin="round" d="M193.322,49.885
  			c2.072-3.314,4.558-9.943,6.216,3.313"/>
  		<path fill="none" stroke="#FFFFFF" stroke-width="12" stroke-linejoin="round" d="M191.046,58.359
  			c2.868-3.441,8.029-7.453,6.309,2.867"/>
  		<path fill="none" stroke="#FFFFFF" stroke-width="12" stroke-linejoin="round" d="M201.939,62.947
  			c2.869-4.014,9.748-7.454,9.174,1.721"/>
  		
  			<ellipse transform="matrix(0.9549 0.297 -0.297 0.9549 27.2356 -55.4233)" fill="none" stroke="#FFFFFF" stroke-width="12" stroke-linejoin="round" cx="195.994" cy="61.91" rx="2.336" ry="3.502"/>
  		
  			<ellipse transform="matrix(0.9548 0.2973 -0.2973 0.9548 28.9737 -59.3692)" fill="none" stroke="#FFFFFF" stroke-width="12" stroke-linejoin="round" cx="209.667" cy="65.568" rx="2.337" ry="3.503"/>
  		<path fill="none" stroke="#FFFFFF" stroke-width="12" stroke-linejoin="round" d="M197.355,70.975
  			c-4.014-0.572-4.588-4.014-4.588-4.014c-2.294,5.161-0.574,6.881-0.574,6.881"/>
  		<path fill="none" stroke="#FFFFFF" stroke-width="12" stroke-linejoin="round" d="M205.738,53.687
  			c5.363-2.924,11.214-4.873,11.214,2.925"/>
  		<path fill="none" stroke="#FFFFFF" stroke-width="12" stroke-linejoin="round" d="M184.419,76.551
  			c-4.143,4.82-6.332,5.992-6.332,5.992s17.258,11.578,36.368,0.697"/>
  		
  			<line fill="none" stroke="#FFFFFF" stroke-width="12" stroke-linejoin="round" x1="212.045" y1="79.693" x2="216.236" y2="85.613"/>
  		<path fill="none" stroke="#FFFFFF" stroke-width="12" stroke-linejoin="round" d="M203.088,23.956c0,0-3.439,8.028,12.615,9.175
  			c15.817,1.13,19.846-1.202,24.655,0c6.884,1.72,21.218,1.72,10.896,17.202s1.146,21.216,1.146,21.216l4.588-1.721
  			c9.748-8.027,18.925-62.5-44.727-53.326"/>
  		<path fill="none" stroke="#FFFFFF" stroke-width="12" stroke-linejoin="round" d="M195.634,15.535
  			c0.43,4.659,2.4,10.536,7.991,10.679c0.608,0.107,1.219-0.287,1.328-0.931c0.104-0.61-0.324-1.219-0.935-1.327
  			c-4.623-0.035-5.768-5.088-6.092-8.779c-0.107-0.61-0.68-1.04-1.325-0.968C195.994,14.315,195.562,14.889,195.634,15.535
  			L195.634,15.535z"/>
  		<path fill="none" stroke="#FFFFFF" stroke-width="12" stroke-linejoin="round" d="M197.963,8.223
  			c0.968,6.953,5.375,13.118,11.828,16.091c0.606,0.251,1.254-0.072,1.467-0.645c0.254-0.61-0.07-1.255-0.644-1.505
  			c-5.661-2.725-9.641-8.352-10.43-14.586c-0.18-0.61-0.824-0.968-1.432-0.789C198.144,6.969,197.786,7.614,197.963,8.223
  			L197.963,8.223z"/>
  		<path fill="none" stroke="#FFFFFF" stroke-width="12" stroke-linejoin="round" d="M203.123,9.298
  			c0.606,6.988,8.313,7.921,13.403,10.357c0.572,0.251,1.257,0,1.504-0.574c0.253-0.609,0-1.254-0.573-1.54
  			c-4.334-2.365-11.574-2.509-12.111-8.745c-0.143-0.609-0.752-1.002-1.361-0.86C203.373,8.081,202.982,8.689,203.123,9.298
  			L203.123,9.298z"/>
  		<path fill="none" stroke="#FFFFFF" stroke-width="12" stroke-linejoin="round" d="M272.604,176.27
  			c2.478-0.605,2.883-3.559,0.908-6.572c-1.977-2.986-5.582-4.861-8.059-4.211c-2.474,0.643-2.879,3.531-0.906,6.475
  			C266.521,174.928,270.129,176.87,272.604,176.27z"/>
  		<path fill="none" stroke="#FFFFFF" stroke-width="12" stroke-linejoin="round" d="M279.943,175.997
  			c2.988-0.599,3.857-4.103,1.945-7.798c-1.912-3.665-5.879-6.071-8.865-5.405c-2.985,0.66-3.854,4.086-1.946,7.682
  			C272.986,174.1,276.959,176.584,279.943,175.997z"/>
  		<path fill="none" stroke="#FFFFFF" stroke-width="12" stroke-linejoin="round" d="M286.773,175.827
  			c3.074-0.396,4.552-3.871,3.299-7.74c-1.25-3.849-4.754-6.566-7.823-6.088c-3.072,0.471-4.549,3.893-3.299,7.662
  			C280.199,173.452,283.703,176.221,286.773,175.827z"/>
  		<path fill="none" stroke="#FFFFFF" stroke-width="12" stroke-linejoin="round" d="M293.789,175.559
  			c3.114-0.225,5.079-3.65,4.391-7.639c-0.688-3.98-3.771-6.945-6.887-6.64c-3.117,0.31-5.088,3.705-4.396,7.601
  			C287.584,172.786,290.672,175.779,293.789,175.559z"/>
  		<path fill="none" stroke="#FFFFFF" stroke-width="12" stroke-linejoin="round" d="M270.176,142.648
  			c-4.588-11.467,31.537-21.787,12.615,2.867"/>
  		<path fill="none" stroke="#FFFFFF" stroke-width="12" stroke-linejoin="round" d="M273.617,105.953
  			c1.147,10.321-11.47,15.48-11.47,15.48"/>
  		<path fill="none" stroke="#FFFFFF" stroke-width="12" stroke-linecap="round" stroke-linejoin="round" d="M282.791,93.338
  			c-0.574,9.748,2.293,29.242,20.067,26.375"/>
  		<path fill="none" stroke="#FFFFFF" stroke-width="12" stroke-linejoin="round" d="M274.766,126.656
  			c0.445,0,0.807-2.723,0.807-6.082c0-3.359-0.36-6.082-0.807-6.082c-0.449,0-0.813,2.723-0.813,6.082
  			C273.952,123.933,274.316,126.656,274.766,126.656z"/>
  		
  			<ellipse fill="none" stroke="#FFFFFF" stroke-width="12" stroke-linejoin="round" cx="282.217" cy="120.001" rx="0.812" ry="6.081"/>
  		
  			<line fill="none" stroke="#FFFFFF" stroke-width="12" stroke-linejoin="round" x1="129.148" y1="115.879" x2="124.406" y2="118.369"/>
  		<path fill="none" stroke="#FFFFFF" stroke-width="12" stroke-linejoin="round" d="M124.859,119.064
  			c3.07,12.898,11.82,38.119,11.82,38.119s1.207,8.144,12.338,5.428c7.353-1.793,14.658-3.254,14.658-3.254
  			c0.465-4.256-3.965-16.058-3.965-16.058l-0.802,0.505l-8.965,1.6c-2.796-15.957-12.8-31.158-12.8-31.158
  			c3.569-13.599,4.979-11.576,1.343-22.167c-2.013-3.915-2.604-0.28-4.061-8.409c-0.637-16.137-7.497-9.676-8.438-5.407
  			c-2.044,9.287,2.966,14.342,2.966,14.342c-2.917-3.513-0.142,0.815-2.564-1.974l-3.566,27.201l6.105-1.612l-4.143,1.188"/>
  		<path fill="none" stroke="#FFFFFF" stroke-width="12" stroke-linejoin="round" d="M131.273,93.127
  			c-2.471,0.688-6.158,5.438-4.848,10.141"/>
  		
  			<line fill="none" stroke="#FFFFFF" stroke-width="12" stroke-linejoin="round" x1="276.512" y1="148.844" x2="299.926" y2="148.844"/>
  		
  			<rect x="115.032" y="19.312" transform="matrix(0.1461 -0.9893 0.9893 0.1461 79.6862 152.9622)" fill="none" stroke="#FFFFFF" stroke-width="10" stroke-linejoin="round" width="26.836" height="22.018"/>
  		<path fill="none" stroke="#FFFFFF" stroke-width="10" stroke-linejoin="round" d="M141.01,19.075
  			c2.347,4.52,20.464,7.427,22.429,3.545l8.814,1.535c1.315,9.932-2.514,17.016-2.514,17.016l-8.396-1.24
  			c-6.195-6.71-14.137-7.884-22.682-4.973L141.01,19.075z"/>
  		<path fill="none" stroke="#FFFFFF" stroke-width="10" stroke-linejoin="round" d="M121.338,15.704c0,0-21.95-2.083-37.561,26.678
  			c7.418-4.7,18.041-21.678,35.648-13.744L121.338,15.704z"/>
  	</g>
  	<g>
  		<path fill="#EFD9BE" stroke="#000000" stroke-width="3" stroke-linecap="round" stroke-linejoin="round" d="M298.275,168.514
  			c5.162-5.158,4.59-4.014,4.59-4.014c0-6.879,8.025-8.601,10.894-6.879c2.864,1.721,4.524,4.864-2.293,10.321
  			c-5.734,4.586-5.162,4.013-5.162,4.013c-10.092,0.762-9.748,2.293-9.748,2.293L298.275,168.514z"/>
  		<path fill="#214290" stroke="#000000" stroke-width="3" stroke-linecap="round" stroke-linejoin="round" d="M187.132,128.282
  			c-7.461,0.849-29.338,10.226-29.338,10.226c5.924,15.768,3.918,15.292,7.07,27.811l11.852-5.258c0,0,5.817-1.402,7.645-2.006
  			c-2.866,17.199-0.974,50.805-0.974,50.805h66.478c0,0,2.765-62.453,9.546-63.705l-10.845-14.91
  			c-1.719-4.587-9.352-8.601-15.086-4.587h-33.829c-6.309-2.867-4.108-4.396-12.137,1.338L187.132,128.282z"/>
  		<path fill="#FFFFFF" stroke="#000000" stroke-width="3" stroke-linecap="round" stroke-linejoin="round" d="M298.049,168.514
  			c4.559,0,8.254-3.693,8.254-8.254v-51.723c0-4.561-3.695-8.256-8.254-8.256h-40.828c-4.562,0-8.258,3.695-8.258,8.256v51.723
  			c0,4.561,3.695,8.254,8.258,8.254H298.049z"/>
  		
  			<rect x="252.977" y="104.868" fill="#76BE43" stroke="#000000" stroke-width="3" stroke-linecap="round" stroke-linejoin="round" width="49.312" height="37.271"/>
  		<polygon fill="#EFD9BE" stroke="#000000" stroke-width="3" stroke-linecap="round" stroke-linejoin="round" points="
  			208.252,132.965 208.252,119.775 226.027,118.057 226.027,132.391 217.549,145.58 		"/>
  		<path fill="#EFD9BE" stroke="#000000" stroke-width="3" stroke-linecap="round" stroke-linejoin="round" d="M251.83,73.521
  			c3.059-2.294,14.864-11.676,12.614,7.072c-2.229,18.589-18.649,24.191-20.26,10.514c1.527,33.639-38.992,30.579-48.167,26.756
  			c-27.897,2.793-21.405-11.466-19.877-16.055l-1.911,4.398c-10.807-16.74-5.062-30.205-0.189-35.553
  			c0.843-0.924,10.703-13.952,10.703-13.952s-4.089-6.932,14.405-31.417l38.134-0.823l17.854,5.919l3.559,13.188l-1.428,17.72
  			L251.83,73.521z"/>
  		<path fill="none" stroke="#000000" stroke-width="3" stroke-linecap="round" stroke-linejoin="round" d="M254.895,80.651
  			c1.101,5.628-1.697,7.458-5.028,7.759"/>
  		<path fill="#214290" stroke="#000000" stroke-width="3" stroke-linecap="round" stroke-linejoin="round" d="M207.678,123.025
  			c-1.721,6.881,3.441,14.336,5.16,16.055c-19.495-5.159-11.467,0.574-12.039,4.016c-0.573,3.439-4.014-12.042-0.573-16.057
  			C203.662,123.025,207.678,123.025,207.678,123.025z"/>
  		<path fill="#214290" stroke="#000000" stroke-width="3" stroke-linecap="round" stroke-linejoin="round" d="M226.027,124.938
  			c2.867,6.307-5.159,15.48-5.159,15.48c6.309-5.733,10.321,2.295,9.745,5.736C234.627,134.111,233.48,120.922,226.027,124.938z"/>
  		
  			<rect x="254.123" y="168.514" fill="none" stroke="#000000" stroke-width="3" stroke-linecap="round" stroke-linejoin="round" width="44.727" height="3.441"/>
  		<path fill="#64492B" stroke="#000000" stroke-width="3" stroke-linecap="round" stroke-linejoin="round" d="M115.339,135.248
  			c2.626,0.367,5.053-1.461,5.422-4.084l13.146-93.494c0.368-2.625-1.461-5.052-4.085-5.421l-3.04-0.427
  			c-2.623-0.37-5.053,1.459-5.421,4.084L108.216,129.4c-0.369,2.623,1.459,5.052,4.084,5.42L115.339,135.248z"/>
  		<path fill="#EFD9BE" stroke="#000000" stroke-width="3" stroke-linecap="round" stroke-linejoin="round" d="M124.85,91.108
  			c1.78-1.854-0.083-6.53-4.161-10.444c-4.08-3.915-8.828-5.586-10.607-3.732c-1.777,1.854,0.087,6.529,4.165,10.445
  			C118.322,91.291,123.072,92.961,124.85,91.108z"/>
  		
  			<ellipse transform="matrix(0.6925 -0.7214 0.7214 0.6925 -29.4185 109.8112)" fill="#EFD9BE" stroke="#000000" stroke-width="3" stroke-linecap="round" stroke-linejoin="round" cx="114.104" cy="89.415" rx="4.653" ry="10.236"/>
  		<path fill="#EFD9BE" stroke="#000000" stroke-width="3" stroke-linecap="round" stroke-linejoin="round" d="M120.235,100.318
  			c1.38-1.84-1.306-5.076-5.963-7.285c-4.62-2.264-9.458-2.653-10.843-0.807c-1.395,1.861,1.195,5.248,5.82,7.505
  			C113.912,101.936,118.847,102.17,120.235,100.318z"/>
  		<path fill="#EFD9BE" stroke="#000000" stroke-width="3" stroke-linecap="round" stroke-linejoin="round" d="M113.464,105.794
  			c1.6-1.149,0.336-3.644-2.728-5.534c-2.977-1.862-6.561-2.396-8.1-1.225c-1.561,1.164-0.539,3.57,2.377,5.409
  			C108.02,106.318,111.845,106.937,113.464,105.794z"/>
  		<path fill="none" stroke="#000000" stroke-width="3" stroke-linecap="round" stroke-linejoin="round" d="M193.326,49.948
  			c2.071-3.313,4.557-9.944,6.216,3.314"/>
  		<path fill="none" stroke="#000000" stroke-width="3" stroke-linecap="round" stroke-linejoin="round" d="M191.05,58.423
  			c2.867-3.441,8.027-7.454,6.309,2.866"/>
  		<path fill="none" stroke="#000000" stroke-width="3" stroke-linecap="round" stroke-linejoin="round" d="M201.945,63.01
  			c2.865-4.014,9.748-7.455,9.175,1.721"/>
  		<path fill="#231F20" d="M194.956,65.327c1.23,0.384,2.695-0.804,3.271-2.651c0.572-1.846,0.041-3.654-1.188-4.038
  			c-1.232-0.384-2.697,0.804-3.271,2.649C193.192,63.135,193.724,64.943,194.956,65.327z"/>
  		
  			<ellipse transform="matrix(0.9548 0.2974 -0.2974 0.9548 29.0064 -59.3881)" fill="#231F20" cx="209.673" cy="65.631" rx="2.335" ry="3.503"/>
  		<path fill="none" stroke="#000000" stroke-width="3" stroke-linecap="round" d="M197.359,71.037
  			c-4.016-0.573-4.588-4.014-4.588-4.014c-2.294,5.16-0.574,6.881-0.574,6.881"/>
  		<path fill="none" stroke="#000000" stroke-width="3" stroke-linecap="round" stroke-linejoin="round" d="M205.744,53.75
  			c5.358-2.924,11.209-4.874,11.209,2.924"/>
  		<path fill="none" stroke="#000000" stroke-width="3" stroke-linecap="round" stroke-linejoin="round" d="M184.423,76.612
  			c-4.142,4.821-6.332,5.993-6.332,5.993s17.258,11.578,36.366,0.697"/>
  		<line fill="none" stroke="#000000" stroke-width="3" stroke-linecap="round" x1="212.051" y1="79.756" x2="216.238" y2="85.676"/>
  		<path stroke="#000000" stroke-width="3" stroke-linecap="round" stroke-linejoin="round" d="M203.092,24.018
  			c0,0-3.44,8.027,12.615,9.175c15.817,1.13,19.846-1.203,24.653,0c6.884,1.72,21.218,1.72,10.896,17.202
  			c-10.324,15.482,1.145,21.215,1.145,21.215l4.591-1.72c9.745-8.028,18.922-62.501-44.729-53.327"/>
  		<path fill="#231F20" stroke="#000000" stroke-width="3" stroke-linecap="round" stroke-linejoin="round" d="M195.639,15.596
  			c0.429,4.659,2.4,10.537,7.99,10.68c0.608,0.108,1.219-0.287,1.326-0.932c0.104-0.61-0.322-1.219-0.933-1.326
  			c-4.624-0.036-5.768-5.089-6.092-8.78c-0.106-0.609-0.68-1.039-1.326-0.968C195.998,14.378,195.567,14.952,195.639,15.596
  			L195.639,15.596z"/>
  		<path fill="#231F20" stroke="#000000" stroke-width="3" stroke-linecap="round" stroke-linejoin="round" d="M197.967,8.286
  			c0.968,6.952,5.376,13.116,11.826,16.09c0.608,0.251,1.254-0.071,1.469-0.645c0.252-0.609-0.07-1.253-0.645-1.505
  			c-5.662-2.723-9.64-8.35-10.429-14.586c-0.178-0.609-0.824-0.967-1.434-0.788C198.147,7.031,197.789,7.676,197.967,8.286
  			L197.967,8.286z"/>
  		<path fill="#231F20" stroke="#000000" stroke-width="3" stroke-linecap="round" stroke-linejoin="round" d="M203.127,9.36
  			c0.608,6.989,8.312,7.921,13.401,10.357c0.572,0.251,1.257,0,1.507-0.574c0.252-0.608,0-1.253-0.57-1.541
  			c-4.34-2.365-11.58-2.509-12.117-8.744c-0.141-0.61-0.75-1.004-1.359-0.86C203.377,8.143,202.984,8.751,203.127,9.36L203.127,9.36
  			z"/>
  		<path fill="#EFD9BE" stroke="#000000" stroke-width="3" stroke-linecap="round" stroke-linejoin="round" d="M272.607,176.333
  			c2.476-0.605,2.881-3.558,0.906-6.57c-1.973-2.99-5.582-4.863-8.057-4.213c-2.476,0.645-2.881,3.531-0.906,6.477
  			C266.523,174.99,270.131,176.934,272.607,176.333z"/>
  		<path fill="#EFD9BE" stroke="#000000" stroke-width="3" stroke-linecap="round" stroke-linejoin="round" d="M279.947,176.057
  			c2.986-0.596,3.855-4.1,1.947-7.795c-1.91-3.668-5.881-6.074-8.867-5.404c-2.985,0.656-3.856,4.082-1.944,7.678
  			C272.992,174.163,276.961,176.648,279.947,176.057z"/>
  		<path fill="#EFD9BE" stroke="#000000" stroke-width="3" stroke-linecap="round" stroke-linejoin="round" d="M286.779,175.889
  			c3.07-0.396,4.548-3.871,3.298-7.738c-1.25-3.85-4.757-6.566-7.826-6.09c-3.07,0.471-4.549,3.891-3.299,7.662
  			C280.201,173.512,283.705,176.284,286.779,175.889z"/>
  		<path fill="#EFD9BE" stroke="#000000" stroke-width="3" stroke-linecap="round" stroke-linejoin="round" d="M293.791,175.622
  			c3.114-0.226,5.081-3.65,4.391-7.64c-0.688-3.979-3.771-6.944-6.887-6.637c-3.117,0.305-5.082,3.7-4.396,7.596
  			C287.59,172.848,290.674,175.842,293.791,175.622z"/>
  		<path fill="none" stroke="#000000" stroke-width="3" stroke-linecap="round" stroke-linejoin="round" d="M270.18,142.713
  			c-4.588-11.469,31.535-21.791,12.617,2.867"/>
  		<path fill="none" stroke="#000000" stroke-width="3" stroke-linecap="round" stroke-linejoin="round" d="M273.619,106.016
  			c1.147,10.32-11.47,15.48-11.47,15.48"/>
  		<path fill="none" stroke="#000000" stroke-width="3" stroke-linecap="round" stroke-linejoin="round" d="M282.797,93.399
  			c-0.576,9.749,2.289,29.244,20.067,26.376"/>
  		
  			<ellipse fill="#231F20" stroke="#000000" stroke-width="3" stroke-linecap="round" stroke-linejoin="round" cx="274.768" cy="120.637" rx="0.812" ry="6.082"/>
  		
  			<ellipse fill="#231F20" stroke="#000000" stroke-width="3" stroke-linecap="round" stroke-linejoin="round" cx="282.221" cy="120.063" rx="0.812" ry="6.081"/>
  		<path fill="#EFD9BE" stroke="#000000" stroke-width="3" stroke-linecap="round" stroke-linejoin="round" d="M124.863,119.126
  			c3.07,12.898,11.818,38.123,11.818,38.123s1.209,8.141,12.34,5.426c7.353-1.791,14.657-3.254,14.657-3.254
  			c0.466-4.254-3.964-16.058-3.964-16.058l-0.803,0.503l-8.963,1.601c-2.798-15.958-12.801-31.159-12.801-31.159
  			c3.568-13.598,4.979-11.574,1.344-22.165c-2.013-3.914-2.604-0.279-4.062-8.41c-0.635-16.139-7.496-9.676-8.436-5.406
  			c-2.044,9.287,2.964,14.342,2.964,14.342c-2.917-3.516-0.141,0.813-2.563-1.975l-3.565,27.201l6.104-1.613l-4.143,1.188"/>
  		
  			<line fill="none" stroke="#000000" stroke-width="3" stroke-linecap="round" stroke-linejoin="round" x1="276.516" y1="148.904" x2="299.93" y2="148.904"/>
  		
  			<rect x="115.04" y="19.375" transform="matrix(0.1461 -0.9893 0.9893 0.1461 79.6348 153.0257)" fill="#231F20" width="26.835" height="22.018"/>
  		<path fill="#231F20" d="M141.013,19.137c2.348,4.52,20.465,7.428,22.43,3.546l8.815,1.534c1.314,9.931-2.513,17.017-2.513,17.017
  			l-8.396-1.24c-6.195-6.711-14.137-7.884-22.682-4.974L141.013,19.137z"/>
  		<path fill="#231F20" d="M121.343,15.766c0,0-21.951-2.083-37.561,26.678c7.419-4.7,18.04-21.679,35.647-13.745L121.343,15.766z"/>
  	</g>
  </g>
  <g>
  	<g enable-background="new    ">
  		<path fill="#231F20" d="M53.94,196.808l-5.299,45.77H33.781c-1.36-7.031-2.561-15.032-3.602-24.001
  			c-0.475,3.846-1.582,11.846-3.32,24.001H12.085l-5.328-45.77H18.32l1.257,15.97l1.216,15.438
  			c0.439-7.989,1.536-18.458,3.291-31.408h12.359c0.165,1.339,0.597,6.371,1.298,15.097l1.314,17.414
  			c0.677-11.079,1.784-21.916,3.322-32.511H53.94z"/>
  		<path fill="#231F20" d="M67.707,196.808v5.966h-11.76v-5.966H67.707z M67.707,205.063v37.515h-11.76v-37.515H67.707z"/>
  		<path fill="#231F20" d="M83.567,196.808v45.77h-11.76v-45.77H83.567z"/>
  		<path fill="#231F20" d="M99.426,196.808v45.77h-11.76v-45.77H99.426z"/>
  		<path fill="#231F20" d="M115.285,196.808v5.966h-11.76v-5.966H115.285z M115.285,205.063v37.515h-11.76v-37.515H115.285z"/>
  		<path fill="#231F20" d="M129.59,219.594h-10.714v-2.517c0-2.901,0.334-5.14,1.004-6.714c0.668-1.573,2.011-2.963,4.028-4.17
  			c2.017-1.205,4.636-1.809,7.859-1.809c3.863,0,6.775,0.683,8.736,2.049c1.959,1.367,3.138,3.044,3.534,5.032
  			c0.396,1.989,0.594,6.083,0.594,12.283v18.828h-11.11v-3.343c-0.697,1.341-1.597,2.346-2.7,3.016s-2.417,1.006-3.944,1.006
  			c-1.998,0-3.831-0.562-5.499-1.683s-2.502-3.576-2.502-7.364v-3.081c0-2.809,0.443-4.722,1.329-5.739
  			c0.885-1.018,3.081-2.205,6.587-3.562c3.75-1.47,5.757-2.46,6.021-2.969c0.264-0.509,0.396-1.545,0.396-3.109
  			c0-1.96-0.146-3.237-0.438-3.831c-0.292-0.594-0.777-0.89-1.456-0.89c-0.773,0-1.253,0.25-1.442,0.749s-0.283,1.795-0.283,3.887
  			V219.594z M133.209,224.74c-1.828,1.338-2.888,2.459-3.18,3.363c-0.292,0.905-0.438,2.205-0.438,3.901
  			c0,1.941,0.127,3.194,0.382,3.76s0.758,0.849,1.512,0.849c0.716,0,1.183-0.222,1.399-0.664c0.217-0.443,0.325-1.606,0.325-3.492
  			V224.74z"/>
  		<path fill="#231F20" d="M159.839,205.063l-0.198,3.569c0.886-1.416,1.941-2.478,3.167-3.186c1.225-0.708,2.619-1.062,4.184-1.062
  			c3.053,0,5.456,1.416,7.209,4.247c0.961-1.416,2.045-2.478,3.251-3.186s2.544-1.062,4.015-1.062c1.941,0,3.548,0.471,4.82,1.413
  			s2.087,2.097,2.445,3.463c0.358,1.367,0.537,3.586,0.537,6.658v26.658h-11.082v-24.453c0-3.204-0.109-5.188-0.325-5.951
  			c-0.217-0.764-0.721-1.145-1.513-1.145c-0.811,0-1.333,0.377-1.569,1.13c-0.236,0.755-0.354,2.742-0.354,5.966v24.453h-11.082
  			v-23.832c0-3.675-0.09-5.88-0.269-6.614c-0.18-0.735-0.674-1.103-1.484-1.103c-0.509,0-0.942,0.193-1.3,0.579
  			c-0.358,0.387-0.556,0.857-0.594,1.413c-0.038,0.557-0.057,1.739-0.057,3.548v26.009h-11.082v-37.515H159.839z"/>
  		<path fill="#231F20" d="M228.959,210.661h-11.054v-3.393c0-1.583-0.142-2.591-0.425-3.024c-0.282-0.434-0.754-0.65-1.413-0.65
  			c-0.716,0-1.258,0.293-1.626,0.877c-0.367,0.585-0.551,1.472-0.551,2.659c0,1.527,0.207,2.679,0.62,3.451
  			c0.394,0.773,1.515,1.707,3.362,2.799c5.299,3.145,8.635,5.725,10.012,7.741c1.375,2.017,2.063,5.268,2.063,9.753
  			c0,3.261-0.382,5.664-1.146,7.209c-0.763,1.546-2.238,2.842-4.424,3.888c-2.187,1.046-4.73,1.568-7.633,1.568
  			c-3.186,0-5.904-0.604-8.156-1.809c-2.252-1.206-3.727-2.742-4.424-4.608s-1.046-4.514-1.046-7.944v-2.996h11.054v5.569
  			c0,1.715,0.155,2.817,0.467,3.308c0.311,0.49,0.861,0.734,1.653,0.734s1.38-0.311,1.767-0.933s0.58-1.545,0.58-2.771
  			c0-2.694-0.368-4.457-1.104-5.286c-0.754-0.829-2.609-2.215-5.568-4.156c-2.959-1.96-4.92-3.383-5.881-4.269
  			s-1.758-2.11-2.389-3.675s-0.947-3.562-0.947-5.993c0-3.506,0.447-6.068,1.344-7.689c0.895-1.621,2.342-2.888,4.339-3.803
  			c1.997-0.914,4.41-1.371,7.237-1.371c3.091,0,5.725,0.5,7.901,1.498c2.177,1,3.618,2.258,4.325,3.774
  			c0.707,1.518,1.061,4.095,1.061,7.731V210.661z"/>
  		<path fill="#231F20" d="M244.762,196.808v10.298c0.979-0.907,2.04-1.587,3.18-2.041c1.141-0.453,2.361-0.68,3.662-0.68
  			c1.997,0,3.698,0.509,5.102,1.526c1.404,1.018,2.262,2.19,2.573,3.52s0.466,3.756,0.466,7.279v25.867h-11.42v-26.404
  			c0-2.186-0.109-3.59-0.326-4.212s-0.701-0.933-1.455-0.933c-0.697,0-1.169,0.32-1.414,0.961c-0.244,0.641-0.367,1.913-0.367,3.816
  			v26.771h-11.421v-45.77H244.762z"/>
  		<path fill="#231F20" d="M289.513,218.237v9.188c0,3.373-0.169,5.847-0.509,7.421c-0.34,1.573-1.064,3.044-2.177,4.41
  			s-2.54,2.374-4.282,3.024c-1.744,0.65-3.746,0.976-6.008,0.976c-2.525,0-4.664-0.278-6.418-0.834
  			c-1.752-0.556-3.114-1.395-4.084-2.517c-0.971-1.121-1.664-2.478-2.078-4.07c-0.415-1.593-0.622-3.981-0.622-7.167v-9.611
  			c0-3.486,0.376-6.21,1.131-8.17c0.753-1.96,2.11-3.534,4.071-4.722c1.959-1.187,4.467-1.78,7.52-1.78
  			c2.562,0,4.764,0.381,6.601,1.145c1.838,0.764,3.256,1.758,4.255,2.982c0.998,1.226,1.682,2.488,2.049,3.788
  			C289.329,213.601,289.513,215.58,289.513,218.237z M278.092,215.411c0-1.923-0.104-3.134-0.311-3.633
  			c-0.208-0.499-0.65-0.749-1.329-0.749s-1.131,0.25-1.356,0.749c-0.227,0.499-0.34,1.71-0.34,3.633v16.934
  			c0,1.771,0.113,2.926,0.34,3.463c0.226,0.537,0.668,0.806,1.328,0.806c0.679,0,1.126-0.245,1.343-0.735
  			c0.216-0.489,0.325-1.545,0.325-3.166V215.411z"/>
  		<path fill="#231F20" d="M316.596,217.05h-10.121v-2.036c0-1.733-0.099-2.831-0.297-3.293c-0.197-0.462-0.692-0.692-1.484-0.692
  			c-0.641,0-1.121,0.212-1.441,0.636s-0.48,1.06-0.48,1.908c0,1.149,0.08,1.993,0.24,2.53s0.641,1.126,1.441,1.767
  			s2.445,1.574,4.934,2.799c3.316,1.621,5.494,3.147,6.53,4.58c1.036,1.432,1.555,3.515,1.555,6.247
  			c0,3.054-0.396,5.357-1.187,6.912c-0.792,1.555-2.117,2.752-3.973,3.591c-1.856,0.838-4.095,1.258-6.714,1.258
  			c-2.903,0-5.386-0.452-7.449-1.357c-2.063-0.904-3.481-2.129-4.255-3.675c-0.773-1.545-1.158-3.882-1.158-7.011v-1.81h10.12v2.375
  			c0,2.017,0.127,3.326,0.382,3.93c0.254,0.603,0.758,0.904,1.512,0.904c0.811,0,1.376-0.202,1.697-0.608
  			c0.319-0.404,0.48-1.258,0.48-2.558c0-1.791-0.208-2.912-0.623-3.364c-0.434-0.452-2.647-1.79-6.643-4.015
  			c-3.355-1.884-5.4-3.595-6.135-5.131c-0.735-1.536-1.103-3.359-1.103-5.471c0-2.996,0.396-5.206,1.187-6.629
  			c0.792-1.423,2.135-2.521,4.029-3.293c1.895-0.773,4.094-1.159,6.602-1.159c2.487,0,4.603,0.315,6.346,0.946
  			c1.743,0.632,3.082,1.466,4.015,2.502c0.933,1.037,1.498,1.998,1.696,2.884c0.197,0.886,0.297,2.271,0.297,4.156V217.05z"/>
  		<path fill="#231F20" d="M332.569,200.06v5.908h3.081v5.937h-3.081v20.071c0,2.47,0.127,3.845,0.381,4.128
  			c0.255,0.282,1.314,0.424,3.182,0.424v6.05h-4.609c-2.6,0-4.457-0.108-5.568-0.325c-1.112-0.217-2.092-0.716-2.939-1.498
  			c-0.849-0.782-1.377-1.678-1.584-2.686s-0.311-3.379-0.311-7.11v-19.054h-2.46v-5.937h2.46v-5.908H332.569z"/>
  		<path fill="#231F20" d="M348.371,219.594h-10.715v-2.517c0-2.901,0.335-5.14,1.004-6.714c0.669-1.573,2.012-2.963,4.029-4.17
  			c2.016-1.205,4.636-1.809,7.858-1.809c3.863,0,6.775,0.683,8.735,2.049c1.96,1.367,3.139,3.044,3.534,5.032
  			c0.396,1.989,0.594,6.083,0.594,12.283v18.828h-11.11v-3.343c-0.697,1.341-1.598,2.346-2.699,3.016
  			c-1.104,0.67-2.418,1.006-3.944,1.006c-1.997,0-3.831-0.562-5.499-1.683s-2.502-3.576-2.502-7.364v-3.081
  			c0-2.809,0.443-4.722,1.33-5.739c0.885-1.018,3.08-2.205,6.586-3.562c3.75-1.47,5.758-2.46,6.021-2.969s0.396-1.545,0.396-3.109
  			c0-1.96-0.146-3.237-0.438-3.831s-0.777-0.89-1.456-0.89c-0.773,0-1.254,0.25-1.441,0.749c-0.189,0.499-0.283,1.795-0.283,3.887
  			V219.594z M351.99,224.74c-1.828,1.338-2.889,2.459-3.181,3.363c-0.292,0.905-0.438,2.205-0.438,3.901
  			c0,1.941,0.127,3.194,0.382,3.76s0.759,0.849,1.513,0.849c0.716,0,1.182-0.222,1.398-0.664c0.217-0.443,0.326-1.606,0.326-3.492
  			V224.74z"/>
  		<path fill="#231F20" d="M391.936,205.063l-4.637,14.941l6.021,22.573h-10.982l-3.562-16.351l-0.014,16.351H367.34v-45.77h11.422
  			l0.014,19.214l3.562-10.959H391.936z"/>
  	</g>
  	<g enable-background="new    ">
  		<path fill="none" stroke="#FFFFFF" stroke-width="12" stroke-linejoin="round" d="M53.94,196.808l-5.299,45.77H33.781
  			c-1.36-7.031-2.561-15.032-3.602-24.001c-0.475,3.846-1.582,11.846-3.32,24.001H12.085l-5.328-45.77H18.32l1.257,15.97
  			l1.216,15.438c0.439-7.989,1.536-18.458,3.291-31.408h12.359c0.165,1.339,0.597,6.371,1.298,15.097l1.314,17.414
  			c0.677-11.079,1.784-21.916,3.322-32.511H53.94z"/>
  		<path fill="none" stroke="#FFFFFF" stroke-width="12" stroke-linejoin="round" d="M67.707,196.808v5.966h-11.76v-5.966H67.707z
  			 M67.707,205.063v37.515h-11.76v-37.515H67.707z"/>
  		<path fill="none" stroke="#FFFFFF" stroke-width="12" stroke-linejoin="round" d="M83.567,196.808v45.77h-11.76v-45.77H83.567z"/>
  		<path fill="none" stroke="#FFFFFF" stroke-width="12" stroke-linejoin="round" d="M99.426,196.808v45.77h-11.76v-45.77H99.426z"/>
  		<path fill="none" stroke="#FFFFFF" stroke-width="12" stroke-linejoin="round" d="M115.285,196.808v5.966h-11.76v-5.966H115.285z
  			 M115.285,205.063v37.515h-11.76v-37.515H115.285z"/>
  		<path fill="none" stroke="#FFFFFF" stroke-width="12" stroke-linejoin="round" d="M129.59,219.594h-10.714v-2.517
  			c0-2.901,0.334-5.14,1.004-6.714c0.668-1.573,2.011-2.963,4.028-4.17c2.017-1.205,4.636-1.809,7.859-1.809
  			c3.863,0,6.775,0.683,8.736,2.049c1.959,1.367,3.138,3.044,3.534,5.032c0.396,1.989,0.594,6.083,0.594,12.283v18.828h-11.11
  			v-3.343c-0.697,1.341-1.597,2.346-2.7,3.016s-2.417,1.006-3.944,1.006c-1.998,0-3.831-0.562-5.499-1.683s-2.502-3.576-2.502-7.364
  			v-3.081c0-2.809,0.443-4.722,1.329-5.739c0.885-1.018,3.081-2.205,6.587-3.562c3.75-1.47,5.757-2.46,6.021-2.969
  			c0.264-0.509,0.396-1.545,0.396-3.109c0-1.96-0.146-3.237-0.438-3.831c-0.292-0.594-0.777-0.89-1.456-0.89
  			c-0.773,0-1.253,0.25-1.442,0.749s-0.283,1.795-0.283,3.887V219.594z M133.209,224.74c-1.828,1.338-2.888,2.459-3.18,3.363
  			c-0.292,0.905-0.438,2.205-0.438,3.901c0,1.941,0.127,3.194,0.382,3.76s0.758,0.849,1.512,0.849c0.716,0,1.183-0.222,1.399-0.664
  			c0.217-0.443,0.325-1.606,0.325-3.492V224.74z"/>
  		<path fill="none" stroke="#FFFFFF" stroke-width="12" stroke-linejoin="round" d="M159.839,205.063l-0.198,3.569
  			c0.886-1.416,1.941-2.478,3.167-3.186c1.225-0.708,2.619-1.062,4.184-1.062c3.053,0,5.456,1.416,7.209,4.247
  			c0.961-1.416,2.045-2.478,3.251-3.186s2.544-1.062,4.015-1.062c1.941,0,3.548,0.471,4.82,1.413s2.087,2.097,2.445,3.463
  			c0.358,1.367,0.537,3.586,0.537,6.658v26.658h-11.082v-24.453c0-3.204-0.109-5.188-0.325-5.951
  			c-0.217-0.764-0.721-1.145-1.513-1.145c-0.811,0-1.333,0.377-1.569,1.13c-0.236,0.755-0.354,2.742-0.354,5.966v24.453h-11.082
  			v-23.832c0-3.675-0.09-5.88-0.269-6.614c-0.18-0.735-0.674-1.103-1.484-1.103c-0.509,0-0.942,0.193-1.3,0.579
  			c-0.358,0.387-0.556,0.857-0.594,1.413c-0.038,0.557-0.057,1.739-0.057,3.548v26.009h-11.082v-37.515H159.839z"/>
  		<path fill="none" stroke="#FFFFFF" stroke-width="12" stroke-linejoin="round" d="M228.959,210.661h-11.054v-3.393
  			c0-1.583-0.142-2.591-0.425-3.024c-0.282-0.434-0.754-0.65-1.413-0.65c-0.716,0-1.258,0.293-1.626,0.877
  			c-0.367,0.585-0.551,1.472-0.551,2.659c0,1.527,0.207,2.679,0.62,3.451c0.394,0.773,1.515,1.707,3.362,2.799
  			c5.299,3.145,8.635,5.725,10.012,7.741c1.375,2.017,2.063,5.268,2.063,9.753c0,3.261-0.382,5.664-1.146,7.209
  			c-0.763,1.546-2.238,2.842-4.424,3.888c-2.187,1.046-4.73,1.568-7.633,1.568c-3.186,0-5.904-0.604-8.156-1.809
  			c-2.252-1.206-3.727-2.742-4.424-4.608s-1.046-4.514-1.046-7.944v-2.996h11.054v5.569c0,1.715,0.155,2.817,0.467,3.308
  			c0.311,0.49,0.861,0.734,1.653,0.734s1.38-0.311,1.767-0.933s0.58-1.545,0.58-2.771c0-2.694-0.368-4.457-1.104-5.286
  			c-0.754-0.829-2.609-2.215-5.568-4.156c-2.959-1.96-4.92-3.383-5.881-4.269s-1.758-2.11-2.389-3.675s-0.947-3.562-0.947-5.993
  			c0-3.506,0.447-6.068,1.344-7.689c0.895-1.621,2.342-2.888,4.339-3.803c1.997-0.914,4.41-1.371,7.237-1.371
  			c3.091,0,5.725,0.5,7.901,1.498c2.177,1,3.618,2.258,4.325,3.774c0.707,1.518,1.061,4.095,1.061,7.731V210.661z"/>
  		<path fill="none" stroke="#FFFFFF" stroke-width="12" stroke-linejoin="round" d="M244.762,196.808v10.298
  			c0.979-0.907,2.04-1.587,3.18-2.041c1.141-0.453,2.361-0.68,3.662-0.68c1.997,0,3.698,0.509,5.102,1.526
  			c1.404,1.018,2.262,2.19,2.573,3.52s0.466,3.756,0.466,7.279v25.867h-11.42v-26.404c0-2.186-0.109-3.59-0.326-4.212
  			s-0.701-0.933-1.455-0.933c-0.697,0-1.169,0.32-1.414,0.961c-0.244,0.641-0.367,1.913-0.367,3.816v26.771h-11.421v-45.77H244.762z
  			"/>
  		<path fill="none" stroke="#FFFFFF" stroke-width="12" stroke-linejoin="round" d="M289.513,218.237v9.188
  			c0,3.373-0.169,5.847-0.509,7.421c-0.34,1.573-1.064,3.044-2.177,4.41s-2.54,2.374-4.282,3.024
  			c-1.744,0.65-3.746,0.976-6.008,0.976c-2.525,0-4.664-0.278-6.418-0.834c-1.752-0.556-3.114-1.395-4.084-2.517
  			c-0.971-1.121-1.664-2.478-2.078-4.07c-0.415-1.593-0.622-3.981-0.622-7.167v-9.611c0-3.486,0.376-6.21,1.131-8.17
  			c0.753-1.96,2.11-3.534,4.071-4.722c1.959-1.187,4.467-1.78,7.52-1.78c2.562,0,4.764,0.381,6.601,1.145
  			c1.838,0.764,3.256,1.758,4.255,2.982c0.998,1.226,1.682,2.488,2.049,3.788C289.329,213.601,289.513,215.58,289.513,218.237z
  			 M278.092,215.411c0-1.923-0.104-3.134-0.311-3.633c-0.208-0.499-0.65-0.749-1.329-0.749s-1.131,0.25-1.356,0.749
  			c-0.227,0.499-0.34,1.71-0.34,3.633v16.934c0,1.771,0.113,2.926,0.34,3.463c0.226,0.537,0.668,0.806,1.328,0.806
  			c0.679,0,1.126-0.245,1.343-0.735c0.216-0.489,0.325-1.545,0.325-3.166V215.411z"/>
  		<path fill="none" stroke="#FFFFFF" stroke-width="12" stroke-linejoin="round" d="M316.596,217.05h-10.121v-2.036
  			c0-1.733-0.099-2.831-0.297-3.293c-0.197-0.462-0.692-0.692-1.484-0.692c-0.641,0-1.121,0.212-1.441,0.636s-0.48,1.06-0.48,1.908
  			c0,1.149,0.08,1.993,0.24,2.53s0.641,1.126,1.441,1.767s2.445,1.574,4.934,2.799c3.316,1.621,5.494,3.147,6.53,4.58
  			c1.036,1.432,1.555,3.515,1.555,6.247c0,3.054-0.396,5.357-1.187,6.912c-0.792,1.555-2.117,2.752-3.973,3.591
  			c-1.856,0.838-4.095,1.258-6.714,1.258c-2.903,0-5.386-0.452-7.449-1.357c-2.063-0.904-3.481-2.129-4.255-3.675
  			c-0.773-1.545-1.158-3.882-1.158-7.011v-1.81h10.12v2.375c0,2.017,0.127,3.326,0.382,3.93c0.254,0.603,0.758,0.904,1.512,0.904
  			c0.811,0,1.376-0.202,1.697-0.608c0.319-0.404,0.48-1.258,0.48-2.558c0-1.791-0.208-2.912-0.623-3.364
  			c-0.434-0.452-2.647-1.79-6.643-4.015c-3.355-1.884-5.4-3.595-6.135-5.131c-0.735-1.536-1.103-3.359-1.103-5.471
  			c0-2.996,0.396-5.206,1.187-6.629c0.792-1.423,2.135-2.521,4.029-3.293c1.895-0.773,4.094-1.159,6.602-1.159
  			c2.487,0,4.603,0.315,6.346,0.946c1.743,0.632,3.082,1.466,4.015,2.502c0.933,1.037,1.498,1.998,1.696,2.884
  			c0.197,0.886,0.297,2.271,0.297,4.156V217.05z"/>
  		<path fill="none" stroke="#FFFFFF" stroke-width="12" stroke-linejoin="round" d="M332.569,200.06v5.908h3.081v5.937h-3.081
  			v20.071c0,2.47,0.127,3.845,0.381,4.128c0.255,0.282,1.314,0.424,3.182,0.424v6.05h-4.609c-2.6,0-4.457-0.108-5.568-0.325
  			c-1.112-0.217-2.092-0.716-2.939-1.498c-0.849-0.782-1.377-1.678-1.584-2.686s-0.311-3.379-0.311-7.11v-19.054h-2.46v-5.937h2.46
  			v-5.908H332.569z"/>
  		<path fill="none" stroke="#FFFFFF" stroke-width="12" stroke-linejoin="round" d="M348.371,219.594h-10.715v-2.517
  			c0-2.901,0.335-5.14,1.004-6.714c0.669-1.573,2.012-2.963,4.029-4.17c2.016-1.205,4.636-1.809,7.858-1.809
  			c3.863,0,6.775,0.683,8.735,2.049c1.96,1.367,3.139,3.044,3.534,5.032c0.396,1.989,0.594,6.083,0.594,12.283v18.828h-11.11v-3.343
  			c-0.697,1.341-1.598,2.346-2.699,3.016c-1.104,0.67-2.418,1.006-3.944,1.006c-1.997,0-3.831-0.562-5.499-1.683
  			s-2.502-3.576-2.502-7.364v-3.081c0-2.809,0.443-4.722,1.33-5.739c0.885-1.018,3.08-2.205,6.586-3.562
  			c3.75-1.47,5.758-2.46,6.021-2.969s0.396-1.545,0.396-3.109c0-1.96-0.146-3.237-0.438-3.831s-0.777-0.89-1.456-0.89
  			c-0.773,0-1.254,0.25-1.441,0.749c-0.189,0.499-0.283,1.795-0.283,3.887V219.594z M351.99,224.74
  			c-1.828,1.338-2.889,2.459-3.181,3.363c-0.292,0.905-0.438,2.205-0.438,3.901c0,1.941,0.127,3.194,0.382,3.76
  			s0.759,0.849,1.513,0.849c0.716,0,1.182-0.222,1.398-0.664c0.217-0.443,0.326-1.606,0.326-3.492V224.74z"/>
  		<path fill="none" stroke="#FFFFFF" stroke-width="12" stroke-linejoin="round" d="M391.936,205.063l-4.637,14.941l6.021,22.573
  			h-10.982l-3.562-16.351l-0.014,16.351H367.34v-45.77h11.422l0.014,19.214l3.562-10.959H391.936z"/>
  	</g>
  	<g enable-background="new    ">
  		<path fill="#231F20" d="M198.135,268.632h-7.106v-4.75c0-1.381-0.076-2.242-0.228-2.585s-0.487-0.514-1.004-0.514
  			c-0.585,0-0.957,0.208-1.114,0.624c-0.158,0.417-0.236,1.316-0.236,2.701v12.692c0,1.328,0.079,2.194,0.236,2.6
  			c0.157,0.404,0.512,0.607,1.063,0.607c0.529,0,0.875-0.203,1.038-0.609s0.245-1.359,0.245-2.859v-3.435h7.106v1.064
  			c0,2.829-0.2,4.835-0.6,6.018c-0.399,1.184-1.283,2.221-2.65,3.11c-1.367,0.891-3.052,1.336-5.055,1.336
  			c-2.082,0-3.797-0.378-5.148-1.131c-1.35-0.754-2.245-1.798-2.684-3.131c-0.439-1.334-0.658-3.34-0.658-6.018v-7.983
  			c0-1.97,0.067-3.446,0.203-4.431c0.135-0.984,0.537-1.933,1.207-2.845c0.669-0.911,1.598-1.629,2.785-2.151
  			c1.187-0.523,2.551-0.785,4.093-0.785c2.093,0,3.82,0.404,5.182,1.214c1.361,0.809,2.256,1.817,2.684,3.025
  			c0.427,1.208,0.642,3.087,0.642,5.638V268.632z"/>
  		<path fill="#231F20" d="M215.908,269.527v5.485c0,2.015-0.102,3.491-0.305,4.431c-0.201,0.939-0.635,1.817-1.299,2.633
  			c-0.664,0.816-1.517,1.418-2.557,1.807c-1.041,0.388-2.237,0.582-3.588,0.582c-1.508,0-2.785-0.166-3.831-0.498
  			s-1.859-0.833-2.438-1.502c-0.58-0.67-0.994-1.479-1.24-2.431c-0.249-0.951-0.372-2.377-0.372-4.279v-5.738
  			c0-2.082,0.226-3.708,0.675-4.878c0.45-1.17,1.26-2.11,2.431-2.818c1.171-0.709,2.667-1.063,4.489-1.063
  			c1.531,0,2.845,0.228,3.941,0.684c1.098,0.455,1.944,1.049,2.541,1.78c0.596,0.731,1.004,1.485,1.223,2.262
  			C215.799,266.758,215.908,267.94,215.908,269.527z M209.089,267.838c0-1.147-0.062-1.87-0.186-2.169
  			c-0.124-0.298-0.388-0.447-0.794-0.447c-0.404,0-0.674,0.149-0.81,0.447c-0.135,0.299-0.202,1.021-0.202,2.169v10.11
  			c0,1.058,0.067,1.747,0.202,2.068c0.136,0.32,0.399,0.48,0.794,0.48c0.404,0,0.672-0.146,0.801-0.438s0.194-0.923,0.194-1.891
  			V267.838z"/>
  		<path fill="#231F20" d="M224.887,261.661l-0.117,2.132c0.528-0.846,1.158-1.479,1.891-1.902c0.73-0.423,1.563-0.634,2.498-0.634
  			c1.822,0,3.257,0.845,4.304,2.536c0.573-0.846,1.221-1.479,1.94-1.902c0.721-0.423,1.52-0.634,2.396-0.634
  			c1.16,0,2.119,0.281,2.879,0.844s1.246,1.252,1.459,2.067c0.215,0.816,0.321,2.141,0.321,3.975v15.917h-6.616v-14.6
  			c0-1.913-0.064-3.098-0.194-3.554c-0.13-0.455-0.431-0.684-0.903-0.684c-0.483,0-0.796,0.226-0.937,0.676
  			s-0.211,1.637-0.211,3.562v14.6h-6.616v-14.229c0-2.194-0.054-3.511-0.16-3.95c-0.107-0.438-0.402-0.658-0.887-0.658
  			c-0.304,0-0.562,0.116-0.776,0.347s-0.332,0.512-0.354,0.844s-0.033,1.038-0.033,2.118v15.528h-6.617v-22.398H224.887z"/>
  		<path fill="#231F20" d="M251.741,261.661l-0.118,1.979c0.607-0.8,1.277-1.397,2.009-1.792s1.53-0.592,2.396-0.592
  			c1.058,0,1.972,0.284,2.743,0.852c0.771,0.568,1.252,1.225,1.443,1.967c0.191,0.743,0.287,2.003,0.287,3.781v9.435
  			c0,2.037-0.121,3.485-0.363,4.347c-0.242,0.86-0.737,1.547-1.486,2.059c-0.748,0.513-1.65,0.769-2.709,0.769
  			c-0.844,0-1.625-0.197-2.346-0.592s-1.379-0.98-1.975-1.759v5.136h-6.818v-25.589H251.741z M253.682,268.176
  			c0-1.384-0.05-2.223-0.151-2.515c-0.101-0.293-0.382-0.439-0.844-0.439c-0.45,0-0.74,0.169-0.869,0.507
  			c-0.13,0.338-0.194,1.153-0.194,2.447v9.283c0,1.351,0.067,2.194,0.203,2.532c0.135,0.337,0.427,0.506,0.877,0.506
  			c0.439,0,0.712-0.154,0.818-0.464c0.107-0.31,0.16-1.061,0.16-2.254V268.176z"/>
  		<path fill="#231F20" d="M278.36,261.661v22.398h-6.938l0.118-1.861c-0.473,0.756-1.056,1.322-1.747,1.7
  			c-0.691,0.377-1.488,0.566-2.389,0.566c-1.023,0-1.873-0.181-2.549-0.54c-0.675-0.36-1.173-0.839-1.493-1.435
  			c-0.321-0.597-0.521-1.219-0.6-1.865c-0.079-0.647-0.118-1.933-0.118-3.857v-15.106h6.819v15.242c0,1.744,0.054,2.779,0.16,3.105
  			s0.396,0.489,0.869,0.489c0.507,0,0.808-0.169,0.903-0.506c0.096-0.338,0.144-1.424,0.144-3.258v-15.073H278.36z"/>
  		<path fill="#231F20" d="M287.996,258.673v3.528h1.84v3.544h-1.84v11.984c0,1.474,0.076,2.295,0.229,2.464
  			c0.151,0.169,0.785,0.253,1.898,0.253v3.612h-2.751c-1.554,0-2.661-0.064-3.325-0.194c-0.664-0.129-1.249-0.428-1.756-0.895
  			c-0.506-0.467-0.821-1.001-0.945-1.604c-0.123-0.602-0.186-2.017-0.186-4.245v-11.376h-1.469v-3.544h1.469v-3.528H287.996z"/>
  		<path fill="#231F20" d="M306.782,273.256h-8.827v4.845c0,1.013,0.072,1.665,0.219,1.958s0.428,0.438,0.844,0.438
  			c0.518,0,0.863-0.194,1.039-0.582c0.174-0.389,0.262-1.14,0.262-2.254v-2.953h6.464v1.654c0,1.384-0.087,2.447-0.262,3.189
  			c-0.175,0.743-0.582,1.536-1.224,2.38c-0.641,0.844-1.455,1.478-2.439,1.899s-2.219,0.633-3.704,0.633
  			c-1.44,0-2.712-0.209-3.815-0.625c-1.102-0.416-1.96-0.987-2.573-1.713s-1.038-1.524-1.274-2.396s-0.354-2.141-0.354-3.807v-6.532
  			c0-1.957,0.265-3.502,0.794-4.633c0.528-1.131,1.395-1.997,2.599-2.6c1.204-0.602,2.588-0.902,4.152-0.902
  			c1.913,0,3.491,0.362,4.734,1.088c1.243,0.727,2.115,1.688,2.616,2.887c0.5,1.198,0.751,2.884,0.751,5.055V273.256z
  			 M299.947,269.611v-1.637c0-1.159-0.062-1.907-0.186-2.245s-0.377-0.507-0.759-0.507c-0.473,0-0.766,0.144-0.879,0.431
  			c-0.112,0.287-0.168,1.061-0.168,2.321v1.637H299.947z"/>
  		<path fill="#231F20" d="M315.829,261.661l-0.271,2.945c0.99-2.108,2.426-3.226,4.305-3.35v7.882c-1.249,0-2.166,0.169-2.752,0.507
  			c-0.584,0.337-0.945,0.808-1.08,1.409s-0.202,1.989-0.202,4.16v8.845h-6.819v-22.398H315.829z"/>
  		<path fill="#231F20" d="M343.544,256.733v27.326h-6.228l-3.697-12.423v12.423h-5.941v-27.326h5.941l3.983,12.304v-12.304H343.544z
  			"/>
  		<path fill="#231F20" d="M361.639,273.256h-8.828v4.845c0,1.013,0.073,1.665,0.22,1.958c0.146,0.293,0.427,0.438,0.844,0.438
  			c0.518,0,0.863-0.194,1.038-0.582c0.174-0.389,0.262-1.14,0.262-2.254v-2.953h6.465v1.654c0,1.384-0.088,2.447-0.262,3.189
  			c-0.175,0.743-0.582,1.536-1.225,2.38c-0.641,0.844-1.454,1.478-2.438,1.899c-0.985,0.422-2.22,0.633-3.704,0.633
  			c-1.441,0-2.713-0.209-3.815-0.625s-1.96-0.987-2.573-1.713s-1.039-1.524-1.275-2.396s-0.354-2.141-0.354-3.807v-6.532
  			c0-1.957,0.264-3.502,0.793-4.633s1.395-1.997,2.6-2.6c1.203-0.602,2.588-0.902,4.152-0.902c1.912,0,3.49,0.362,4.734,1.088
  			c1.242,0.727,2.115,1.688,2.615,2.887c0.501,1.198,0.752,2.884,0.752,5.055V273.256z M354.803,269.611v-1.637
  			c0-1.159-0.062-1.907-0.186-2.245c-0.125-0.338-0.377-0.507-0.76-0.507c-0.473,0-0.766,0.144-0.878,0.431
  			s-0.169,1.061-0.169,2.321v1.637H354.803z"/>
  		<path fill="#231F20" d="M370.686,261.661l-0.271,2.945c0.99-2.108,2.425-3.226,4.304-3.35v7.882c-1.248,0-2.166,0.169-2.751,0.507
  			c-0.585,0.337-0.945,0.808-1.08,1.409c-0.136,0.602-0.202,1.989-0.202,4.16v8.845h-6.819v-22.398H370.686z"/>
  		<path fill="#231F20" d="M391.75,256.733v27.326h-6.819v-1.625c-0.653,0.677-1.339,1.185-2.06,1.522
  			c-0.72,0.338-1.474,0.508-2.262,0.508c-1.058,0-1.975-0.278-2.751-0.836c-0.776-0.557-1.274-1.201-1.493-1.933
  			c-0.22-0.731-0.33-1.924-0.33-3.578v-10.481c0-1.722,0.11-2.942,0.33-3.663c0.219-0.72,0.723-1.353,1.51-1.898
  			c0.788-0.546,1.728-0.818,2.819-0.818c0.844,0,1.617,0.152,2.321,0.456c0.703,0.305,1.342,0.762,1.915,1.371v-6.351H391.75z
  			 M384.931,267.298c0-0.821-0.07-1.372-0.211-1.654c-0.141-0.28-0.419-0.422-0.835-0.422c-0.406,0-0.679,0.127-0.819,0.38
  			s-0.211,0.818-0.211,1.696v10.972c0,0.911,0.067,1.511,0.202,1.797c0.136,0.287,0.395,0.431,0.777,0.431
  			c0.438,0,0.73-0.16,0.877-0.48c0.146-0.321,0.22-1.106,0.22-2.355V267.298z"/>
  	</g>
  	<g enable-background="new    ">
  		<path fill="none" stroke="#FFFFFF" stroke-width="12" stroke-linejoin="round" d="M198.135,268.632h-7.106v-4.75
  			c0-1.381-0.076-2.242-0.228-2.585s-0.487-0.514-1.004-0.514c-0.585,0-0.957,0.208-1.114,0.624
  			c-0.158,0.417-0.236,1.316-0.236,2.701v12.692c0,1.328,0.079,2.194,0.236,2.6c0.157,0.404,0.512,0.607,1.063,0.607
  			c0.529,0,0.875-0.203,1.038-0.609s0.245-1.359,0.245-2.859v-3.435h7.106v1.064c0,2.829-0.2,4.835-0.6,6.018
  			c-0.399,1.184-1.283,2.221-2.65,3.11c-1.367,0.891-3.052,1.336-5.055,1.336c-2.082,0-3.797-0.378-5.148-1.131
  			c-1.35-0.754-2.245-1.798-2.684-3.131c-0.439-1.334-0.658-3.34-0.658-6.018v-7.983c0-1.97,0.067-3.446,0.203-4.431
  			c0.135-0.984,0.537-1.933,1.207-2.845c0.669-0.911,1.598-1.629,2.785-2.151c1.187-0.523,2.551-0.785,4.093-0.785
  			c2.093,0,3.82,0.404,5.182,1.214c1.361,0.809,2.256,1.817,2.684,3.025c0.427,1.208,0.642,3.087,0.642,5.638V268.632z"/>
  		<path fill="none" stroke="#FFFFFF" stroke-width="12" stroke-linejoin="round" d="M215.908,269.527v5.485
  			c0,2.015-0.102,3.491-0.305,4.431c-0.201,0.939-0.635,1.817-1.299,2.633c-0.664,0.816-1.517,1.418-2.557,1.807
  			c-1.041,0.388-2.237,0.582-3.588,0.582c-1.508,0-2.785-0.166-3.831-0.498s-1.859-0.833-2.438-1.502
  			c-0.58-0.67-0.994-1.479-1.24-2.431c-0.249-0.951-0.372-2.377-0.372-4.279v-5.738c0-2.082,0.226-3.708,0.675-4.878
  			c0.45-1.17,1.26-2.11,2.431-2.818c1.171-0.709,2.667-1.063,4.489-1.063c1.531,0,2.845,0.228,3.941,0.684
  			c1.098,0.455,1.944,1.049,2.541,1.78c0.596,0.731,1.004,1.485,1.223,2.262C215.799,266.758,215.908,267.94,215.908,269.527z
  			 M209.089,267.838c0-1.147-0.062-1.87-0.186-2.169c-0.124-0.298-0.388-0.447-0.794-0.447c-0.404,0-0.674,0.149-0.81,0.447
  			c-0.135,0.299-0.202,1.021-0.202,2.169v10.11c0,1.058,0.067,1.747,0.202,2.068c0.136,0.32,0.399,0.48,0.794,0.48
  			c0.404,0,0.672-0.146,0.801-0.438s0.194-0.923,0.194-1.891V267.838z"/>
  		<path fill="none" stroke="#FFFFFF" stroke-width="12" stroke-linejoin="round" d="M224.887,261.661l-0.117,2.132
  			c0.528-0.846,1.158-1.479,1.891-1.902c0.73-0.423,1.563-0.634,2.498-0.634c1.822,0,3.257,0.845,4.304,2.536
  			c0.573-0.846,1.221-1.479,1.94-1.902c0.721-0.423,1.52-0.634,2.396-0.634c1.16,0,2.119,0.281,2.879,0.844s1.246,1.252,1.459,2.067
  			c0.215,0.816,0.321,2.141,0.321,3.975v15.917h-6.616v-14.6c0-1.913-0.064-3.098-0.194-3.554c-0.13-0.455-0.431-0.684-0.903-0.684
  			c-0.483,0-0.796,0.226-0.937,0.676s-0.211,1.637-0.211,3.562v14.6h-6.616v-14.229c0-2.194-0.054-3.511-0.16-3.95
  			c-0.107-0.438-0.402-0.658-0.887-0.658c-0.304,0-0.562,0.116-0.776,0.347s-0.332,0.512-0.354,0.844s-0.033,1.038-0.033,2.118
  			v15.528h-6.617v-22.398H224.887z"/>
  		<path fill="none" stroke="#FFFFFF" stroke-width="12" stroke-linejoin="round" d="M251.741,261.661l-0.118,1.979
  			c0.607-0.8,1.277-1.397,2.009-1.792s1.53-0.592,2.396-0.592c1.058,0,1.972,0.284,2.743,0.852c0.771,0.568,1.252,1.225,1.443,1.967
  			c0.191,0.743,0.287,2.003,0.287,3.781v9.435c0,2.037-0.121,3.485-0.363,4.347c-0.242,0.86-0.737,1.547-1.486,2.059
  			c-0.748,0.513-1.65,0.769-2.709,0.769c-0.844,0-1.625-0.197-2.346-0.592s-1.379-0.98-1.975-1.759v5.136h-6.818v-25.589H251.741z
  			 M253.682,268.176c0-1.384-0.05-2.223-0.151-2.515c-0.101-0.293-0.382-0.439-0.844-0.439c-0.45,0-0.74,0.169-0.869,0.507
  			c-0.13,0.338-0.194,1.153-0.194,2.447v9.283c0,1.351,0.067,2.194,0.203,2.532c0.135,0.337,0.427,0.506,0.877,0.506
  			c0.439,0,0.712-0.154,0.818-0.464c0.107-0.31,0.16-1.061,0.16-2.254V268.176z"/>
  		<path fill="none" stroke="#FFFFFF" stroke-width="12" stroke-linejoin="round" d="M278.36,261.661v22.398h-6.938l0.118-1.861
  			c-0.473,0.756-1.056,1.322-1.747,1.7c-0.691,0.377-1.488,0.566-2.389,0.566c-1.023,0-1.873-0.181-2.549-0.54
  			c-0.675-0.36-1.173-0.839-1.493-1.435c-0.321-0.597-0.521-1.219-0.6-1.865c-0.079-0.647-0.118-1.933-0.118-3.857v-15.106h6.819
  			v15.242c0,1.744,0.054,2.779,0.16,3.105s0.396,0.489,0.869,0.489c0.507,0,0.808-0.169,0.903-0.506
  			c0.096-0.338,0.144-1.424,0.144-3.258v-15.073H278.36z"/>
  		<path fill="none" stroke="#FFFFFF" stroke-width="12" stroke-linejoin="round" d="M287.996,258.673v3.528h1.84v3.544h-1.84v11.984
  			c0,1.474,0.076,2.295,0.229,2.464c0.151,0.169,0.785,0.253,1.898,0.253v3.612h-2.751c-1.554,0-2.661-0.064-3.325-0.194
  			c-0.664-0.129-1.249-0.428-1.756-0.895c-0.506-0.467-0.821-1.001-0.945-1.604c-0.123-0.602-0.186-2.017-0.186-4.245v-11.376
  			h-1.469v-3.544h1.469v-3.528H287.996z"/>
  		<path fill="none" stroke="#FFFFFF" stroke-width="12" stroke-linejoin="round" d="M306.782,273.256h-8.827v4.845
  			c0,1.013,0.072,1.665,0.219,1.958s0.428,0.438,0.844,0.438c0.518,0,0.863-0.194,1.039-0.582c0.174-0.389,0.262-1.14,0.262-2.254
  			v-2.953h6.464v1.654c0,1.384-0.087,2.447-0.262,3.189c-0.175,0.743-0.582,1.536-1.224,2.38c-0.641,0.844-1.455,1.478-2.439,1.899
  			s-2.219,0.633-3.704,0.633c-1.44,0-2.712-0.209-3.815-0.625c-1.102-0.416-1.96-0.987-2.573-1.713s-1.038-1.524-1.274-2.396
  			s-0.354-2.141-0.354-3.807v-6.532c0-1.957,0.265-3.502,0.794-4.633c0.528-1.131,1.395-1.997,2.599-2.6
  			c1.204-0.602,2.588-0.902,4.152-0.902c1.913,0,3.491,0.362,4.734,1.088c1.243,0.727,2.115,1.688,2.616,2.887
  			c0.5,1.198,0.751,2.884,0.751,5.055V273.256z M299.947,269.611v-1.637c0-1.159-0.062-1.907-0.186-2.245s-0.377-0.507-0.759-0.507
  			c-0.473,0-0.766,0.144-0.879,0.431c-0.112,0.287-0.168,1.061-0.168,2.321v1.637H299.947z"/>
  		<path fill="none" stroke="#FFFFFF" stroke-width="12" stroke-linejoin="round" d="M315.829,261.661l-0.271,2.945
  			c0.99-2.108,2.426-3.226,4.305-3.35v7.882c-1.249,0-2.166,0.169-2.752,0.507c-0.584,0.337-0.945,0.808-1.08,1.409
  			s-0.202,1.989-0.202,4.16v8.845h-6.819v-22.398H315.829z"/>
  		<path fill="none" stroke="#FFFFFF" stroke-width="12" stroke-linejoin="round" d="M343.544,256.733v27.326h-6.228l-3.697-12.423
  			v12.423h-5.941v-27.326h5.941l3.983,12.304v-12.304H343.544z"/>
  		<path fill="none" stroke="#FFFFFF" stroke-width="12" stroke-linejoin="round" d="M361.639,273.256h-8.828v4.845
  			c0,1.013,0.073,1.665,0.22,1.958c0.146,0.293,0.427,0.438,0.844,0.438c0.518,0,0.863-0.194,1.038-0.582
  			c0.174-0.389,0.262-1.14,0.262-2.254v-2.953h6.465v1.654c0,1.384-0.088,2.447-0.262,3.189c-0.175,0.743-0.582,1.536-1.225,2.38
  			c-0.641,0.844-1.454,1.478-2.438,1.899c-0.985,0.422-2.22,0.633-3.704,0.633c-1.441,0-2.713-0.209-3.815-0.625
  			s-1.96-0.987-2.573-1.713s-1.039-1.524-1.275-2.396s-0.354-2.141-0.354-3.807v-6.532c0-1.957,0.264-3.502,0.793-4.633
  			s1.395-1.997,2.6-2.6c1.203-0.602,2.588-0.902,4.152-0.902c1.912,0,3.49,0.362,4.734,1.088c1.242,0.727,2.115,1.688,2.615,2.887
  			c0.501,1.198,0.752,2.884,0.752,5.055V273.256z M354.803,269.611v-1.637c0-1.159-0.062-1.907-0.186-2.245
  			c-0.125-0.338-0.377-0.507-0.76-0.507c-0.473,0-0.766,0.144-0.878,0.431s-0.169,1.061-0.169,2.321v1.637H354.803z"/>
  		<path fill="none" stroke="#FFFFFF" stroke-width="12" stroke-linejoin="round" d="M370.686,261.661l-0.271,2.945
  			c0.99-2.108,2.425-3.226,4.304-3.35v7.882c-1.248,0-2.166,0.169-2.751,0.507c-0.585,0.337-0.945,0.808-1.08,1.409
  			c-0.136,0.602-0.202,1.989-0.202,4.16v8.845h-6.819v-22.398H370.686z"/>
  		<path fill="none" stroke="#FFFFFF" stroke-width="12" stroke-linejoin="round" d="M391.75,256.733v27.326h-6.819v-1.625
  			c-0.653,0.677-1.339,1.185-2.06,1.522c-0.72,0.338-1.474,0.508-2.262,0.508c-1.058,0-1.975-0.278-2.751-0.836
  			c-0.776-0.557-1.274-1.201-1.493-1.933c-0.22-0.731-0.33-1.924-0.33-3.578v-10.481c0-1.722,0.11-2.942,0.33-3.663
  			c0.219-0.72,0.723-1.353,1.51-1.898c0.788-0.546,1.728-0.818,2.819-0.818c0.844,0,1.617,0.152,2.321,0.456
  			c0.703,0.305,1.342,0.762,1.915,1.371v-6.351H391.75z M384.931,267.298c0-0.821-0.07-1.372-0.211-1.654
  			c-0.141-0.28-0.419-0.422-0.835-0.422c-0.406,0-0.679,0.127-0.819,0.38s-0.211,0.818-0.211,1.696v10.972
  			c0,0.911,0.067,1.511,0.202,1.797c0.136,0.287,0.395,0.431,0.777,0.431c0.438,0,0.73-0.16,0.877-0.48
  			c0.146-0.321,0.22-1.106,0.22-2.355V267.298z"/>
  	</g>
  	<g enable-background="new    ">
  		<path fill="#231F20" d="M53.94,196.808l-5.299,45.77H33.781c-1.36-7.031-2.561-15.032-3.602-24.001
  			c-0.475,3.846-1.582,11.846-3.32,24.001H12.085l-5.328-45.77H18.32l1.257,15.97l1.216,15.438
  			c0.439-7.989,1.536-18.458,3.291-31.408h12.359c0.165,1.339,0.597,6.371,1.298,15.097l1.314,17.414
  			c0.677-11.079,1.784-21.916,3.322-32.511H53.94z"/>
  		<path fill="#231F20" d="M67.707,196.808v5.966h-11.76v-5.966H67.707z M67.707,205.063v37.515h-11.76v-37.515H67.707z"/>
  		<path fill="#231F20" d="M83.567,196.808v45.77h-11.76v-45.77H83.567z"/>
  		<path fill="#231F20" d="M99.426,196.808v45.77h-11.76v-45.77H99.426z"/>
  		<path fill="#231F20" d="M115.285,196.808v5.966h-11.76v-5.966H115.285z M115.285,205.063v37.515h-11.76v-37.515H115.285z"/>
  		<path fill="#231F20" d="M129.59,219.594h-10.714v-2.517c0-2.901,0.334-5.14,1.004-6.714c0.668-1.573,2.011-2.963,4.028-4.17
  			c2.017-1.205,4.636-1.809,7.859-1.809c3.863,0,6.775,0.683,8.736,2.049c1.959,1.367,3.138,3.044,3.534,5.032
  			c0.396,1.989,0.594,6.083,0.594,12.283v18.828h-11.11v-3.343c-0.697,1.341-1.597,2.346-2.7,3.016s-2.417,1.006-3.944,1.006
  			c-1.998,0-3.831-0.562-5.499-1.683s-2.502-3.576-2.502-7.364v-3.081c0-2.809,0.443-4.722,1.329-5.739
  			c0.885-1.018,3.081-2.205,6.587-3.562c3.75-1.47,5.757-2.46,6.021-2.969c0.264-0.509,0.396-1.545,0.396-3.109
  			c0-1.96-0.146-3.237-0.438-3.831c-0.292-0.594-0.777-0.89-1.456-0.89c-0.773,0-1.253,0.25-1.442,0.749s-0.283,1.795-0.283,3.887
  			V219.594z M133.209,224.74c-1.828,1.338-2.888,2.459-3.18,3.363c-0.292,0.905-0.438,2.205-0.438,3.901
  			c0,1.941,0.127,3.194,0.382,3.76s0.758,0.849,1.512,0.849c0.716,0,1.183-0.222,1.399-0.664c0.217-0.443,0.325-1.606,0.325-3.492
  			V224.74z"/>
  		<path fill="#231F20" d="M159.839,205.063l-0.198,3.569c0.886-1.416,1.941-2.478,3.167-3.186c1.225-0.708,2.619-1.062,4.184-1.062
  			c3.053,0,5.456,1.416,7.209,4.247c0.961-1.416,2.045-2.478,3.251-3.186s2.544-1.062,4.015-1.062c1.941,0,3.548,0.471,4.82,1.413
  			s2.087,2.097,2.445,3.463c0.358,1.367,0.537,3.586,0.537,6.658v26.658h-11.082v-24.453c0-3.204-0.109-5.188-0.325-5.951
  			c-0.217-0.764-0.721-1.145-1.513-1.145c-0.811,0-1.333,0.377-1.569,1.13c-0.236,0.755-0.354,2.742-0.354,5.966v24.453h-11.082
  			v-23.832c0-3.675-0.09-5.88-0.269-6.614c-0.18-0.735-0.674-1.103-1.484-1.103c-0.509,0-0.942,0.193-1.3,0.579
  			c-0.358,0.387-0.556,0.857-0.594,1.413c-0.038,0.557-0.057,1.739-0.057,3.548v26.009h-11.082v-37.515H159.839z"/>
  		<path fill="#231F20" d="M228.959,210.661h-11.054v-3.393c0-1.583-0.142-2.591-0.425-3.024c-0.282-0.434-0.754-0.65-1.413-0.65
  			c-0.716,0-1.258,0.293-1.626,0.877c-0.367,0.585-0.551,1.472-0.551,2.659c0,1.527,0.207,2.679,0.62,3.451
  			c0.394,0.773,1.515,1.707,3.362,2.799c5.299,3.145,8.635,5.725,10.012,7.741c1.375,2.017,2.063,5.268,2.063,9.753
  			c0,3.261-0.382,5.664-1.146,7.209c-0.763,1.546-2.238,2.842-4.424,3.888c-2.187,1.046-4.73,1.568-7.633,1.568
  			c-3.186,0-5.904-0.604-8.156-1.809c-2.252-1.206-3.727-2.742-4.424-4.608s-1.046-4.514-1.046-7.944v-2.996h11.054v5.569
  			c0,1.715,0.155,2.817,0.467,3.308c0.311,0.49,0.861,0.734,1.653,0.734s1.38-0.311,1.767-0.933s0.58-1.545,0.58-2.771
  			c0-2.694-0.368-4.457-1.104-5.286c-0.754-0.829-2.609-2.215-5.568-4.156c-2.959-1.96-4.92-3.383-5.881-4.269
  			s-1.758-2.11-2.389-3.675s-0.947-3.562-0.947-5.993c0-3.506,0.447-6.068,1.344-7.689c0.895-1.621,2.342-2.888,4.339-3.803
  			c1.997-0.914,4.41-1.371,7.237-1.371c3.091,0,5.725,0.5,7.901,1.498c2.177,1,3.618,2.258,4.325,3.774
  			c0.707,1.518,1.061,4.095,1.061,7.731V210.661z"/>
  		<path fill="#231F20" d="M244.762,196.808v10.298c0.979-0.907,2.04-1.587,3.18-2.041c1.141-0.453,2.361-0.68,3.662-0.68
  			c1.997,0,3.698,0.509,5.102,1.526c1.404,1.018,2.262,2.19,2.573,3.52s0.466,3.756,0.466,7.279v25.867h-11.42v-26.404
  			c0-2.186-0.109-3.59-0.326-4.212s-0.701-0.933-1.455-0.933c-0.697,0-1.169,0.32-1.414,0.961c-0.244,0.641-0.367,1.913-0.367,3.816
  			v26.771h-11.421v-45.77H244.762z"/>
  		<path fill="#231F20" d="M289.513,218.237v9.188c0,3.373-0.169,5.847-0.509,7.421c-0.34,1.573-1.064,3.044-2.177,4.41
  			s-2.54,2.374-4.282,3.024c-1.744,0.65-3.746,0.976-6.008,0.976c-2.525,0-4.664-0.278-6.418-0.834
  			c-1.752-0.556-3.114-1.395-4.084-2.517c-0.971-1.121-1.664-2.478-2.078-4.07c-0.415-1.593-0.622-3.981-0.622-7.167v-9.611
  			c0-3.486,0.376-6.21,1.131-8.17c0.753-1.96,2.11-3.534,4.071-4.722c1.959-1.187,4.467-1.78,7.52-1.78
  			c2.562,0,4.764,0.381,6.601,1.145c1.838,0.764,3.256,1.758,4.255,2.982c0.998,1.226,1.682,2.488,2.049,3.788
  			C289.329,213.601,289.513,215.58,289.513,218.237z M278.092,215.411c0-1.923-0.104-3.134-0.311-3.633
  			c-0.208-0.499-0.65-0.749-1.329-0.749s-1.131,0.25-1.356,0.749c-0.227,0.499-0.34,1.71-0.34,3.633v16.934
  			c0,1.771,0.113,2.926,0.34,3.463c0.226,0.537,0.668,0.806,1.328,0.806c0.679,0,1.126-0.245,1.343-0.735
  			c0.216-0.489,0.325-1.545,0.325-3.166V215.411z"/>
  		<path fill="#231F20" d="M316.596,217.05h-10.121v-2.036c0-1.733-0.099-2.831-0.297-3.293c-0.197-0.462-0.692-0.692-1.484-0.692
  			c-0.641,0-1.121,0.212-1.441,0.636s-0.48,1.06-0.48,1.908c0,1.149,0.08,1.993,0.24,2.53s0.641,1.126,1.441,1.767
  			s2.445,1.574,4.934,2.799c3.316,1.621,5.494,3.147,6.53,4.58c1.036,1.432,1.555,3.515,1.555,6.247
  			c0,3.054-0.396,5.357-1.187,6.912c-0.792,1.555-2.117,2.752-3.973,3.591c-1.856,0.838-4.095,1.258-6.714,1.258
  			c-2.903,0-5.386-0.452-7.449-1.357c-2.063-0.904-3.481-2.129-4.255-3.675c-0.773-1.545-1.158-3.882-1.158-7.011v-1.81h10.12v2.375
  			c0,2.017,0.127,3.326,0.382,3.93c0.254,0.603,0.758,0.904,1.512,0.904c0.811,0,1.376-0.202,1.697-0.608
  			c0.319-0.404,0.48-1.258,0.48-2.558c0-1.791-0.208-2.912-0.623-3.364c-0.434-0.452-2.647-1.79-6.643-4.015
  			c-3.355-1.884-5.4-3.595-6.135-5.131c-0.735-1.536-1.103-3.359-1.103-5.471c0-2.996,0.396-5.206,1.187-6.629
  			c0.792-1.423,2.135-2.521,4.029-3.293c1.895-0.773,4.094-1.159,6.602-1.159c2.487,0,4.603,0.315,6.346,0.946
  			c1.743,0.632,3.082,1.466,4.015,2.502c0.933,1.037,1.498,1.998,1.696,2.884c0.197,0.886,0.297,2.271,0.297,4.156V217.05z"/>
  		<path fill="#231F20" d="M332.569,200.06v5.908h3.081v5.937h-3.081v20.071c0,2.47,0.127,3.845,0.381,4.128
  			c0.255,0.282,1.314,0.424,3.182,0.424v6.05h-4.609c-2.6,0-4.457-0.108-5.568-0.325c-1.112-0.217-2.092-0.716-2.939-1.498
  			c-0.849-0.782-1.377-1.678-1.584-2.686s-0.311-3.379-0.311-7.11v-19.054h-2.46v-5.937h2.46v-5.908H332.569z"/>
  		<path fill="#231F20" d="M348.371,219.594h-10.715v-2.517c0-2.901,0.335-5.14,1.004-6.714c0.669-1.573,2.012-2.963,4.029-4.17
  			c2.016-1.205,4.636-1.809,7.858-1.809c3.863,0,6.775,0.683,8.735,2.049c1.96,1.367,3.139,3.044,3.534,5.032
  			c0.396,1.989,0.594,6.083,0.594,12.283v18.828h-11.11v-3.343c-0.697,1.341-1.598,2.346-2.699,3.016
  			c-1.104,0.67-2.418,1.006-3.944,1.006c-1.997,0-3.831-0.562-5.499-1.683s-2.502-3.576-2.502-7.364v-3.081
  			c0-2.809,0.443-4.722,1.33-5.739c0.885-1.018,3.08-2.205,6.586-3.562c3.75-1.47,5.758-2.46,6.021-2.969s0.396-1.545,0.396-3.109
  			c0-1.96-0.146-3.237-0.438-3.831s-0.777-0.89-1.456-0.89c-0.773,0-1.254,0.25-1.441,0.749c-0.189,0.499-0.283,1.795-0.283,3.887
  			V219.594z M351.99,224.74c-1.828,1.338-2.889,2.459-3.181,3.363c-0.292,0.905-0.438,2.205-0.438,3.901
  			c0,1.941,0.127,3.194,0.382,3.76s0.759,0.849,1.513,0.849c0.716,0,1.182-0.222,1.398-0.664c0.217-0.443,0.326-1.606,0.326-3.492
  			V224.74z"/>
  		<path fill="#231F20" d="M391.936,205.063l-4.637,14.941l6.021,22.573h-10.982l-3.562-16.351l-0.014,16.351H367.34v-45.77h11.422
  			l0.014,19.214l3.562-10.959H391.936z"/>
  	</g>
  	<g enable-background="new    ">
  		<path fill="#231F20" d="M198.135,268.632h-7.106v-4.75c0-1.381-0.076-2.242-0.228-2.585s-0.487-0.514-1.004-0.514
  			c-0.585,0-0.957,0.208-1.114,0.624c-0.158,0.417-0.236,1.316-0.236,2.701v12.692c0,1.328,0.079,2.194,0.236,2.6
  			c0.157,0.404,0.512,0.607,1.063,0.607c0.529,0,0.875-0.203,1.038-0.609s0.245-1.359,0.245-2.859v-3.435h7.106v1.064
  			c0,2.829-0.2,4.835-0.6,6.018c-0.399,1.184-1.283,2.221-2.65,3.11c-1.367,0.891-3.052,1.336-5.055,1.336
  			c-2.082,0-3.797-0.378-5.148-1.131c-1.35-0.754-2.245-1.798-2.684-3.131c-0.439-1.334-0.658-3.34-0.658-6.018v-7.983
  			c0-1.97,0.067-3.446,0.203-4.431c0.135-0.984,0.537-1.933,1.207-2.845c0.669-0.911,1.598-1.629,2.785-2.151
  			c1.187-0.523,2.551-0.785,4.093-0.785c2.093,0,3.82,0.404,5.182,1.214c1.361,0.809,2.256,1.817,2.684,3.025
  			c0.427,1.208,0.642,3.087,0.642,5.638V268.632z"/>
  		<path fill="#231F20" d="M215.908,269.527v5.485c0,2.015-0.102,3.491-0.305,4.431c-0.201,0.939-0.635,1.817-1.299,2.633
  			c-0.664,0.816-1.517,1.418-2.557,1.807c-1.041,0.388-2.237,0.582-3.588,0.582c-1.508,0-2.785-0.166-3.831-0.498
  			s-1.859-0.833-2.438-1.502c-0.58-0.67-0.994-1.479-1.24-2.431c-0.249-0.951-0.372-2.377-0.372-4.279v-5.738
  			c0-2.082,0.226-3.708,0.675-4.878c0.45-1.17,1.26-2.11,2.431-2.818c1.171-0.709,2.667-1.063,4.489-1.063
  			c1.531,0,2.845,0.228,3.941,0.684c1.098,0.455,1.944,1.049,2.541,1.78c0.596,0.731,1.004,1.485,1.223,2.262
  			C215.799,266.758,215.908,267.94,215.908,269.527z M209.089,267.838c0-1.147-0.062-1.87-0.186-2.169
  			c-0.124-0.298-0.388-0.447-0.794-0.447c-0.404,0-0.674,0.149-0.81,0.447c-0.135,0.299-0.202,1.021-0.202,2.169v10.11
  			c0,1.058,0.067,1.747,0.202,2.068c0.136,0.32,0.399,0.48,0.794,0.48c0.404,0,0.672-0.146,0.801-0.438s0.194-0.923,0.194-1.891
  			V267.838z"/>
  		<path fill="#231F20" d="M224.887,261.661l-0.117,2.132c0.528-0.846,1.158-1.479,1.891-1.902c0.73-0.423,1.563-0.634,2.498-0.634
  			c1.822,0,3.257,0.845,4.304,2.536c0.573-0.846,1.221-1.479,1.94-1.902c0.721-0.423,1.52-0.634,2.396-0.634
  			c1.16,0,2.119,0.281,2.879,0.844s1.246,1.252,1.459,2.067c0.215,0.816,0.321,2.141,0.321,3.975v15.917h-6.616v-14.6
  			c0-1.913-0.064-3.098-0.194-3.554c-0.13-0.455-0.431-0.684-0.903-0.684c-0.483,0-0.796,0.226-0.937,0.676
  			s-0.211,1.637-0.211,3.562v14.6h-6.616v-14.229c0-2.194-0.054-3.511-0.16-3.95c-0.107-0.438-0.402-0.658-0.887-0.658
  			c-0.304,0-0.562,0.116-0.776,0.347s-0.332,0.512-0.354,0.844s-0.033,1.038-0.033,2.118v15.528h-6.617v-22.398H224.887z"/>
  		<path fill="#231F20" d="M251.741,261.661l-0.118,1.979c0.607-0.8,1.277-1.397,2.009-1.792s1.53-0.592,2.396-0.592
  			c1.058,0,1.972,0.284,2.743,0.852c0.771,0.568,1.252,1.225,1.443,1.967c0.191,0.743,0.287,2.003,0.287,3.781v9.435
  			c0,2.037-0.121,3.485-0.363,4.347c-0.242,0.86-0.737,1.547-1.486,2.059c-0.748,0.513-1.65,0.769-2.709,0.769
  			c-0.844,0-1.625-0.197-2.346-0.592s-1.379-0.98-1.975-1.759v5.136h-6.818v-25.589H251.741z M253.682,268.176
  			c0-1.384-0.05-2.223-0.151-2.515c-0.101-0.293-0.382-0.439-0.844-0.439c-0.45,0-0.74,0.169-0.869,0.507
  			c-0.13,0.338-0.194,1.153-0.194,2.447v9.283c0,1.351,0.067,2.194,0.203,2.532c0.135,0.337,0.427,0.506,0.877,0.506
  			c0.439,0,0.712-0.154,0.818-0.464c0.107-0.31,0.16-1.061,0.16-2.254V268.176z"/>
  		<path fill="#231F20" d="M278.36,261.661v22.398h-6.938l0.118-1.861c-0.473,0.756-1.056,1.322-1.747,1.7
  			c-0.691,0.377-1.488,0.566-2.389,0.566c-1.023,0-1.873-0.181-2.549-0.54c-0.675-0.36-1.173-0.839-1.493-1.435
  			c-0.321-0.597-0.521-1.219-0.6-1.865c-0.079-0.647-0.118-1.933-0.118-3.857v-15.106h6.819v15.242c0,1.744,0.054,2.779,0.16,3.105
  			s0.396,0.489,0.869,0.489c0.507,0,0.808-0.169,0.903-0.506c0.096-0.338,0.144-1.424,0.144-3.258v-15.073H278.36z"/>
  		<path fill="#231F20" d="M287.996,258.673v3.528h1.84v3.544h-1.84v11.984c0,1.474,0.076,2.295,0.229,2.464
  			c0.151,0.169,0.785,0.253,1.898,0.253v3.612h-2.751c-1.554,0-2.661-0.064-3.325-0.194c-0.664-0.129-1.249-0.428-1.756-0.895
  			c-0.506-0.467-0.821-1.001-0.945-1.604c-0.123-0.602-0.186-2.017-0.186-4.245v-11.376h-1.469v-3.544h1.469v-3.528H287.996z"/>
  		<path fill="#231F20" d="M306.782,273.256h-8.827v4.845c0,1.013,0.072,1.665,0.219,1.958s0.428,0.438,0.844,0.438
  			c0.518,0,0.863-0.194,1.039-0.582c0.174-0.389,0.262-1.14,0.262-2.254v-2.953h6.464v1.654c0,1.384-0.087,2.447-0.262,3.189
  			c-0.175,0.743-0.582,1.536-1.224,2.38c-0.641,0.844-1.455,1.478-2.439,1.899s-2.219,0.633-3.704,0.633
  			c-1.44,0-2.712-0.209-3.815-0.625c-1.102-0.416-1.96-0.987-2.573-1.713s-1.038-1.524-1.274-2.396s-0.354-2.141-0.354-3.807v-6.532
  			c0-1.957,0.265-3.502,0.794-4.633c0.528-1.131,1.395-1.997,2.599-2.6c1.204-0.602,2.588-0.902,4.152-0.902
  			c1.913,0,3.491,0.362,4.734,1.088c1.243,0.727,2.115,1.688,2.616,2.887c0.5,1.198,0.751,2.884,0.751,5.055V273.256z
  			 M299.947,269.611v-1.637c0-1.159-0.062-1.907-0.186-2.245s-0.377-0.507-0.759-0.507c-0.473,0-0.766,0.144-0.879,0.431
  			c-0.112,0.287-0.168,1.061-0.168,2.321v1.637H299.947z"/>
  		<path fill="#231F20" d="M315.829,261.661l-0.271,2.945c0.99-2.108,2.426-3.226,4.305-3.35v7.882c-1.249,0-2.166,0.169-2.752,0.507
  			c-0.584,0.337-0.945,0.808-1.08,1.409s-0.202,1.989-0.202,4.16v8.845h-6.819v-22.398H315.829z"/>
  		<path fill="#231F20" d="M343.544,256.733v27.326h-6.228l-3.697-12.423v12.423h-5.941v-27.326h5.941l3.983,12.304v-12.304H343.544z
  			"/>
  		<path fill="#231F20" d="M361.639,273.256h-8.828v4.845c0,1.013,0.073,1.665,0.22,1.958c0.146,0.293,0.427,0.438,0.844,0.438
  			c0.518,0,0.863-0.194,1.038-0.582c0.174-0.389,0.262-1.14,0.262-2.254v-2.953h6.465v1.654c0,1.384-0.088,2.447-0.262,3.189
  			c-0.175,0.743-0.582,1.536-1.225,2.38c-0.641,0.844-1.454,1.478-2.438,1.899c-0.985,0.422-2.22,0.633-3.704,0.633
  			c-1.441,0-2.713-0.209-3.815-0.625s-1.96-0.987-2.573-1.713s-1.039-1.524-1.275-2.396s-0.354-2.141-0.354-3.807v-6.532
  			c0-1.957,0.264-3.502,0.793-4.633s1.395-1.997,2.6-2.6c1.203-0.602,2.588-0.902,4.152-0.902c1.912,0,3.49,0.362,4.734,1.088
  			c1.242,0.727,2.115,1.688,2.615,2.887c0.501,1.198,0.752,2.884,0.752,5.055V273.256z M354.803,269.611v-1.637
  			c0-1.159-0.062-1.907-0.186-2.245c-0.125-0.338-0.377-0.507-0.76-0.507c-0.473,0-0.766,0.144-0.878,0.431
  			s-0.169,1.061-0.169,2.321v1.637H354.803z"/>
  		<path fill="#231F20" d="M370.686,261.661l-0.271,2.945c0.99-2.108,2.425-3.226,4.304-3.35v7.882c-1.248,0-2.166,0.169-2.751,0.507
  			c-0.585,0.337-0.945,0.808-1.08,1.409c-0.136,0.602-0.202,1.989-0.202,4.16v8.845h-6.819v-22.398H370.686z"/>
  		<path fill="#231F20" d="M391.75,256.733v27.326h-6.819v-1.625c-0.653,0.677-1.339,1.185-2.06,1.522
  			c-0.72,0.338-1.474,0.508-2.262,0.508c-1.058,0-1.975-0.278-2.751-0.836c-0.776-0.557-1.274-1.201-1.493-1.933
  			c-0.22-0.731-0.33-1.924-0.33-3.578v-10.481c0-1.722,0.11-2.942,0.33-3.663c0.219-0.72,0.723-1.353,1.51-1.898
  			c0.788-0.546,1.728-0.818,2.819-0.818c0.844,0,1.617,0.152,2.321,0.456c0.703,0.305,1.342,0.762,1.915,1.371v-6.351H391.75z
  			 M384.931,267.298c0-0.821-0.07-1.372-0.211-1.654c-0.141-0.28-0.419-0.422-0.835-0.422c-0.406,0-0.679,0.127-0.819,0.38
  			s-0.211,0.818-0.211,1.696v10.972c0,0.911,0.067,1.511,0.202,1.797c0.136,0.287,0.395,0.431,0.777,0.431
  			c0.438,0,0.73-0.16,0.877-0.48c0.146-0.321,0.22-1.106,0.22-2.355V267.298z"/>
  	</g>
  </g>
</svg>
