<svg version="1.1" id="Layer_1" xmlns="http://www.w3.org/2000/svg" xmlns:xlink="http://www.w3.org/1999/xlink" x="0em" y="0em"
	 width="10.6em" height="8.1em" viewBox="0 0 10.6 8.1" enable-background="new 0 0 10.6 8.1" xml:space="preserve">
	<g>
		<path fill="none" stroke="#FFFFFF" stroke-width="0.3172" stroke-linejoin="round" d="M7.896,4.615
			c0.138-0.137,0.122-0.106,0.122-0.106c0-0.182,0.213-0.228,0.288-0.182C8.383,4.372,8.427,4.455,8.246,4.6
			C8.094,4.723,8.109,4.707,8.109,4.707c-0.267,0.019-0.257,0.06-0.257,0.06L7.896,4.615z"/>
		<path fill="none" stroke="#FFFFFF" stroke-width="0.3172" stroke-linejoin="round" d="M4.958,3.552
			c-0.197,0.022-0.775,0.27-0.775,0.27C4.34,4.238,4.286,4.227,4.369,4.557l0.314-0.139c0,0,0.154-0.037,0.202-0.052
			C4.81,4.821,4.86,5.709,4.86,5.709h1.759c0,0,0.071-1.653,0.251-1.686L6.584,3.629C6.537,3.508,6.336,3.403,6.186,3.508H5.29
			C5.123,3.433,5.181,3.392,4.968,3.544L4.958,3.552z"/>
		<path fill="none" stroke="#FFFFFF" stroke-width="0.3172" stroke-linejoin="round" d="M7.891,4.615
			c0.122,0,0.219-0.099,0.219-0.219V3.03c0-0.121-0.097-0.219-0.219-0.219H6.812c-0.12,0-0.219,0.098-0.219,0.219v1.367
			c0,0.12,0.099,0.219,0.219,0.219H7.891z"/>
		<rect x="6.699" y="2.933" fill="none" stroke="#FFFFFF" stroke-width="0.3172" stroke-linejoin="round" width="1.304" height="0.984"/>
		<polygon fill="none" stroke="#FFFFFF" stroke-width="0.3172" stroke-linejoin="round" points="5.518,3.675 5.518,3.326 
			5.987,3.281 5.987,3.66 5.763,4.008 			"/>
		<path fill="none" stroke="#FFFFFF" stroke-width="0.3172" stroke-linejoin="round" d="M6.671,2.104
			c0.079-0.06,0.393-0.309,0.333,0.188C6.943,2.782,6.51,2.93,6.468,2.568c0.04,0.89-1.031,0.808-1.275,0.707
			C4.456,3.35,4.628,2.973,4.667,2.852l-0.05,0.116c-0.285-0.443-0.134-0.799-0.004-0.94c0.021-0.025,0.282-0.369,0.282-0.369
			s-0.108-0.183,0.381-0.83l1.01-0.022l0.472,0.156l0.093,0.349L6.814,1.78L6.671,2.104z"/>
		<path fill="none" stroke="#FFFFFF" stroke-width="0.3172" stroke-linejoin="round" d="M6.75,2.293
			c0.029,0.148-0.045,0.196-0.131,0.205"/>
		<path fill="none" stroke="#FFFFFF" stroke-width="0.3172" stroke-linejoin="round" d="M5.502,3.413
			C5.456,3.594,5.593,3.792,5.637,3.837C5.123,3.701,5.336,3.852,5.32,3.942S5.214,3.625,5.305,3.519
			C5.396,3.413,5.502,3.413,5.502,3.413z"/>
		<path fill="none" stroke="#FFFFFF" stroke-width="0.3172" stroke-linejoin="round" d="M5.987,3.463
			c0.077,0.166-0.137,0.41-0.137,0.41c0.167-0.153,0.273,0.06,0.258,0.151C6.215,3.706,6.186,3.356,5.987,3.463z"/>
		<rect x="6.73" y="4.615" fill="none" stroke="#FFFFFF" stroke-width="0.3172" stroke-linejoin="round" width="1.182" height="0.092"/>
		<path fill="none" stroke="#FFFFFF" stroke-width="0.3172" stroke-linejoin="round" d="M3.06,3.735
			c0.069,0.01,0.134-0.039,0.144-0.108l0.347-2.471c0.009-0.069-0.039-0.133-0.108-0.143l-0.08-0.012
			C3.294,0.992,3.23,1.04,3.22,1.109L2.873,3.581C2.863,3.65,2.911,3.714,2.98,3.724L3.06,3.735z"/>
		<ellipse transform="matrix(-0.721 -0.693 0.693 -0.721 3.7135 6.259)" fill="none" stroke="#FFFFFF" stroke-width="0.3172" stroke-linejoin="round" cx="3.117" cy="2.382" rx="0.271" ry="0.123"/>
		<ellipse transform="matrix(-0.7214 -0.6925 0.6925 -0.7214 3.4656 6.441)" fill="none" stroke="#FFFFFF" stroke-width="0.3172" stroke-linejoin="round" cx="3.028" cy="2.523" rx="0.27" ry="0.123"/>
		<path fill="none" stroke="#FFFFFF" stroke-width="0.3172" stroke-linejoin="round" d="M3.189,2.812
			C3.226,2.763,3.156,2.678,3.033,2.62C2.91,2.56,2.782,2.55,2.746,2.598s0.032,0.139,0.154,0.198
			C3.023,2.854,3.153,2.861,3.189,2.812z"/>
		<path fill="none" stroke="#FFFFFF" stroke-width="0.3172" stroke-linejoin="round" d="M3.012,2.956
			C3.053,2.927,3.02,2.86,2.939,2.811c-0.078-0.05-0.173-0.064-0.213-0.033C2.683,2.809,2.71,2.873,2.787,2.921
			C2.867,2.971,2.968,2.987,3.012,2.956z"/>
		<path fill="none" stroke="#FFFFFF" stroke-width="0.3172" stroke-linejoin="round" d="M5.123,1.481
			c0.054-0.088,0.12-0.263,0.165,0.087"/>
		<path fill="none" stroke="#FFFFFF" stroke-width="0.3172" stroke-linejoin="round" d="M5.061,1.705
			C5.139,1.614,5.274,1.508,5.229,1.78"/>
		<path fill="none" stroke="#FFFFFF" stroke-width="0.3172" stroke-linejoin="round" d="M5.349,1.826
			C5.427,1.72,5.608,1.629,5.593,1.871"/>
		<ellipse transform="matrix(0.2932 -0.9561 0.9561 0.2932 1.951 6.2356)" fill="none" stroke="#FFFFFF" stroke-width="0.3172" stroke-linejoin="round" cx="5.193" cy="1.798" rx="0.092" ry="0.063"/>
		<ellipse transform="matrix(0.2932 -0.9561 0.9561 0.2932 2.1144 6.6499)" fill="none" stroke="#FFFFFF" stroke-width="0.3172" stroke-linejoin="round" cx="5.554" cy="1.895" rx="0.092" ry="0.063"/>
		<path fill="none" stroke="#FFFFFF" stroke-width="0.3172" stroke-linejoin="round" d="M5.229,2.038
			C5.123,2.023,5.107,1.931,5.107,1.931c-0.06,0.137-0.015,0.183-0.015,0.183"/>
		<path fill="none" stroke="#FFFFFF" stroke-width="0.3172" stroke-linejoin="round" d="M5.45,1.581
			c0.143-0.077,0.298-0.129,0.298,0.078"/>
		<path fill="none" stroke="#FFFFFF" stroke-width="0.3172" stroke-linejoin="round" d="M4.887,2.186
			c-0.11,0.126-0.168,0.158-0.168,0.158S5.175,2.65,5.68,2.362"/>
		<line fill="none" stroke="#FFFFFF" stroke-width="0.3172" stroke-linejoin="round" x1="5.618" y1="2.269" x2="5.728" y2="2.424"/>
		<path fill="none" stroke="#FFFFFF" stroke-width="0.3172" stroke-linejoin="round" d="M5.38,0.795c0,0-0.091,0.211,0.334,0.243
			c0.418,0.029,0.525-0.032,0.652,0c0.182,0.045,0.561,0.045,0.288,0.454c-0.272,0.41,0.029,0.561,0.029,0.561l0.122-0.045
			c0.257-0.212,0.5-1.652-1.183-1.41"/>
		<path fill="none" stroke="#FFFFFF" stroke-width="0.3172" stroke-linejoin="round" d="M5.183,0.572
			c0.012,0.124,0.063,0.279,0.21,0.283C5.411,0.858,5.427,0.848,5.431,0.83c0.002-0.017-0.01-0.032-0.025-0.035
			C5.284,0.794,5.252,0.661,5.245,0.563C5.241,0.547,5.226,0.535,5.208,0.537C5.193,0.541,5.181,0.556,5.183,0.572L5.183,0.572z"/>
		<path fill="none" stroke="#FFFFFF" stroke-width="0.3172" stroke-linejoin="round" d="M5.245,0.378
			C5.27,0.563,5.388,0.727,5.558,0.804c0.016,0.007,0.033-0.002,0.039-0.017c0.006-0.017-0.002-0.034-0.017-0.04
			C5.431,0.676,5.324,0.527,5.303,0.362C5.299,0.346,5.282,0.336,5.266,0.342C5.25,0.346,5.241,0.363,5.245,0.378L5.245,0.378z"/>
		<path fill="none" stroke="#FFFFFF" stroke-width="0.3172" stroke-linejoin="round" d="M5.382,0.408
			c0.015,0.185,0.218,0.208,0.354,0.274c0.016,0.006,0.033,0,0.039-0.016c0.007-0.016,0-0.033-0.014-0.041
			C5.645,0.563,5.454,0.56,5.44,0.394C5.437,0.378,5.421,0.368,5.403,0.372C5.388,0.375,5.378,0.392,5.382,0.408L5.382,0.408z"/>
		<path fill="none" stroke="#FFFFFF" stroke-width="0.3172" stroke-linejoin="round" d="M7.221,4.823
			c0.062-0.017,0.074-0.095,0.022-0.175C7.191,4.569,7.096,4.519,7.031,4.536C6.965,4.553,6.953,4.63,7.006,4.709
			C7.058,4.786,7.154,4.838,7.221,4.823z"/>
		<path fill="none" stroke="#FFFFFF" stroke-width="0.3172" stroke-linejoin="round" d="M7.414,4.815
			C7.492,4.8,7.516,4.707,7.464,4.607c-0.05-0.097-0.155-0.161-0.234-0.141C7.15,4.483,7.129,4.573,7.18,4.669
			C7.229,4.765,7.334,4.831,7.414,4.815z"/>
		<path fill="none" stroke="#FFFFFF" stroke-width="0.3172" stroke-linejoin="round" d="M7.594,4.812
			C7.674,4.8,7.713,4.709,7.68,4.605C7.647,4.503,7.555,4.432,7.473,4.445c-0.08,0.012-0.119,0.103-0.086,0.201
			C7.42,4.748,7.512,4.821,7.594,4.812z"/>
		<path fill="none" stroke="#FFFFFF" stroke-width="0.3172" stroke-linejoin="round" d="M7.779,4.804
			c0.082-0.006,0.135-0.097,0.115-0.202C7.877,4.495,7.797,4.418,7.713,4.426C7.63,4.433,7.578,4.522,7.598,4.626
			C7.614,4.73,7.697,4.81,7.779,4.804z"/>
		<path fill="none" stroke="#FFFFFF" stroke-width="0.3172" stroke-linejoin="round" d="M7.154,3.933
			c-0.12-0.304,0.834-0.576,0.334,0.075"/>
		<path fill="none" stroke="#FFFFFF" stroke-width="0.3172" stroke-linejoin="round" d="M7.245,2.962
			c0.03,0.273-0.302,0.41-0.302,0.41"/>
		<path fill="none" stroke="#FFFFFF" stroke-width="0.3172" stroke-linecap="round" stroke-linejoin="round" d="M7.488,2.629
			c-0.016,0.257,0.061,0.773,0.53,0.697"/>
		<path fill="none" stroke="#FFFFFF" stroke-width="0.3172" stroke-linejoin="round" d="M7.275,3.51
			c0.012,0,0.021-0.073,0.021-0.162s-0.01-0.161-0.021-0.161c-0.011,0-0.021,0.072-0.021,0.161S7.265,3.51,7.275,3.51z"/>
		<ellipse fill="none" stroke="#FFFFFF" stroke-width="0.3172" stroke-linejoin="round" cx="7.473" cy="3.334" rx="0.021" ry="0.161"/>
		<line fill="none" stroke="#FFFFFF" stroke-width="0.3172" stroke-linejoin="round" x1="3.425" y1="3.225" x2="3.3" y2="3.291"/>
		<path fill="none" stroke="#FFFFFF" stroke-width="0.3172" stroke-linejoin="round" d="M3.312,3.309
			C3.394,3.65,3.625,4.317,3.625,4.317S3.657,4.532,3.951,4.46c0.193-0.046,0.387-0.085,0.387-0.085
			C4.351,4.261,4.233,3.95,4.233,3.95L4.212,3.963L3.976,4.006C3.901,3.583,3.637,3.182,3.637,3.182
			c0.094-0.359,0.131-0.306,0.036-0.586c-0.054-0.104-0.07-0.007-0.108-0.222C3.548,1.947,3.367,2.118,3.342,2.231
			C3.288,2.477,3.42,2.61,3.42,2.61C3.344,2.517,3.417,2.631,3.353,2.558L3.259,3.277l0.16-0.042L3.31,3.266"/>
		<path fill="none" stroke="#FFFFFF" stroke-width="0.3172" stroke-linejoin="round" d="M3.481,2.624
			C3.417,2.642,3.319,2.767,3.354,2.892"/>
		<line fill="none" stroke="#FFFFFF" stroke-width="0.3172" stroke-linejoin="round" x1="7.322" y1="4.097" x2="7.941" y2="4.097"/>
		<rect x="3.052" y="0.673" transform="matrix(-0.1452 0.9894 -0.9894 -0.1452 4.855 -2.2674)" fill="none" stroke="#FFFFFF" stroke-width="0.2643" stroke-linejoin="round" width="0.71" height="0.582"/>
		<path fill="none" stroke="#FFFFFF" stroke-width="0.2643" stroke-linejoin="round" d="M3.739,0.667
			C3.801,0.786,4.28,0.862,4.332,0.759L4.565,0.8C4.6,1.063,4.499,1.25,4.499,1.25L4.276,1.218c-0.164-0.178-0.374-0.209-0.6-0.131
			L3.739,0.667z"/>
		<path fill="none" stroke="#FFFFFF" stroke-width="0.2643" stroke-linejoin="round" d="M3.219,0.578c0,0-0.581-0.056-0.993,0.704
			c0.195-0.124,0.477-0.572,0.941-0.363L3.219,0.578z"/>
		<path fill="#EFD9BE" stroke="#000000" stroke-width="0.0793" stroke-linecap="round" stroke-linejoin="round" d="M7.896,4.617
			C8.034,4.48,8.019,4.511,8.019,4.511c0-0.182,0.213-0.228,0.288-0.182c0.076,0.044,0.12,0.127-0.061,0.272
			C8.094,4.724,8.109,4.709,8.109,4.709c-0.267,0.019-0.257,0.06-0.257,0.06L7.896,4.617z"/>
		<path fill="#214290" stroke="#000000" stroke-width="0.0793" stroke-linecap="round" stroke-linejoin="round" d="M4.958,3.554
			c-0.197,0.021-0.775,0.27-0.775,0.27C4.34,4.24,4.286,4.229,4.37,4.559L4.683,4.42c0,0,0.154-0.037,0.202-0.054
			C4.81,4.823,4.86,5.711,4.86,5.711h1.759c0,0,0.071-1.653,0.251-1.686L6.584,3.631C6.537,3.51,6.336,3.404,6.186,3.51H5.29
			C5.123,3.434,5.181,3.393,4.968,3.546L4.958,3.554z"/>
		<path fill="#FFFFFF" stroke="#000000" stroke-width="0.0793" stroke-linecap="round" stroke-linejoin="round" d="M7.891,4.617
			c0.122,0,0.219-0.099,0.219-0.219V3.031c0-0.122-0.097-0.218-0.219-0.218H6.812c-0.12,0-0.219,0.097-0.219,0.218v1.367
			c0,0.12,0.099,0.219,0.219,0.219H7.891z"/>
		<rect x="6.699" y="2.934" fill="#76BE43" stroke="#000000" stroke-width="0.0793" stroke-linecap="round" stroke-linejoin="round" width="1.304" height="0.985"/>
		<polygon fill="#EFD9BE" stroke="#000000" stroke-width="0.0793" stroke-linecap="round" stroke-linejoin="round" points="
			5.518,3.677 5.518,3.327 5.987,3.283 5.987,3.662 5.763,4.01 			"/>
		<path fill="#EFD9BE" stroke="#000000" stroke-width="0.0793" stroke-linecap="round" stroke-linejoin="round" d="M6.671,2.105
			c0.079-0.06,0.393-0.309,0.333,0.188C6.943,2.784,6.51,2.932,6.468,2.57c0.04,0.889-1.031,0.808-1.275,0.707
			C4.456,3.351,4.628,2.975,4.667,2.854L4.617,2.97C4.332,2.527,4.483,2.171,4.613,2.03c0.022-0.025,0.282-0.369,0.282-0.369
			S4.787,1.477,5.276,0.83l1.01-0.022l0.472,0.157l0.093,0.349L6.814,1.782L6.671,2.105z"/>
		<path fill="none" stroke="#000000" stroke-width="0.0793" stroke-linecap="round" stroke-linejoin="round" d="M6.75,2.294
			c0.029,0.149-0.045,0.197-0.131,0.205"/>
		<path fill="#214290" stroke="#000000" stroke-width="0.0793" stroke-linecap="round" stroke-linejoin="round" d="M5.502,3.415
			C5.456,3.596,5.593,3.793,5.637,3.838C5.123,3.703,5.336,3.853,5.32,3.944C5.305,4.035,5.214,3.626,5.305,3.521
			C5.396,3.415,5.502,3.415,5.502,3.415z"/>
		<path fill="#214290" stroke="#000000" stroke-width="0.0793" stroke-linecap="round" stroke-linejoin="round" d="M5.987,3.465
			C6.064,3.631,5.85,3.874,5.85,3.874c0.167-0.152,0.273,0.061,0.258,0.152C6.215,3.707,6.186,3.358,5.987,3.465z"/>
		<rect x="6.73" y="4.617" fill="none" stroke="#000000" stroke-width="0.0793" stroke-linecap="round" stroke-linejoin="round" width="1.182" height="0.092"/>
		<path fill="#64492B" stroke="#000000" stroke-width="0.0793" stroke-linecap="round" stroke-linejoin="round" d="M3.061,3.737
			c0.068,0.01,0.133-0.039,0.143-0.108l0.347-2.471c0.009-0.069-0.039-0.133-0.107-0.143L3.363,1.003
			C3.294,0.994,3.23,1.042,3.22,1.111L2.873,3.583c-0.01,0.07,0.039,0.133,0.108,0.143L3.061,3.737z"/>
		<path fill="#EFD9BE" stroke="#000000" stroke-width="0.0793" stroke-linecap="round" stroke-linejoin="round" d="M3.312,2.57
			c0.047-0.049-0.002-0.173-0.11-0.275C3.095,2.19,2.969,2.146,2.922,2.196c-0.047,0.048,0.002,0.172,0.11,0.275
			S3.265,2.62,3.312,2.57z"/>
		<ellipse transform="matrix(-0.7223 -0.6916 0.6916 -0.7223 3.4683 6.4435)" fill="#EFD9BE" stroke="#000000" stroke-width="0.0793" stroke-linecap="round" stroke-linejoin="round" cx="3.028" cy="2.525" rx="0.27" ry="0.123"/>
		<path fill="#EFD9BE" stroke="#000000" stroke-width="0.0793" stroke-linecap="round" stroke-linejoin="round" d="M3.189,2.813
			C3.226,2.765,3.156,2.68,3.033,2.622C2.911,2.562,2.782,2.551,2.746,2.6C2.709,2.648,2.778,2.739,2.899,2.797
			C3.023,2.856,3.153,2.863,3.189,2.813z"/>
		<path fill="#EFD9BE" stroke="#000000" stroke-width="0.0793" stroke-linecap="round" stroke-linejoin="round" d="M3.012,2.958
			c0.042-0.03,0.008-0.096-0.073-0.146C2.861,2.763,2.766,2.749,2.726,2.78C2.684,2.811,2.711,2.874,2.787,2.923
			C2.867,2.972,2.969,2.989,3.012,2.958z"/>
		<path fill="none" stroke="#000000" stroke-width="0.0793" stroke-linecap="round" stroke-linejoin="round" d="M5.123,1.483
			C5.177,1.395,5.243,1.22,5.288,1.57"/>
		<path fill="none" stroke="#000000" stroke-width="0.0793" stroke-linecap="round" stroke-linejoin="round" d="M5.063,1.706
			C5.139,1.615,5.274,1.51,5.229,1.782"/>
		<path fill="none" stroke="#000000" stroke-width="0.0793" stroke-linecap="round" stroke-linejoin="round" d="M5.349,1.827
			C5.427,1.722,5.608,1.63,5.593,1.873"/>
		<path fill="#231F20" d="M5.166,1.889c0.033,0.01,0.072-0.021,0.087-0.069c0.014-0.049,0-0.097-0.033-0.107
			c-0.031-0.011-0.07,0.021-0.085,0.07C5.119,1.831,5.133,1.879,5.166,1.889z"/>
		<ellipse transform="matrix(0.2932 -0.9561 0.9561 0.2932 2.1125 6.6513)" fill="#231F20" cx="5.554" cy="1.897" rx="0.092" ry="0.063"/>
		<path fill="none" stroke="#000000" stroke-width="0.0793" stroke-linecap="round" d="M5.229,2.04
			C5.123,2.024,5.107,1.933,5.107,1.933C5.048,2.07,5.092,2.115,5.092,2.115"/>
		<path fill="none" stroke="#000000" stroke-width="0.0793" stroke-linecap="round" stroke-linejoin="round" d="M5.45,1.583
			c0.143-0.077,0.298-0.129,0.298,0.078"/>
		<path fill="none" stroke="#000000" stroke-width="0.0793" stroke-linecap="round" stroke-linejoin="round" d="M4.887,2.187
			c-0.11,0.127-0.168,0.159-0.168,0.159s0.457,0.306,0.963,0.019"/>
		<line fill="none" stroke="#000000" stroke-width="0.0793" stroke-linecap="round" x1="5.618" y1="2.27" x2="5.728" y2="2.426"/>
		<path stroke="#000000" stroke-width="0.0793" stroke-linecap="round" stroke-linejoin="round" d="M5.38,0.796
			c0,0-0.091,0.212,0.334,0.244c0.418,0.029,0.525-0.033,0.652,0c0.182,0.044,0.561,0.044,0.288,0.454
			C6.383,1.903,6.685,2.055,6.685,2.055l0.122-0.046c0.257-0.211,0.5-1.651-1.183-1.41"/>
		<path fill="#231F20" stroke="#000000" stroke-width="0.0793" stroke-linecap="round" stroke-linejoin="round" d="M5.183,0.574
			c0.012,0.124,0.063,0.279,0.21,0.282C5.411,0.86,5.427,0.849,5.431,0.832C5.433,0.815,5.421,0.8,5.405,0.796
			c-0.122,0-0.153-0.134-0.161-0.232C5.241,0.549,5.226,0.537,5.208,0.539C5.193,0.542,5.181,0.557,5.183,0.574L5.183,0.574z"/>
		<path fill="#231F20" stroke="#000000" stroke-width="0.0793" stroke-linecap="round" stroke-linejoin="round" d="M5.245,0.38
			C5.27,0.564,5.388,0.728,5.558,0.806c0.016,0.006,0.033-0.002,0.039-0.018S5.595,0.756,5.58,0.75
			C5.431,0.677,5.324,0.529,5.303,0.364C5.299,0.348,5.282,0.338,5.266,0.344C5.25,0.348,5.241,0.365,5.245,0.38L5.245,0.38z"/>
		<path fill="#231F20" stroke="#000000" stroke-width="0.0793" stroke-linecap="round" stroke-linejoin="round" d="M5.382,0.41
			c0.015,0.185,0.218,0.208,0.354,0.273c0.016,0.007,0.033,0,0.039-0.015c0.007-0.017,0-0.034-0.014-0.042
			C5.645,0.564,5.454,0.561,5.44,0.396C5.437,0.38,5.421,0.369,5.403,0.373C5.388,0.376,5.378,0.393,5.382,0.41L5.382,0.41z"/>
		<path fill="#EFD9BE" stroke="#000000" stroke-width="0.0793" stroke-linecap="round" stroke-linejoin="round" d="M7.221,4.825
			C7.283,4.808,7.295,4.73,7.243,4.65C7.191,4.571,7.096,4.521,7.031,4.538C6.965,4.555,6.953,4.63,7.006,4.711
			C7.058,4.788,7.154,4.84,7.221,4.825z"/>
		<path fill="#EFD9BE" stroke="#000000" stroke-width="0.0793" stroke-linecap="round" stroke-linejoin="round" d="M7.414,4.817
			c0.078-0.016,0.102-0.108,0.052-0.208C7.414,4.513,7.309,4.449,7.229,4.466C7.15,4.483,7.129,4.575,7.18,4.669
			C7.229,4.767,7.334,4.833,7.414,4.817z"/>
		<path fill="#EFD9BE" stroke="#000000" stroke-width="0.0793" stroke-linecap="round" stroke-linejoin="round" d="M7.594,4.813
			c0.08-0.012,0.119-0.103,0.086-0.206C7.647,4.505,7.555,4.433,7.473,4.447c-0.08,0.012-0.119,0.103-0.086,0.201
			C7.42,4.75,7.512,4.823,7.594,4.813z"/>
		<path fill="#EFD9BE" stroke="#000000" stroke-width="0.0793" stroke-linecap="round" stroke-linejoin="round" d="M7.779,4.806
			C7.861,4.8,7.914,4.709,7.895,4.602C7.877,4.497,7.797,4.42,7.713,4.428C7.63,4.435,7.58,4.524,7.598,4.628
			C7.614,4.732,7.697,4.812,7.779,4.806z"/>
		<path fill="none" stroke="#000000" stroke-width="0.0793" stroke-linecap="round" stroke-linejoin="round" d="M7.154,3.935
			C7.034,3.631,7.988,3.358,7.488,4.01"/>
		<path fill="none" stroke="#000000" stroke-width="0.0793" stroke-linecap="round" stroke-linejoin="round" d="M7.245,2.964
			c0.03,0.272-0.302,0.41-0.302,0.41"/>
		<path fill="none" stroke="#000000" stroke-width="0.0793" stroke-linecap="round" stroke-linejoin="round" d="M7.488,2.631
			c-0.016,0.257,0.061,0.772,0.53,0.696"/>
		<ellipse fill="#231F20" stroke="#000000" stroke-width="0.0793" stroke-linecap="round" stroke-linejoin="round" cx="7.275" cy="3.351" rx="0.021" ry="0.161"/>		
		<ellipse fill="#231F20" stroke="#000000" stroke-width="0.0793" stroke-linecap="round" stroke-linejoin="round" cx="7.473" cy="3.336" rx="0.021" ry="0.161"/>
		<path fill="#EFD9BE" stroke="#000000" stroke-width="0.0793" stroke-linecap="round" stroke-linejoin="round" d="M3.312,3.311
			c0.082,0.341,0.312,1.008,0.312,1.008s0.033,0.214,0.327,0.143c0.193-0.048,0.387-0.087,0.387-0.087
			c0.013-0.112-0.104-0.424-0.104-0.424L4.212,3.965L3.976,4.007C3.901,3.585,3.637,3.183,3.637,3.183
			c0.094-0.358,0.131-0.306,0.036-0.586C3.62,2.494,3.603,2.591,3.565,2.375C3.549,1.949,3.367,2.119,3.342,2.233
			C3.288,2.479,3.42,2.612,3.42,2.612C3.344,2.519,3.417,2.633,3.353,2.56L3.259,3.279l0.16-0.043L3.31,3.268"/>
		<line fill="none" stroke="#000000" stroke-width="0.0793" stroke-linecap="round" stroke-linejoin="round" x1="7.322" y1="4.098" x2="7.941" y2="4.098"/>
		<rect x="3.053" y="0.675" transform="matrix(-0.1465 0.9892 -0.9892 -0.1465 4.8619 -2.2636)" fill="#231F20" width="0.71" height="0.582"/>
		<path fill="#231F20" d="M3.74,0.667c0.062,0.119,0.54,0.196,0.592,0.094l0.233,0.041c0.035,0.263-0.067,0.45-0.067,0.45
			L4.277,1.22c-0.163-0.178-0.374-0.209-0.6-0.131L3.74,0.667z"/>
		<path fill="#231F20" d="M3.219,0.579c0,0-0.58-0.055-0.993,0.705C2.423,1.16,2.703,0.711,3.168,0.92L3.219,0.579z"/>
		<path fill="#231F20" d="M1.438,5.364l-0.14,1.21H0.905C0.869,6.389,0.837,6.178,0.81,5.94C0.797,6.043,0.768,6.254,0.722,6.574
			h-0.39L0.19,5.364h0.306l0.033,0.423l0.032,0.408c0.012-0.211,0.041-0.488,0.087-0.831h0.326c0.004,0.036,0.016,0.171,0.034,0.4
			l0.035,0.46c0.018-0.293,0.047-0.58,0.088-0.86H1.438z"/>
		<path fill="#231F20" d="M1.801,5.364v0.159H1.491V5.364H1.801z M1.801,5.583v0.991H1.491V5.583H1.801z"/>
		<path fill="#231F20" d="M2.221,5.364v1.21H1.909v-1.21H2.221z"/>
		<path fill="#231F20" d="M2.64,5.364v1.21H2.329v-1.21H2.64z"/>
		<path fill="#231F20" d="M3.06,5.364v0.159H2.749V5.364H3.06z M3.06,5.583v0.991H2.749V5.583H3.06z"/>
		<path fill="#231F20" d="M3.437,5.968H3.155V5.9c0-0.076,0.008-0.136,0.026-0.176c0.018-0.043,0.053-0.08,0.106-0.111
			C3.34,5.581,3.41,5.565,3.495,5.565c0.103,0,0.179,0.018,0.231,0.054C3.777,5.656,3.808,5.701,3.82,5.753
			c0.01,0.052,0.016,0.161,0.016,0.325v0.496H3.542V6.486C3.523,6.522,3.499,6.548,3.47,6.566C3.441,6.584,3.406,6.592,3.365,6.592
			c-0.052,0-0.101-0.014-0.145-0.044C3.176,6.519,3.155,6.453,3.155,6.354V6.273c0-0.076,0.011-0.126,0.035-0.152
			c0.023-0.027,0.081-0.059,0.174-0.096c0.099-0.039,0.153-0.063,0.159-0.077c0.008-0.014,0.012-0.04,0.012-0.083
			c0-0.051-0.004-0.085-0.012-0.101S3.501,5.741,3.483,5.741c-0.021,0-0.033,0.006-0.039,0.02C3.44,5.774,3.437,5.809,3.437,5.863
			V5.968L3.437,5.968z M3.534,6.104C3.485,6.14,3.456,6.169,3.449,6.191C3.441,6.217,3.437,6.25,3.437,6.297
			c0,0.05,0.004,0.082,0.011,0.098s0.02,0.023,0.04,0.023c0.019,0,0.031-0.006,0.037-0.02c0.006-0.012,0.01-0.04,0.01-0.09V6.104z"
			/>
		<path fill="#231F20" d="M4.237,5.583L4.231,5.678c0.023-0.037,0.051-0.066,0.083-0.085c0.033-0.018,0.069-0.027,0.111-0.027
			c0.081,0,0.144,0.036,0.19,0.112C4.642,5.641,4.67,5.611,4.703,5.593C4.734,5.575,4.769,5.565,4.81,5.565
			c0.05,0,0.093,0.012,0.126,0.036C4.97,5.627,4.992,5.658,5.001,5.695C5.011,5.73,5.015,5.789,5.015,5.871v0.703H4.722V5.93
			c0-0.086-0.003-0.139-0.009-0.159c-0.005-0.02-0.019-0.029-0.04-0.029c-0.022,0-0.036,0.01-0.042,0.029
			c-0.006,0.021-0.01,0.073-0.01,0.159v0.645H4.33v-0.63c0-0.097-0.003-0.155-0.007-0.174c-0.005-0.02-0.018-0.029-0.039-0.029
			c-0.013,0-0.025,0.004-0.035,0.016c-0.01,0.01-0.016,0.021-0.016,0.036C4.231,5.809,4.231,5.84,4.231,5.889v0.686H3.938V5.583
			H4.237L4.237,5.583z"/>
		<path fill="#231F20" d="M6.066,5.732H5.773V5.641c0-0.041-0.004-0.067-0.012-0.079s-0.02-0.017-0.037-0.017
			c-0.02,0-0.035,0.007-0.045,0.022C5.67,5.583,5.667,5.605,5.667,5.639c0,0.039,0.006,0.07,0.015,0.092
			c0.012,0.019,0.041,0.044,0.089,0.072c0.141,0.084,0.228,0.151,0.264,0.205c0.038,0.053,0.056,0.14,0.056,0.258
			c0,0.087-0.01,0.15-0.028,0.191C6.039,6.498,6.001,6.53,5.943,6.56C5.885,6.586,5.817,6.6,5.742,6.6
			c-0.085,0-0.157-0.016-0.216-0.046C5.465,6.521,5.427,6.48,5.409,6.432C5.39,6.381,5.382,6.312,5.382,6.221V6.142h0.292v0.147
			c0,0.046,0.004,0.075,0.011,0.086c0.008,0.014,0.023,0.02,0.044,0.02c0.02,0,0.035-0.008,0.046-0.023
			c0.01-0.017,0.016-0.042,0.016-0.072c0-0.072-0.01-0.119-0.029-0.142C5.742,6.136,5.693,6.1,5.614,6.049
			C5.537,5.996,5.485,5.958,5.459,5.935C5.435,5.912,5.413,5.879,5.396,5.838C5.38,5.797,5.371,5.743,5.371,5.68
			c0-0.093,0.014-0.16,0.037-0.203C5.431,5.434,5.469,5.4,5.521,5.376C5.574,5.353,5.637,5.34,5.713,5.34
			c0.081,0,0.151,0.013,0.208,0.04c0.058,0.024,0.096,0.06,0.114,0.099C6.057,5.52,6.066,5.587,6.066,5.684V5.732L6.066,5.732z"/>
		<path fill="#231F20" d="M6.483,5.364v0.272c0.024-0.023,0.054-0.043,0.083-0.054c0.031-0.012,0.064-0.018,0.097-0.018
			c0.054,0,0.099,0.014,0.136,0.04c0.037,0.027,0.06,0.059,0.067,0.094C6.876,5.734,6.88,5.797,6.88,5.891v0.684H6.578V5.877
			c0-0.059-0.004-0.095-0.01-0.11C6.562,5.749,6.551,5.741,6.529,5.741c-0.018,0-0.03,0.008-0.036,0.025s-0.01,0.05-0.01,0.101
			v0.707H6.182v-1.21H6.483L6.483,5.364z"/>
		<path fill="#231F20" d="M7.666,5.932v0.242c0,0.09-0.005,0.155-0.013,0.195c-0.01,0.043-0.029,0.082-0.058,0.119
			C7.566,6.522,7.527,6.55,7.48,6.566C7.437,6.584,7.383,6.592,7.322,6.592c-0.065,0-0.121-0.006-0.168-0.021
			C7.107,6.556,7.071,6.534,7.046,6.506C7.02,6.475,7.002,6.439,6.99,6.396C6.98,6.354,6.975,6.291,6.975,6.207V5.954
			c0-0.093,0.01-0.165,0.029-0.216C7.025,5.686,7.06,5.645,7.111,5.611c0.053-0.03,0.118-0.046,0.199-0.046
			c0.068,0,0.126,0.01,0.174,0.03c0.049,0.02,0.086,0.047,0.113,0.078c0.026,0.033,0.044,0.065,0.054,0.101
			C7.661,5.809,7.666,5.861,7.666,5.932z M7.365,5.857c0-0.053-0.004-0.083-0.01-0.097s-0.018-0.02-0.035-0.02
			s-0.029,0.006-0.035,0.02c-0.008,0.014-0.01,0.044-0.01,0.097v0.447c0,0.046,0.002,0.076,0.01,0.092
			C7.291,6.41,7.303,6.418,7.32,6.418S7.35,6.41,7.355,6.398c0.006-0.014,0.01-0.042,0.01-0.084V5.857z"/>
		<path fill="#231F20" d="M8.383,5.9H8.115V5.846c0-0.045-0.004-0.073-0.01-0.087C8.102,5.747,8.088,5.741,8.066,5.741
			c-0.018,0-0.028,0.006-0.036,0.018c-0.01,0.01-0.014,0.027-0.014,0.05c0,0.029,0.002,0.053,0.006,0.066
			C8.026,5.891,8.04,5.906,8.061,5.922c0.021,0.017,0.064,0.042,0.131,0.074C8.279,6.039,8.336,6.08,8.365,6.117
			c0.026,0.038,0.04,0.092,0.04,0.166c0,0.079-0.012,0.141-0.03,0.182C8.354,6.506,8.318,6.538,8.268,6.56
			C8.22,6.582,8.16,6.592,8.092,6.592c-0.077,0-0.143-0.012-0.197-0.034C7.841,6.532,7.803,6.502,7.783,6.461
			C7.762,6.418,7.752,6.358,7.752,6.275V6.227h0.267v0.062c0,0.054,0.004,0.088,0.01,0.104c0.008,0.016,0.021,0.025,0.04,0.025
			c0.021,0,0.037-0.006,0.045-0.018c0.01-0.01,0.014-0.033,0.014-0.067c0-0.046-0.006-0.077-0.018-0.089S8.04,6.197,7.934,6.138
			C7.847,6.09,7.793,6.043,7.773,6.002c-0.02-0.04-0.031-0.088-0.031-0.145c0-0.077,0.012-0.137,0.033-0.174
			c0.021-0.039,0.056-0.068,0.105-0.088c0.051-0.021,0.109-0.03,0.174-0.03c0.066,0,0.123,0.008,0.169,0.025
			C8.27,5.607,8.305,5.629,8.33,5.656c0.023,0.027,0.039,0.053,0.045,0.078c0.006,0.022,0.008,0.059,0.008,0.107V5.9L8.383,5.9z"/>
		<path fill="#231F20" d="M8.804,5.451v0.156h0.081v0.157H8.804v0.53c0,0.065,0.004,0.102,0.01,0.109
			c0.008,0.006,0.034,0.01,0.085,0.01v0.16H8.776c-0.069,0-0.118-0.002-0.147-0.008c-0.028-0.006-0.055-0.019-0.076-0.04
			C8.529,6.506,8.516,6.482,8.51,6.455C8.504,6.43,8.502,6.366,8.502,6.268V5.765H8.436V5.607h0.066V5.451H8.804z"/>
		<path fill="#231F20" d="M9.221,5.968H8.939V5.9c0-0.076,0.008-0.136,0.027-0.176c0.017-0.043,0.051-0.08,0.105-0.111
			c0.053-0.032,0.122-0.048,0.207-0.048c0.103,0,0.18,0.018,0.23,0.054c0.052,0.037,0.083,0.082,0.094,0.134
			c0.01,0.052,0.016,0.161,0.016,0.325v0.496H9.326V6.486c-0.02,0.036-0.043,0.062-0.072,0.08C9.225,6.584,9.19,6.592,9.15,6.592
			c-0.053,0-0.102-0.014-0.146-0.044C8.961,6.519,8.939,6.453,8.939,6.354V6.273c0-0.076,0.012-0.126,0.034-0.152
			c0.023-0.027,0.081-0.059,0.175-0.096c0.098-0.039,0.152-0.063,0.158-0.077c0.008-0.014,0.012-0.04,0.012-0.083
			c0-0.051-0.004-0.085-0.012-0.101S9.285,5.741,9.268,5.741c-0.021,0-0.033,0.006-0.039,0.02C9.225,5.774,9.221,5.809,9.221,5.863
			V5.968L9.221,5.968z M9.318,6.104C9.27,6.14,9.24,6.169,9.232,6.191C9.225,6.217,9.221,6.25,9.221,6.297
			c0,0.05,0.004,0.082,0.012,0.098c0.006,0.016,0.02,0.023,0.039,0.023s0.031-0.006,0.037-0.02c0.006-0.012,0.01-0.04,0.01-0.09
			V6.104z"/>
		<path fill="#231F20" d="M10.373,5.583L10.25,5.978l0.16,0.597h-0.289l-0.096-0.431v0.431H9.725v-1.21h0.301v0.509l0.096-0.29
			H10.373L10.373,5.583z"/>
		<path fill="none" stroke="#FFFFFF" stroke-width="0.3172" stroke-linejoin="round" d="M1.438,5.364l-0.14,1.21H0.905
			C0.869,6.389,0.837,6.178,0.81,5.94C0.797,6.043,0.768,6.254,0.722,6.574h-0.39L0.19,5.364h0.306l0.033,0.423l0.032,0.408
			c0.012-0.211,0.041-0.488,0.087-0.831h0.326c0.004,0.036,0.016,0.171,0.034,0.4l0.035,0.46c0.018-0.293,0.047-0.58,0.088-0.86
			H1.438z"/>
		<path fill="none" stroke="#FFFFFF" stroke-width="0.3172" stroke-linejoin="round" d="M1.801,5.364v0.159H1.491V5.364H1.801z
			 M1.801,5.583v0.991H1.491V5.583H1.801z"/>
		<path fill="none" stroke="#FFFFFF" stroke-width="0.3172" stroke-linejoin="round" d="M2.221,5.364v1.21H1.909v-1.21H2.221z"/>
		<path fill="none" stroke="#FFFFFF" stroke-width="0.3172" stroke-linejoin="round" d="M2.64,5.364v1.21H2.329v-1.21H2.64z"/>
		<path fill="none" stroke="#FFFFFF" stroke-width="0.3172" stroke-linejoin="round" d="M3.06,5.364v0.159H2.749V5.364H3.06z
			 M3.06,5.583v0.991H2.749V5.583H3.06z"/>
		<path fill="none" stroke="#FFFFFF" stroke-width="0.3172" stroke-linejoin="round" d="M3.437,5.968H3.155V5.9
			c0-0.076,0.008-0.136,0.026-0.176c0.018-0.043,0.053-0.08,0.106-0.111C3.34,5.581,3.41,5.565,3.495,5.565
			c0.103,0,0.179,0.018,0.231,0.054C3.777,5.656,3.808,5.701,3.82,5.753c0.01,0.052,0.016,0.161,0.016,0.325v0.496H3.542V6.486
			C3.523,6.522,3.499,6.548,3.47,6.566C3.441,6.584,3.406,6.592,3.365,6.592c-0.052,0-0.101-0.014-0.145-0.044
			C3.176,6.519,3.155,6.453,3.155,6.354V6.273c0-0.076,0.011-0.126,0.035-0.152c0.023-0.027,0.081-0.059,0.174-0.096
			c0.099-0.039,0.153-0.063,0.159-0.077c0.008-0.014,0.012-0.04,0.012-0.083c0-0.051-0.004-0.085-0.012-0.101
			S3.501,5.741,3.483,5.741c-0.021,0-0.033,0.006-0.039,0.02C3.44,5.774,3.437,5.809,3.437,5.863V5.968L3.437,5.968z M3.534,6.104
			C3.485,6.14,3.456,6.169,3.449,6.191C3.441,6.217,3.437,6.25,3.437,6.297c0,0.05,0.004,0.082,0.011,0.098s0.02,0.023,0.04,0.023
			c0.019,0,0.031-0.006,0.037-0.02c0.006-0.012,0.01-0.04,0.01-0.09V6.104z"/>
		<path fill="none" stroke="#FFFFFF" stroke-width="0.3172" stroke-linejoin="round" d="M4.237,5.583L4.231,5.678
			c0.023-0.037,0.051-0.066,0.083-0.085c0.033-0.018,0.069-0.027,0.111-0.027c0.081,0,0.144,0.036,0.19,0.112
			C4.642,5.641,4.67,5.611,4.703,5.593C4.734,5.575,4.769,5.565,4.81,5.565c0.05,0,0.093,0.012,0.126,0.036
			C4.97,5.627,4.992,5.658,5.001,5.695C5.011,5.73,5.015,5.789,5.015,5.871v0.703H4.722V5.93c0-0.086-0.003-0.139-0.009-0.159
			c-0.005-0.02-0.019-0.029-0.04-0.029c-0.022,0-0.036,0.01-0.042,0.029c-0.006,0.021-0.01,0.073-0.01,0.159v0.645H4.33v-0.63
			c0-0.097-0.003-0.155-0.007-0.174c-0.005-0.02-0.018-0.029-0.039-0.029c-0.013,0-0.025,0.004-0.035,0.016
			c-0.01,0.01-0.016,0.021-0.016,0.036C4.231,5.809,4.231,5.84,4.231,5.889v0.686H3.938V5.583H4.237L4.237,5.583z"/>
		<path fill="none" stroke="#FFFFFF" stroke-width="0.3172" stroke-linejoin="round" d="M6.066,5.732H5.773V5.641
			c0-0.041-0.004-0.067-0.012-0.079s-0.02-0.017-0.037-0.017c-0.02,0-0.035,0.007-0.045,0.022C5.67,5.583,5.667,5.605,5.667,5.639
			c0,0.039,0.006,0.07,0.015,0.092c0.012,0.019,0.041,0.044,0.089,0.072c0.141,0.084,0.228,0.151,0.264,0.205
			c0.038,0.053,0.056,0.14,0.056,0.258c0,0.087-0.01,0.15-0.028,0.191C6.039,6.498,6.001,6.53,5.943,6.56
			C5.885,6.586,5.817,6.6,5.742,6.6c-0.085,0-0.157-0.016-0.216-0.046C5.465,6.521,5.427,6.48,5.409,6.432
			C5.39,6.381,5.382,6.312,5.382,6.221V6.142h0.292v0.147c0,0.046,0.004,0.075,0.011,0.086c0.008,0.014,0.023,0.02,0.044,0.02
			c0.02,0,0.035-0.008,0.046-0.023c0.01-0.017,0.016-0.042,0.016-0.072c0-0.072-0.01-0.119-0.029-0.142
			C5.742,6.136,5.693,6.1,5.614,6.049C5.537,5.996,5.485,5.958,5.459,5.935C5.435,5.912,5.413,5.879,5.396,5.838
			C5.38,5.797,5.371,5.743,5.371,5.68c0-0.093,0.014-0.16,0.037-0.203C5.431,5.434,5.469,5.4,5.521,5.376
			C5.574,5.353,5.637,5.34,5.713,5.34c0.081,0,0.151,0.013,0.208,0.04c0.058,0.024,0.096,0.06,0.114,0.099
			C6.057,5.52,6.066,5.587,6.066,5.684V5.732L6.066,5.732z"/>
		<path fill="none" stroke="#FFFFFF" stroke-width="0.3172" stroke-linejoin="round" d="M6.483,5.364v0.272
			c0.024-0.023,0.054-0.043,0.083-0.054c0.031-0.012,0.064-0.018,0.097-0.018c0.054,0,0.099,0.014,0.136,0.04
			c0.037,0.027,0.06,0.059,0.067,0.094C6.876,5.734,6.88,5.797,6.88,5.891v0.684H6.578V5.877c0-0.059-0.004-0.095-0.01-0.11
			C6.562,5.749,6.551,5.741,6.529,5.741c-0.018,0-0.03,0.008-0.036,0.025s-0.01,0.05-0.01,0.101v0.707H6.182v-1.21H6.483
			L6.483,5.364z"/>
		<path fill="none" stroke="#FFFFFF" stroke-width="0.3172" stroke-linejoin="round" d="M7.666,5.932v0.242
			c0,0.09-0.005,0.155-0.013,0.195c-0.01,0.043-0.029,0.082-0.058,0.119C7.566,6.522,7.527,6.55,7.48,6.566
			C7.437,6.584,7.383,6.592,7.322,6.592c-0.065,0-0.121-0.006-0.168-0.021C7.107,6.556,7.071,6.534,7.046,6.506
			C7.02,6.475,7.002,6.439,6.99,6.396C6.98,6.354,6.975,6.291,6.975,6.207V5.954c0-0.093,0.01-0.165,0.029-0.216
			C7.025,5.686,7.06,5.645,7.111,5.611c0.053-0.03,0.118-0.046,0.199-0.046c0.068,0,0.126,0.01,0.174,0.03
			c0.049,0.02,0.086,0.047,0.113,0.078c0.026,0.033,0.044,0.065,0.054,0.101C7.661,5.809,7.666,5.861,7.666,5.932z M7.365,5.857
			c0-0.053-0.004-0.083-0.01-0.097s-0.018-0.02-0.035-0.02s-0.029,0.006-0.035,0.02c-0.008,0.014-0.01,0.044-0.01,0.097v0.447
			c0,0.046,0.002,0.076,0.01,0.092C7.291,6.41,7.303,6.418,7.32,6.418S7.35,6.41,7.355,6.398c0.006-0.014,0.01-0.042,0.01-0.084
			V5.857z"/>
		<path fill="none" stroke="#FFFFFF" stroke-width="0.3172" stroke-linejoin="round" d="M8.383,5.9H8.115V5.846
			c0-0.045-0.004-0.073-0.01-0.087C8.102,5.747,8.088,5.741,8.066,5.741c-0.018,0-0.028,0.006-0.036,0.018
			c-0.01,0.01-0.014,0.027-0.014,0.05c0,0.029,0.002,0.053,0.006,0.066C8.026,5.891,8.04,5.906,8.061,5.922
			c0.021,0.017,0.064,0.042,0.131,0.074C8.279,6.039,8.336,6.08,8.365,6.117c0.026,0.038,0.04,0.092,0.04,0.166
			c0,0.079-0.012,0.141-0.03,0.182C8.354,6.506,8.318,6.538,8.268,6.56C8.22,6.582,8.16,6.592,8.092,6.592
			c-0.077,0-0.143-0.012-0.197-0.034C7.841,6.532,7.803,6.502,7.783,6.461C7.762,6.418,7.752,6.358,7.752,6.275V6.227h0.267v0.062
			c0,0.054,0.004,0.088,0.01,0.104c0.008,0.016,0.021,0.025,0.04,0.025c0.021,0,0.037-0.006,0.045-0.018
			c0.01-0.01,0.014-0.033,0.014-0.067c0-0.046-0.006-0.077-0.018-0.089S8.04,6.197,7.934,6.138C7.847,6.09,7.793,6.043,7.773,6.002
			c-0.02-0.04-0.031-0.088-0.031-0.145c0-0.077,0.012-0.137,0.033-0.174c0.021-0.039,0.056-0.068,0.105-0.088
			c0.051-0.021,0.109-0.03,0.174-0.03c0.066,0,0.123,0.008,0.169,0.025C8.27,5.607,8.305,5.629,8.33,5.656
			c0.023,0.027,0.039,0.053,0.045,0.078c0.006,0.022,0.008,0.059,0.008,0.107V5.9L8.383,5.9z"/>
		<path fill="none" stroke="#FFFFFF" stroke-width="0.3172" stroke-linejoin="round" d="M8.804,5.451v0.156h0.081v0.157H8.804v0.53
			c0,0.065,0.004,0.102,0.01,0.109c0.008,0.006,0.034,0.01,0.085,0.01v0.16H8.776c-0.069,0-0.118-0.002-0.147-0.008
			c-0.028-0.006-0.055-0.019-0.076-0.04C8.529,6.506,8.516,6.482,8.51,6.455C8.504,6.43,8.502,6.366,8.502,6.268V5.765H8.436V5.607
			h0.066V5.451H8.804z"/>
		<path fill="none" stroke="#FFFFFF" stroke-width="0.3172" stroke-linejoin="round" d="M9.221,5.968H8.939V5.9
			c0-0.076,0.008-0.136,0.027-0.176c0.017-0.043,0.051-0.08,0.105-0.111c0.053-0.032,0.122-0.048,0.207-0.048
			c0.103,0,0.18,0.018,0.23,0.054c0.052,0.037,0.083,0.082,0.094,0.134c0.01,0.052,0.016,0.161,0.016,0.325v0.496H9.326V6.486
			c-0.02,0.036-0.043,0.062-0.072,0.08C9.225,6.584,9.19,6.592,9.15,6.592c-0.053,0-0.102-0.014-0.146-0.044
			C8.961,6.519,8.939,6.453,8.939,6.354V6.273c0-0.076,0.012-0.126,0.034-0.152c0.023-0.027,0.081-0.059,0.175-0.096
			c0.098-0.039,0.152-0.063,0.158-0.077c0.008-0.014,0.012-0.04,0.012-0.083c0-0.051-0.004-0.085-0.012-0.101
			S9.285,5.741,9.268,5.741c-0.021,0-0.033,0.006-0.039,0.02C9.225,5.774,9.221,5.809,9.221,5.863V5.968L9.221,5.968z M9.318,6.104
			C9.27,6.14,9.24,6.169,9.232,6.191C9.225,6.217,9.221,6.25,9.221,6.297c0,0.05,0.004,0.082,0.012,0.098
			c0.006,0.016,0.02,0.023,0.039,0.023s0.031-0.006,0.037-0.02c0.006-0.012,0.01-0.04,0.01-0.09V6.104z"/>
		<path fill="none" stroke="#FFFFFF" stroke-width="0.3172" stroke-linejoin="round" d="M10.373,5.583L10.25,5.978l0.16,0.597
			h-0.289l-0.096-0.431v0.431H9.725v-1.21h0.301v0.509l0.096-0.29H10.373L10.373,5.583z"/>
		<path fill="#231F20" d="M5.249,7.264H5.061V7.138c0-0.037-0.002-0.058-0.006-0.067S5.042,7.057,5.028,7.057
			C5.013,7.057,5.003,7.062,5,7.072c-0.004,0.012-0.006,0.034-0.006,0.07v0.337c0,0.035,0.002,0.058,0.006,0.067
			c0.003,0.012,0.013,0.018,0.029,0.018c0.014,0,0.023-0.006,0.027-0.018c0.004-0.01,0.006-0.034,0.006-0.074V7.381h0.188V7.41
			c0,0.075-0.004,0.127-0.015,0.158C5.224,7.6,5.2,7.629,5.164,7.652C5.127,7.675,5.083,7.687,5.03,7.687
			c-0.056,0-0.101-0.01-0.137-0.028c-0.035-0.021-0.058-0.049-0.07-0.084c-0.012-0.037-0.017-0.089-0.017-0.16V7.203
			c0-0.053,0.002-0.091,0.005-0.115c0.002-0.027,0.014-0.053,0.031-0.076C4.86,6.986,4.885,6.969,4.916,6.953
			C4.947,6.94,4.984,6.935,5.024,6.935c0.056,0,0.101,0.01,0.137,0.03c0.037,0.021,0.06,0.049,0.072,0.082
			c0.01,0.031,0.015,0.081,0.015,0.148V7.264L5.249,7.264z"/>
		<path fill="#231F20" d="M5.719,7.288v0.144c0,0.054-0.002,0.093-0.008,0.117c-0.006,0.025-0.018,0.049-0.035,0.07
			C5.659,7.641,5.637,7.656,5.608,7.668C5.582,7.677,5.55,7.683,5.514,7.683c-0.039,0-0.074-0.006-0.101-0.013
			C5.386,7.66,5.365,7.648,5.349,7.629C5.334,7.611,5.322,7.59,5.316,7.564c-0.008-0.025-0.01-0.062-0.01-0.111V7.3
			c0-0.054,0.006-0.097,0.018-0.128s0.033-0.056,0.064-0.075c0.031-0.019,0.071-0.028,0.12-0.028c0.039,0,0.074,0.008,0.103,0.02
			c0.029,0.011,0.052,0.026,0.068,0.046c0.015,0.019,0.027,0.038,0.033,0.06S5.719,7.246,5.719,7.288z M5.539,7.242
			c0-0.029-0.002-0.049-0.004-0.057C5.531,7.178,5.523,7.174,5.514,7.174c-0.012,0-0.018,0.004-0.021,0.012
			S5.486,7.213,5.486,7.242v0.269c0,0.026,0.002,0.046,0.006,0.054s0.01,0.012,0.021,0.012c0.01,0,0.018-0.004,0.02-0.012
			c0.003-0.008,0.005-0.023,0.005-0.048V7.242L5.539,7.242z"/>
		<path fill="#231F20" d="M5.957,7.08L5.953,7.136c0.016-0.021,0.032-0.039,0.051-0.05c0.02-0.012,0.041-0.018,0.065-0.018
			c0.048,0,0.087,0.023,0.114,0.067c0.016-0.021,0.033-0.039,0.053-0.05c0.02-0.012,0.04-0.018,0.063-0.018
			c0.03,0,0.056,0.008,0.075,0.023c0.02,0.015,0.033,0.032,0.039,0.053C6.42,7.166,6.422,7.203,6.422,7.252v0.42H6.248V7.286
			c0-0.052-0.002-0.083-0.006-0.095S6.23,7.174,6.219,7.174c-0.014,0-0.021,0.006-0.025,0.018S6.188,7.234,6.188,7.286v0.386H6.013
			V7.296c0-0.058-0.002-0.093-0.004-0.104C6.005,7.18,5.997,7.174,5.984,7.174c-0.009,0-0.015,0.002-0.02,0.008
			c-0.006,0.008-0.01,0.014-0.01,0.023c0,0.008,0,0.027,0,0.057v0.41H5.778V7.08H5.957L5.957,7.08z"/>
		<path fill="#231F20" d="M6.667,7.08L6.665,7.132C6.681,7.11,6.697,7.095,6.717,7.086c0.02-0.012,0.041-0.018,0.064-0.018
			c0.027,0,0.053,0.008,0.071,0.023c0.021,0.015,0.035,0.032,0.038,0.051c0.006,0.02,0.008,0.053,0.008,0.102v0.249
			c0,0.052-0.004,0.091-0.01,0.114C6.884,7.631,6.87,7.648,6.851,7.662C6.832,7.675,6.807,7.683,6.779,7.683
			c-0.023,0-0.043-0.006-0.062-0.015c-0.02-0.012-0.036-0.027-0.052-0.047v0.135H6.483V7.08H6.667L6.667,7.08z M6.719,7.252
			c0-0.037-0.002-0.059-0.004-0.066c-0.004-0.008-0.01-0.012-0.022-0.012c-0.012,0-0.02,0.004-0.023,0.014
			C6.667,7.195,6.665,7.217,6.665,7.252v0.245c0,0.034,0.002,0.058,0.004,0.067c0.004,0.008,0.012,0.012,0.023,0.012
			c0.011,0,0.019-0.004,0.022-0.012c0.002-0.008,0.004-0.027,0.004-0.06V7.252z"/>
		<path fill="#231F20" d="M7.371,7.08v0.592H7.188l0.004-0.049C7.18,7.643,7.164,7.658,7.145,7.668
			C7.127,7.677,7.105,7.683,7.081,7.683c-0.027,0-0.048-0.006-0.065-0.015c-0.02-0.01-0.031-0.021-0.041-0.037
			C6.967,7.615,6.961,7.598,6.959,7.58S6.955,7.529,6.955,7.479V7.08h0.182v0.401c0,0.046,0,0.073,0.004,0.083
			c0.002,0.008,0.01,0.012,0.023,0.012s0.021-0.004,0.023-0.012c0.002-0.01,0.004-0.038,0.004-0.086V7.08H7.371L7.371,7.08z"/>
		<path fill="#231F20" d="M7.626,7v0.093h0.048v0.095H7.626v0.317c0,0.038,0.002,0.06,0.006,0.063
			c0.004,0.006,0.021,0.008,0.05,0.008v0.096H7.609c-0.041,0-0.07-0.002-0.088-0.006c-0.018-0.002-0.033-0.01-0.047-0.023
			C7.462,7.631,7.454,7.617,7.45,7.6C7.446,7.584,7.444,7.547,7.444,7.487v-0.3H7.406V7.093h0.038V7H7.626L7.626,7z"/>
		<path fill="#231F20" d="M8.123,7.385H7.889v0.13c0,0.026,0.002,0.042,0.006,0.05s0.012,0.012,0.023,0.012
			c0.014,0,0.021-0.004,0.027-0.014c0.004-0.012,0.006-0.031,0.006-0.06V7.424h0.172v0.045c0,0.036-0.002,0.062-0.008,0.084
			C8.111,7.572,8.1,7.594,8.082,7.615C8.066,7.639,8.046,7.654,8.019,7.666C7.994,7.677,7.961,7.683,7.92,7.683
			c-0.037,0-0.071-0.006-0.101-0.017C7.791,7.654,7.77,7.641,7.752,7.621C7.736,7.602,7.725,7.58,7.719,7.557s-0.01-0.056-0.01-0.1
			V7.285c0-0.053,0.008-0.094,0.021-0.125c0.014-0.028,0.037-0.052,0.068-0.067c0.032-0.015,0.068-0.024,0.109-0.024
			c0.051,0,0.093,0.01,0.126,0.028c0.032,0.02,0.056,0.044,0.069,0.077c0.012,0.031,0.02,0.076,0.02,0.134V7.385L8.123,7.385z
			 M7.941,7.29V7.246c0-0.031-0.002-0.051-0.004-0.059c-0.004-0.01-0.01-0.014-0.021-0.014s-0.02,0.004-0.023,0.012
			C7.891,7.191,7.889,7.213,7.889,7.246V7.29H7.941L7.941,7.29z"/>
		<path fill="#231F20" d="M8.361,7.08L8.355,7.156c0.025-0.056,0.063-0.084,0.113-0.088v0.209c-0.033,0-0.058,0.004-0.073,0.013
			C8.381,7.3,8.371,7.312,8.367,7.327c-0.004,0.017-0.006,0.054-0.006,0.11v0.234h-0.18V7.08H8.361L8.361,7.08z"/>
		<path fill="#231F20" d="M9.094,6.949v0.723H8.93l-0.098-0.33v0.33H8.674V6.949h0.158l0.105,0.326V6.949H9.094z"/>
		<path fill="#231F20" d="M9.573,7.385H9.34v0.13c0,0.026,0.002,0.042,0.006,0.05s0.011,0.012,0.022,0.012
			c0.014,0,0.021-0.004,0.027-0.014c0.004-0.012,0.006-0.031,0.006-0.06V7.424h0.172v0.045c0,0.036-0.004,0.062-0.008,0.084
			C9.562,7.572,9.55,7.594,9.533,7.615C9.518,7.639,9.494,7.654,9.469,7.666C9.443,7.677,9.41,7.683,9.37,7.683
			c-0.036,0-0.071-0.006-0.101-0.017C9.24,7.654,9.217,7.641,9.202,7.621C9.187,7.602,9.175,7.58,9.169,7.557
			C9.161,7.533,9.16,7.501,9.16,7.457V7.285c0-0.053,0.005-0.094,0.021-0.125c0.014-0.028,0.036-0.052,0.067-0.067
			c0.033-0.015,0.07-0.024,0.11-0.024c0.05,0,0.093,0.01,0.126,0.028c0.033,0.02,0.057,0.044,0.067,0.077
			C9.565,7.205,9.573,7.25,9.573,7.308V7.385L9.573,7.385z M9.392,7.29V7.246c0-0.031-0.002-0.051-0.004-0.059
			c-0.004-0.01-0.01-0.014-0.021-0.014S9.348,7.178,9.344,7.186C9.342,7.191,9.34,7.213,9.34,7.246V7.29H9.392L9.392,7.29z"/>
		<path fill="#231F20" d="M9.811,7.08L9.805,7.156C9.83,7.101,9.869,7.072,9.918,7.068v0.209c-0.033,0-0.057,0.004-0.072,0.013
			C9.83,7.3,9.82,7.312,9.816,7.327c-0.004,0.017-0.006,0.054-0.006,0.11v0.234h-0.18V7.08H9.811L9.811,7.08z"/>
		<path fill="#231F20" d="M10.368,6.949v0.723h-0.181V7.629c-0.017,0.018-0.034,0.031-0.054,0.041
			c-0.019,0.007-0.038,0.013-0.06,0.013c-0.027,0-0.053-0.008-0.074-0.022C9.981,7.646,9.968,7.629,9.962,7.609
			s-0.01-0.051-0.01-0.095V7.238c0-0.047,0.004-0.08,0.01-0.098c0.006-0.019,0.02-0.036,0.04-0.049
			c0.02-0.016,0.045-0.023,0.074-0.023c0.023,0,0.043,0.006,0.062,0.014c0.018,0.008,0.035,0.019,0.05,0.034V6.949H10.368
			L10.368,6.949z M10.188,7.229c0-0.021-0.002-0.037-0.006-0.045c-0.004-0.006-0.011-0.01-0.021-0.01
			c-0.012,0-0.02,0.002-0.021,0.01c-0.004,0.006-0.006,0.021-0.006,0.045v0.29c0,0.022,0.002,0.04,0.004,0.048
			c0.004,0.008,0.012,0.01,0.021,0.01c0.012,0,0.019-0.004,0.022-0.012s0.006-0.029,0.006-0.062V7.229L10.188,7.229z"/>
		<path fill="none" stroke="#FFFFFF" stroke-width="0.3172" stroke-linejoin="round" d="M5.249,7.264H5.061V7.138
			c0-0.037-0.002-0.058-0.006-0.067S5.042,7.057,5.028,7.057C5.013,7.057,5.003,7.062,5,7.072c-0.004,0.012-0.006,0.034-0.006,0.07
			v0.337c0,0.035,0.002,0.058,0.006,0.067c0.003,0.012,0.013,0.018,0.029,0.018c0.014,0,0.023-0.006,0.027-0.018
			c0.004-0.01,0.006-0.034,0.006-0.074V7.381h0.188V7.41c0,0.075-0.004,0.127-0.015,0.158C5.224,7.6,5.2,7.629,5.164,7.652
			C5.127,7.675,5.083,7.687,5.03,7.687c-0.056,0-0.101-0.01-0.137-0.028c-0.035-0.021-0.058-0.049-0.07-0.084
			c-0.012-0.037-0.017-0.089-0.017-0.16V7.203c0-0.053,0.002-0.091,0.005-0.115c0.002-0.027,0.014-0.053,0.031-0.076
			C4.86,6.986,4.885,6.969,4.916,6.953C4.947,6.94,4.984,6.935,5.024,6.935c0.056,0,0.101,0.01,0.137,0.03
			c0.037,0.021,0.06,0.049,0.072,0.082c0.01,0.031,0.015,0.081,0.015,0.148V7.264L5.249,7.264z"/>
		<path fill="none" stroke="#FFFFFF" stroke-width="0.3172" stroke-linejoin="round" d="M5.719,7.288v0.144
			c0,0.054-0.002,0.093-0.008,0.117c-0.006,0.025-0.018,0.049-0.035,0.07C5.659,7.641,5.637,7.656,5.608,7.668
			C5.582,7.677,5.55,7.683,5.514,7.683c-0.039,0-0.074-0.006-0.101-0.013C5.386,7.66,5.365,7.648,5.349,7.629
			C5.334,7.611,5.322,7.59,5.316,7.564c-0.008-0.025-0.01-0.062-0.01-0.111V7.3c0-0.054,0.006-0.097,0.018-0.128
			s0.033-0.056,0.064-0.075c0.031-0.019,0.071-0.028,0.12-0.028c0.039,0,0.074,0.008,0.103,0.02
			c0.029,0.011,0.052,0.026,0.068,0.046c0.015,0.019,0.027,0.038,0.033,0.06S5.719,7.246,5.719,7.288z M5.539,7.242
			c0-0.029-0.002-0.049-0.004-0.057C5.531,7.178,5.523,7.174,5.514,7.174c-0.012,0-0.018,0.004-0.021,0.012
			S5.486,7.213,5.486,7.242v0.269c0,0.026,0.002,0.046,0.006,0.054s0.01,0.012,0.021,0.012c0.01,0,0.018-0.004,0.02-0.012
			c0.003-0.008,0.005-0.023,0.005-0.048V7.242L5.539,7.242z"/>
		<path fill="none" stroke="#FFFFFF" stroke-width="0.3172" stroke-linejoin="round" d="M5.957,7.08L5.953,7.136
			c0.016-0.021,0.032-0.039,0.051-0.05c0.02-0.012,0.041-0.018,0.065-0.018c0.048,0,0.087,0.023,0.114,0.067
			c0.016-0.021,0.033-0.039,0.053-0.05c0.02-0.012,0.04-0.018,0.063-0.018c0.03,0,0.056,0.008,0.075,0.023
			c0.02,0.015,0.033,0.032,0.039,0.053C6.42,7.166,6.422,7.203,6.422,7.252v0.42H6.248V7.286c0-0.052-0.002-0.083-0.006-0.095
			S6.23,7.174,6.219,7.174c-0.014,0-0.021,0.006-0.025,0.018S6.188,7.234,6.188,7.286v0.386H6.013V7.296
			c0-0.058-0.002-0.093-0.004-0.104C6.005,7.18,5.997,7.174,5.984,7.174c-0.009,0-0.015,0.002-0.02,0.008
			c-0.006,0.008-0.01,0.014-0.01,0.023c0,0.008,0,0.027,0,0.057v0.41H5.778V7.08H5.957L5.957,7.08z"/>
		<path fill="none" stroke="#FFFFFF" stroke-width="0.3172" stroke-linejoin="round" d="M6.667,7.08L6.665,7.132
			C6.681,7.11,6.697,7.095,6.717,7.086c0.02-0.012,0.041-0.018,0.064-0.018c0.027,0,0.053,0.008,0.071,0.023
			c0.021,0.015,0.035,0.032,0.038,0.051c0.006,0.02,0.008,0.053,0.008,0.102v0.249c0,0.052-0.004,0.091-0.01,0.114
			C6.884,7.631,6.87,7.648,6.851,7.662C6.832,7.675,6.807,7.683,6.779,7.683c-0.023,0-0.043-0.006-0.062-0.015
			c-0.02-0.012-0.036-0.027-0.052-0.047v0.135H6.483V7.08H6.667L6.667,7.08z M6.719,7.252c0-0.037-0.002-0.059-0.004-0.066
			c-0.004-0.008-0.01-0.012-0.022-0.012c-0.012,0-0.02,0.004-0.023,0.014C6.667,7.195,6.665,7.217,6.665,7.252v0.245
			c0,0.034,0.002,0.058,0.004,0.067c0.004,0.008,0.012,0.012,0.023,0.012c0.011,0,0.019-0.004,0.022-0.012
			c0.002-0.008,0.004-0.027,0.004-0.06V7.252z"/>
		<path fill="none" stroke="#FFFFFF" stroke-width="0.3172" stroke-linejoin="round" d="M7.371,7.08v0.592H7.188l0.004-0.049
			C7.18,7.643,7.164,7.658,7.145,7.668C7.127,7.677,7.105,7.683,7.081,7.683c-0.027,0-0.048-0.006-0.065-0.015
			c-0.02-0.01-0.031-0.021-0.041-0.037C6.967,7.615,6.961,7.598,6.959,7.58S6.955,7.529,6.955,7.479V7.08h0.182v0.401
			c0,0.046,0,0.073,0.004,0.083c0.002,0.008,0.01,0.012,0.023,0.012s0.021-0.004,0.023-0.012c0.002-0.01,0.004-0.038,0.004-0.086
			V7.08H7.371L7.371,7.08z"/>
		<path fill="none" stroke="#FFFFFF" stroke-width="0.3172" stroke-linejoin="round" d="M7.626,7v0.093h0.048v0.095H7.626v0.317
			c0,0.038,0.002,0.06,0.006,0.063c0.004,0.006,0.021,0.008,0.05,0.008v0.096H7.609c-0.041,0-0.07-0.002-0.088-0.006
			c-0.018-0.002-0.033-0.01-0.047-0.023C7.462,7.631,7.454,7.617,7.45,7.6C7.446,7.584,7.444,7.547,7.444,7.487v-0.3H7.406V7.093
			h0.038V7H7.626L7.626,7z"/>
		<path fill="none" stroke="#FFFFFF" stroke-width="0.3172" stroke-linejoin="round" d="M8.123,7.385H7.889v0.13
			c0,0.026,0.002,0.042,0.006,0.05s0.012,0.012,0.023,0.012c0.014,0,0.021-0.004,0.027-0.014c0.004-0.012,0.006-0.031,0.006-0.06
			V7.424h0.172v0.045c0,0.036-0.002,0.062-0.008,0.084C8.111,7.572,8.1,7.594,8.082,7.615C8.066,7.639,8.046,7.654,8.019,7.666
			C7.994,7.677,7.961,7.683,7.92,7.683c-0.037,0-0.071-0.006-0.101-0.017C7.791,7.654,7.77,7.641,7.752,7.621
			C7.736,7.602,7.725,7.58,7.719,7.557s-0.01-0.056-0.01-0.1V7.285c0-0.053,0.008-0.094,0.021-0.125
			c0.014-0.028,0.037-0.052,0.068-0.067c0.032-0.015,0.068-0.024,0.109-0.024c0.051,0,0.093,0.01,0.126,0.028
			c0.032,0.02,0.056,0.044,0.069,0.077c0.012,0.031,0.02,0.076,0.02,0.134V7.385L8.123,7.385z M7.941,7.29V7.246
			c0-0.031-0.002-0.051-0.004-0.059c-0.004-0.01-0.01-0.014-0.021-0.014s-0.02,0.004-0.023,0.012
			C7.891,7.191,7.889,7.213,7.889,7.246V7.29H7.941L7.941,7.29z"/>
		<path fill="none" stroke="#FFFFFF" stroke-width="0.3172" stroke-linejoin="round" d="M8.361,7.08L8.355,7.156
			c0.025-0.056,0.063-0.084,0.113-0.088v0.209c-0.033,0-0.058,0.004-0.073,0.013C8.381,7.3,8.371,7.312,8.367,7.327
			c-0.004,0.017-0.006,0.054-0.006,0.11v0.234h-0.18V7.08H8.361L8.361,7.08z"/>
		<path fill="none" stroke="#FFFFFF" stroke-width="0.3172" stroke-linejoin="round" d="M9.094,6.949v0.723H8.93l-0.098-0.33v0.33
			H8.674V6.949h0.158l0.105,0.326V6.949H9.094z"/>
		<path fill="none" stroke="#FFFFFF" stroke-width="0.3172" stroke-linejoin="round" d="M9.573,7.385H9.34v0.13
			c0,0.026,0.002,0.042,0.006,0.05s0.011,0.012,0.022,0.012c0.014,0,0.021-0.004,0.027-0.014c0.004-0.012,0.006-0.031,0.006-0.06
			V7.424h0.172v0.045c0,0.036-0.004,0.062-0.008,0.084C9.562,7.572,9.55,7.594,9.533,7.615C9.518,7.639,9.494,7.654,9.469,7.666
			C9.443,7.677,9.41,7.683,9.37,7.683c-0.036,0-0.071-0.006-0.101-0.017C9.24,7.654,9.217,7.641,9.202,7.621
			C9.187,7.602,9.175,7.58,9.169,7.557C9.161,7.533,9.16,7.501,9.16,7.457V7.285c0-0.053,0.005-0.094,0.021-0.125
			c0.014-0.028,0.036-0.052,0.067-0.067c0.033-0.015,0.07-0.024,0.11-0.024c0.05,0,0.093,0.01,0.126,0.028
			c0.033,0.02,0.057,0.044,0.067,0.077C9.565,7.205,9.573,7.25,9.573,7.308V7.385L9.573,7.385z M9.392,7.29V7.246
			c0-0.031-0.002-0.051-0.004-0.059c-0.004-0.01-0.01-0.014-0.021-0.014S9.348,7.178,9.344,7.186
			C9.342,7.191,9.34,7.213,9.34,7.246V7.29H9.392L9.392,7.29z"/>
		<path fill="none" stroke="#FFFFFF" stroke-width="0.3172" stroke-linejoin="round" d="M9.811,7.08L9.805,7.156
			C9.83,7.101,9.869,7.072,9.918,7.068v0.209c-0.033,0-0.057,0.004-0.072,0.013C9.83,7.3,9.82,7.312,9.816,7.327
			c-0.004,0.017-0.006,0.054-0.006,0.11v0.234h-0.18V7.08H9.811L9.811,7.08z"/>
		<path fill="none" stroke="#FFFFFF" stroke-width="0.3172" stroke-linejoin="round" d="M10.368,6.949v0.723h-0.181V7.629
			c-0.017,0.018-0.034,0.031-0.054,0.041c-0.019,0.007-0.038,0.013-0.06,0.013c-0.027,0-0.053-0.008-0.074-0.022
			C9.981,7.646,9.968,7.629,9.962,7.609s-0.01-0.051-0.01-0.095V7.238c0-0.047,0.004-0.08,0.01-0.098
			c0.006-0.019,0.02-0.036,0.04-0.049c0.02-0.016,0.045-0.023,0.074-0.023c0.023,0,0.043,0.006,0.062,0.014
			c0.018,0.008,0.035,0.019,0.05,0.034V6.949H10.368L10.368,6.949z M10.188,7.229c0-0.021-0.002-0.037-0.006-0.045
			c-0.004-0.006-0.011-0.01-0.021-0.01c-0.012,0-0.02,0.002-0.021,0.01c-0.004,0.006-0.006,0.021-0.006,0.045v0.29
			c0,0.022,0.002,0.04,0.004,0.048c0.004,0.008,0.012,0.01,0.021,0.01c0.012,0,0.019-0.004,0.022-0.012s0.006-0.029,0.006-0.062
			V7.229L10.188,7.229z"/>
		<path fill="#231F20" d="M1.438,5.364l-0.14,1.21H0.905C0.869,6.389,0.837,6.178,0.81,5.94C0.797,6.043,0.768,6.254,0.722,6.574
			h-0.39L0.19,5.364h0.306l0.033,0.423l0.032,0.408c0.012-0.211,0.041-0.488,0.087-0.831h0.326c0.004,0.036,0.016,0.171,0.034,0.4
			l0.035,0.46c0.018-0.293,0.047-0.58,0.088-0.86H1.438z"/>
		<path fill="#231F20" d="M1.801,5.364v0.159H1.491V5.364H1.801z M1.801,5.583v0.991H1.491V5.583H1.801z"/>
		<path fill="#231F20" d="M2.221,5.364v1.21H1.909v-1.21H2.221z"/>
		<path fill="#231F20" d="M2.64,5.364v1.21H2.329v-1.21H2.64z"/>
		<path fill="#231F20" d="M3.06,5.364v0.159H2.749V5.364H3.06z M3.06,5.583v0.991H2.749V5.583H3.06z"/>
		<path fill="#231F20" d="M3.437,5.968H3.155V5.9c0-0.076,0.008-0.136,0.026-0.176c0.018-0.043,0.053-0.08,0.106-0.111
			C3.34,5.581,3.41,5.565,3.495,5.565c0.103,0,0.179,0.018,0.231,0.054C3.777,5.656,3.808,5.701,3.82,5.753
			c0.01,0.052,0.016,0.161,0.016,0.325v0.496H3.542V6.486C3.523,6.522,3.499,6.548,3.47,6.566C3.441,6.584,3.406,6.592,3.365,6.592
			c-0.052,0-0.101-0.014-0.145-0.044C3.176,6.519,3.155,6.453,3.155,6.354V6.273c0-0.076,0.011-0.126,0.035-0.152
			c0.023-0.027,0.081-0.059,0.174-0.096c0.099-0.039,0.153-0.063,0.159-0.077c0.008-0.014,0.012-0.04,0.012-0.083
			c0-0.051-0.004-0.085-0.012-0.101S3.501,5.741,3.483,5.741c-0.021,0-0.033,0.006-0.039,0.02C3.44,5.774,3.437,5.809,3.437,5.863
			V5.968L3.437,5.968z M3.534,6.104C3.485,6.14,3.456,6.169,3.449,6.191C3.441,6.217,3.437,6.25,3.437,6.297
			c0,0.05,0.004,0.082,0.011,0.098s0.02,0.023,0.04,0.023c0.019,0,0.031-0.006,0.037-0.02c0.006-0.012,0.01-0.04,0.01-0.09V6.104z"
			/>
		<path fill="#231F20" d="M4.237,5.583L4.231,5.678c0.023-0.037,0.051-0.066,0.083-0.085c0.033-0.018,0.069-0.027,0.111-0.027
			c0.081,0,0.144,0.036,0.19,0.112C4.642,5.641,4.67,5.611,4.703,5.593C4.734,5.575,4.769,5.565,4.81,5.565
			c0.05,0,0.093,0.012,0.126,0.036C4.97,5.627,4.992,5.658,5.001,5.695C5.011,5.73,5.015,5.789,5.015,5.871v0.703H4.722V5.93
			c0-0.086-0.003-0.139-0.009-0.159c-0.005-0.02-0.019-0.029-0.04-0.029c-0.022,0-0.036,0.01-0.042,0.029
			c-0.006,0.021-0.01,0.073-0.01,0.159v0.645H4.33v-0.63c0-0.097-0.003-0.155-0.007-0.174c-0.005-0.02-0.018-0.029-0.039-0.029
			c-0.013,0-0.025,0.004-0.035,0.016c-0.01,0.01-0.016,0.021-0.016,0.036C4.231,5.809,4.231,5.84,4.231,5.889v0.686H3.938V5.583
			H4.237L4.237,5.583z"/>
		<path fill="#231F20" d="M6.066,5.732H5.773V5.641c0-0.041-0.004-0.067-0.012-0.079s-0.02-0.017-0.037-0.017
			c-0.02,0-0.035,0.007-0.045,0.022C5.67,5.583,5.667,5.605,5.667,5.639c0,0.039,0.006,0.07,0.015,0.092
			c0.012,0.019,0.041,0.044,0.089,0.072c0.141,0.084,0.228,0.151,0.264,0.205c0.038,0.053,0.056,0.14,0.056,0.258
			c0,0.087-0.01,0.15-0.028,0.191C6.039,6.498,6.001,6.53,5.943,6.56C5.885,6.586,5.817,6.6,5.742,6.6
			c-0.085,0-0.157-0.016-0.216-0.046C5.465,6.521,5.427,6.48,5.409,6.432C5.39,6.381,5.382,6.312,5.382,6.221V6.142h0.292v0.147
			c0,0.046,0.004,0.075,0.011,0.086c0.008,0.014,0.023,0.02,0.044,0.02c0.02,0,0.035-0.008,0.046-0.023
			c0.01-0.017,0.016-0.042,0.016-0.072c0-0.072-0.01-0.119-0.029-0.142C5.742,6.136,5.693,6.1,5.614,6.049
			C5.537,5.996,5.485,5.958,5.459,5.935C5.435,5.912,5.413,5.879,5.396,5.838C5.38,5.797,5.371,5.743,5.371,5.68
			c0-0.093,0.014-0.16,0.037-0.203C5.431,5.434,5.469,5.4,5.521,5.376C5.574,5.353,5.637,5.34,5.713,5.34
			c0.081,0,0.151,0.013,0.208,0.04c0.058,0.024,0.096,0.06,0.114,0.099C6.057,5.52,6.066,5.587,6.066,5.684V5.732L6.066,5.732z"/>
		<path fill="#231F20" d="M6.483,5.364v0.272c0.024-0.023,0.054-0.043,0.083-0.054c0.031-0.012,0.064-0.018,0.097-0.018
			c0.054,0,0.099,0.014,0.136,0.04c0.037,0.027,0.06,0.059,0.067,0.094C6.876,5.734,6.88,5.797,6.88,5.891v0.684H6.578V5.877
			c0-0.059-0.004-0.095-0.01-0.11C6.562,5.749,6.551,5.741,6.529,5.741c-0.018,0-0.03,0.008-0.036,0.025s-0.01,0.05-0.01,0.101
			v0.707H6.182v-1.21H6.483L6.483,5.364z"/>
		<path fill="#231F20" d="M7.666,5.932v0.242c0,0.09-0.005,0.155-0.013,0.195c-0.01,0.043-0.029,0.082-0.058,0.119
			C7.566,6.522,7.527,6.55,7.48,6.566C7.437,6.584,7.383,6.592,7.322,6.592c-0.065,0-0.121-0.006-0.168-0.021
			C7.107,6.556,7.071,6.534,7.046,6.506C7.02,6.475,7.002,6.439,6.99,6.396C6.98,6.354,6.975,6.291,6.975,6.207V5.954
			c0-0.093,0.01-0.165,0.029-0.216C7.025,5.686,7.06,5.645,7.111,5.611c0.053-0.03,0.118-0.046,0.199-0.046
			c0.068,0,0.126,0.01,0.174,0.03c0.049,0.02,0.086,0.047,0.113,0.078c0.026,0.033,0.044,0.065,0.054,0.101
			C7.661,5.809,7.666,5.861,7.666,5.932z M7.365,5.857c0-0.053-0.004-0.083-0.01-0.097s-0.018-0.02-0.035-0.02
			s-0.029,0.006-0.035,0.02c-0.008,0.014-0.01,0.044-0.01,0.097v0.447c0,0.046,0.002,0.076,0.01,0.092
			C7.291,6.41,7.303,6.418,7.32,6.418S7.35,6.41,7.355,6.398c0.006-0.014,0.01-0.042,0.01-0.084V5.857z"/>
		<path fill="#231F20" d="M8.383,5.9H8.115V5.846c0-0.045-0.004-0.073-0.01-0.087C8.102,5.747,8.088,5.741,8.066,5.741
			c-0.018,0-0.028,0.006-0.036,0.018c-0.01,0.01-0.014,0.027-0.014,0.05c0,0.029,0.002,0.053,0.006,0.066
			C8.026,5.891,8.04,5.906,8.061,5.922c0.021,0.017,0.064,0.042,0.131,0.074C8.279,6.039,8.336,6.08,8.365,6.117
			c0.026,0.038,0.04,0.092,0.04,0.166c0,0.079-0.012,0.141-0.03,0.182C8.354,6.506,8.318,6.538,8.268,6.56
			C8.22,6.582,8.16,6.592,8.092,6.592c-0.077,0-0.143-0.012-0.197-0.034C7.841,6.532,7.803,6.502,7.783,6.461
			C7.762,6.418,7.752,6.358,7.752,6.275V6.227h0.267v0.062c0,0.054,0.004,0.088,0.01,0.104c0.008,0.016,0.021,0.025,0.04,0.025
			c0.021,0,0.037-0.006,0.045-0.018c0.01-0.01,0.014-0.033,0.014-0.067c0-0.046-0.006-0.077-0.018-0.089S8.04,6.197,7.934,6.138
			C7.847,6.09,7.793,6.043,7.773,6.002c-0.02-0.04-0.031-0.088-0.031-0.145c0-0.077,0.012-0.137,0.033-0.174
			c0.021-0.039,0.056-0.068,0.105-0.088c0.051-0.021,0.109-0.03,0.174-0.03c0.066,0,0.123,0.008,0.169,0.025
			C8.27,5.607,8.305,5.629,8.33,5.656c0.023,0.027,0.039,0.053,0.045,0.078c0.006,0.022,0.008,0.059,0.008,0.107V5.9L8.383,5.9z"/>
		<path fill="#231F20" d="M8.804,5.451v0.156h0.081v0.157H8.804v0.53c0,0.065,0.004,0.102,0.01,0.109
			c0.008,0.006,0.034,0.01,0.085,0.01v0.16H8.776c-0.069,0-0.118-0.002-0.147-0.008c-0.028-0.006-0.055-0.019-0.076-0.04
			C8.529,6.506,8.516,6.482,8.51,6.455C8.504,6.43,8.502,6.366,8.502,6.268V5.765H8.436V5.607h0.066V5.451H8.804z"/>
		<path fill="#231F20" d="M9.221,5.968H8.939V5.9c0-0.076,0.008-0.136,0.027-0.176c0.017-0.043,0.051-0.08,0.105-0.111
			c0.053-0.032,0.122-0.048,0.207-0.048c0.103,0,0.18,0.018,0.23,0.054c0.052,0.037,0.083,0.082,0.094,0.134
			c0.01,0.052,0.016,0.161,0.016,0.325v0.496H9.326V6.486c-0.02,0.036-0.043,0.062-0.072,0.08C9.225,6.584,9.19,6.592,9.15,6.592
			c-0.053,0-0.102-0.014-0.146-0.044C8.961,6.519,8.939,6.453,8.939,6.354V6.273c0-0.076,0.012-0.126,0.034-0.152
			c0.023-0.027,0.081-0.059,0.175-0.096c0.098-0.039,0.152-0.063,0.158-0.077c0.008-0.014,0.012-0.04,0.012-0.083
			c0-0.051-0.004-0.085-0.012-0.101S9.285,5.741,9.268,5.741c-0.021,0-0.033,0.006-0.039,0.02C9.225,5.774,9.221,5.809,9.221,5.863
			V5.968L9.221,5.968z M9.318,6.104C9.27,6.14,9.24,6.169,9.232,6.191C9.225,6.217,9.221,6.25,9.221,6.297
			c0,0.05,0.004,0.082,0.012,0.098c0.006,0.016,0.02,0.023,0.039,0.023s0.031-0.006,0.037-0.02c0.006-0.012,0.01-0.04,0.01-0.09
			V6.104z"/>
		<path fill="#231F20" d="M10.373,5.583L10.25,5.978l0.16,0.597h-0.289l-0.096-0.431v0.431H9.725v-1.21h0.301v0.509l0.096-0.29
			H10.373L10.373,5.583z"/>
		<path fill="#231F20" d="M5.249,7.264H5.061V7.138c0-0.037-0.002-0.058-0.006-0.067S5.042,7.057,5.028,7.057
			C5.013,7.057,5.003,7.062,5,7.072c-0.004,0.012-0.006,0.034-0.006,0.07v0.337c0,0.035,0.002,0.058,0.006,0.067
			c0.003,0.012,0.013,0.018,0.029,0.018c0.014,0,0.023-0.006,0.027-0.018c0.004-0.01,0.006-0.034,0.006-0.074V7.381h0.188V7.41
			c0,0.075-0.004,0.127-0.015,0.158C5.224,7.6,5.2,7.629,5.164,7.652C5.127,7.675,5.083,7.687,5.03,7.687
			c-0.056,0-0.101-0.01-0.137-0.028c-0.035-0.021-0.058-0.049-0.07-0.084c-0.012-0.037-0.017-0.089-0.017-0.16V7.203
			c0-0.053,0.002-0.091,0.005-0.115c0.002-0.027,0.014-0.053,0.031-0.076C4.86,6.986,4.885,6.969,4.916,6.953
			C4.947,6.94,4.984,6.935,5.024,6.935c0.056,0,0.101,0.01,0.137,0.03c0.037,0.021,0.06,0.049,0.072,0.082
			c0.01,0.031,0.015,0.081,0.015,0.148V7.264L5.249,7.264z"/>
		<path fill="#231F20" d="M5.719,7.288v0.144c0,0.054-0.002,0.093-0.008,0.117c-0.006,0.025-0.018,0.049-0.035,0.07
			C5.659,7.641,5.637,7.656,5.608,7.668C5.582,7.677,5.55,7.683,5.514,7.683c-0.039,0-0.074-0.006-0.101-0.013
			C5.386,7.66,5.365,7.648,5.349,7.629C5.334,7.611,5.322,7.59,5.316,7.564c-0.008-0.025-0.01-0.062-0.01-0.111V7.3
			c0-0.054,0.006-0.097,0.018-0.128s0.033-0.056,0.064-0.075c0.031-0.019,0.071-0.028,0.12-0.028c0.039,0,0.074,0.008,0.103,0.02
			c0.029,0.011,0.052,0.026,0.068,0.046c0.015,0.019,0.027,0.038,0.033,0.06S5.719,7.246,5.719,7.288z M5.539,7.242
			c0-0.029-0.002-0.049-0.004-0.057C5.531,7.178,5.523,7.174,5.514,7.174c-0.012,0-0.018,0.004-0.021,0.012
			S5.486,7.213,5.486,7.242v0.269c0,0.026,0.002,0.046,0.006,0.054s0.01,0.012,0.021,0.012c0.01,0,0.018-0.004,0.02-0.012
			c0.003-0.008,0.005-0.023,0.005-0.048V7.242L5.539,7.242z"/>
		<path fill="#231F20" d="M5.957,7.08L5.953,7.136c0.016-0.021,0.032-0.039,0.051-0.05c0.02-0.012,0.041-0.018,0.065-0.018
			c0.048,0,0.087,0.023,0.114,0.067c0.016-0.021,0.033-0.039,0.053-0.05c0.02-0.012,0.04-0.018,0.063-0.018
			c0.03,0,0.056,0.008,0.075,0.023c0.02,0.015,0.033,0.032,0.039,0.053C6.42,7.166,6.422,7.203,6.422,7.252v0.42H6.248V7.286
			c0-0.052-0.002-0.083-0.006-0.095S6.23,7.174,6.219,7.174c-0.014,0-0.021,0.006-0.025,0.018S6.188,7.234,6.188,7.286v0.386H6.013
			V7.296c0-0.058-0.002-0.093-0.004-0.104C6.005,7.18,5.997,7.174,5.984,7.174c-0.009,0-0.015,0.002-0.02,0.008
			c-0.006,0.008-0.01,0.014-0.01,0.023c0,0.008,0,0.027,0,0.057v0.41H5.778V7.08H5.957L5.957,7.08z"/>
		<path fill="#231F20" d="M6.667,7.08L6.665,7.132C6.681,7.11,6.697,7.095,6.717,7.086c0.02-0.012,0.041-0.018,0.064-0.018
			c0.027,0,0.053,0.008,0.071,0.023c0.021,0.015,0.035,0.032,0.038,0.051c0.006,0.02,0.008,0.053,0.008,0.102v0.249
			c0,0.052-0.004,0.091-0.01,0.114C6.884,7.631,6.87,7.648,6.851,7.662C6.832,7.675,6.807,7.683,6.779,7.683
			c-0.023,0-0.043-0.006-0.062-0.015c-0.02-0.012-0.036-0.027-0.052-0.047v0.135H6.483V7.08H6.667L6.667,7.08z M6.719,7.252
			c0-0.037-0.002-0.059-0.004-0.066c-0.004-0.008-0.01-0.012-0.022-0.012c-0.012,0-0.02,0.004-0.023,0.014
			C6.667,7.195,6.665,7.217,6.665,7.252v0.245c0,0.034,0.002,0.058,0.004,0.067c0.004,0.008,0.012,0.012,0.023,0.012
			c0.011,0,0.019-0.004,0.022-0.012c0.002-0.008,0.004-0.027,0.004-0.06V7.252z"/>
		<path fill="#231F20" d="M7.371,7.08v0.592H7.188l0.004-0.049C7.18,7.643,7.164,7.658,7.145,7.668
			C7.127,7.677,7.105,7.683,7.081,7.683c-0.027,0-0.048-0.006-0.065-0.015c-0.02-0.01-0.031-0.021-0.041-0.037
			C6.967,7.615,6.961,7.598,6.959,7.58S6.955,7.529,6.955,7.479V7.08h0.182v0.401c0,0.046,0,0.073,0.004,0.083
			c0.002,0.008,0.01,0.012,0.023,0.012s0.021-0.004,0.023-0.012c0.002-0.01,0.004-0.038,0.004-0.086V7.08H7.371L7.371,7.08z"/>
		<path fill="#231F20" d="M7.626,7v0.093h0.048v0.095H7.626v0.317c0,0.038,0.002,0.06,0.006,0.063
			c0.004,0.006,0.021,0.008,0.05,0.008v0.096H7.609c-0.041,0-0.07-0.002-0.088-0.006c-0.018-0.002-0.033-0.01-0.047-0.023
			C7.462,7.631,7.454,7.617,7.45,7.6C7.446,7.584,7.444,7.547,7.444,7.487v-0.3H7.406V7.093h0.038V7H7.626L7.626,7z"/>
		<path fill="#231F20" d="M8.123,7.385H7.889v0.13c0,0.026,0.002,0.042,0.006,0.05s0.012,0.012,0.023,0.012
			c0.014,0,0.021-0.004,0.027-0.014c0.004-0.012,0.006-0.031,0.006-0.06V7.424h0.172v0.045c0,0.036-0.002,0.062-0.008,0.084
			C8.111,7.572,8.1,7.594,8.082,7.615C8.066,7.639,8.046,7.654,8.019,7.666C7.994,7.677,7.961,7.683,7.92,7.683
			c-0.037,0-0.071-0.006-0.101-0.017C7.791,7.654,7.77,7.641,7.752,7.621C7.736,7.602,7.725,7.58,7.719,7.557s-0.01-0.056-0.01-0.1
			V7.285c0-0.053,0.008-0.094,0.021-0.125c0.014-0.028,0.037-0.052,0.068-0.067c0.032-0.015,0.068-0.024,0.109-0.024
			c0.051,0,0.093,0.01,0.126,0.028c0.032,0.02,0.056,0.044,0.069,0.077c0.012,0.031,0.02,0.076,0.02,0.134V7.385L8.123,7.385z
			 M7.941,7.29V7.246c0-0.031-0.002-0.051-0.004-0.059c-0.004-0.01-0.01-0.014-0.021-0.014s-0.02,0.004-0.023,0.012
			C7.891,7.191,7.889,7.213,7.889,7.246V7.29H7.941L7.941,7.29z"/>
		<path fill="#231F20" d="M8.361,7.08L8.355,7.156c0.025-0.056,0.063-0.084,0.113-0.088v0.209c-0.033,0-0.058,0.004-0.073,0.013
			C8.381,7.3,8.371,7.312,8.367,7.327c-0.004,0.017-0.006,0.054-0.006,0.11v0.234h-0.18V7.08H8.361L8.361,7.08z"/>
		<path fill="#231F20" d="M9.094,6.949v0.723H8.93l-0.098-0.33v0.33H8.674V6.949h0.158l0.105,0.326V6.949H9.094z"/>
		<path fill="#231F20" d="M9.573,7.385H9.34v0.13c0,0.026,0.002,0.042,0.006,0.05s0.011,0.012,0.022,0.012
			c0.014,0,0.021-0.004,0.027-0.014c0.004-0.012,0.006-0.031,0.006-0.06V7.424h0.172v0.045c0,0.036-0.004,0.062-0.008,0.084
			C9.562,7.572,9.55,7.594,9.533,7.615C9.518,7.639,9.494,7.654,9.469,7.666C9.443,7.677,9.41,7.683,9.37,7.683
			c-0.036,0-0.071-0.006-0.101-0.017C9.24,7.654,9.217,7.641,9.202,7.621C9.187,7.602,9.175,7.58,9.169,7.557
			C9.161,7.533,9.16,7.501,9.16,7.457V7.285c0-0.053,0.005-0.094,0.021-0.125c0.014-0.028,0.036-0.052,0.067-0.067
			c0.033-0.015,0.07-0.024,0.11-0.024c0.05,0,0.093,0.01,0.126,0.028c0.033,0.02,0.057,0.044,0.067,0.077
			C9.565,7.205,9.573,7.25,9.573,7.308V7.385L9.573,7.385z M9.392,7.29V7.246c0-0.031-0.002-0.051-0.004-0.059
			c-0.004-0.01-0.01-0.014-0.021-0.014S9.348,7.178,9.344,7.186C9.342,7.191,9.34,7.213,9.34,7.246V7.29H9.392L9.392,7.29z"/>
		<path fill="#231F20" d="M9.811,7.08L9.805,7.156C9.83,7.101,9.869,7.072,9.918,7.068v0.209c-0.033,0-0.057,0.004-0.072,0.013
			C9.83,7.3,9.82,7.312,9.816,7.327c-0.004,0.017-0.006,0.054-0.006,0.11v0.234h-0.18V7.08H9.811L9.811,7.08z"/>
		<path fill="#231F20" d="M10.368,6.949v0.723h-0.181V7.629c-0.017,0.018-0.034,0.031-0.054,0.041
			c-0.019,0.007-0.038,0.013-0.06,0.013c-0.027,0-0.053-0.008-0.074-0.022C9.981,7.646,9.968,7.629,9.962,7.609
			s-0.01-0.051-0.01-0.095V7.238c0-0.047,0.004-0.08,0.01-0.098c0.006-0.019,0.02-0.036,0.04-0.049
			c0.02-0.016,0.045-0.023,0.074-0.023c0.023,0,0.043,0.006,0.062,0.014c0.018,0.008,0.035,0.019,0.05,0.034V6.949H10.368
			L10.368,6.949z M10.188,7.229c0-0.021-0.002-0.037-0.006-0.045c-0.004-0.006-0.011-0.01-0.021-0.01
			c-0.012,0-0.02,0.002-0.021,0.01c-0.004,0.006-0.006,0.021-0.006,0.045v0.29c0,0.022,0.002,0.04,0.004,0.048
			c0.004,0.008,0.012,0.01,0.021,0.01c0.012,0,0.019-0.004,0.022-0.012s0.006-0.029,0.006-0.062V7.229L10.188,7.229z"/>
	</g>
</svg>
